STARTFONT 2.1
FONT -FontForge-Source Serif Pro SemiBold-Demi-R-Normal--30-290-75-75-P-163-ISO10646-1
SIZE 29 75 75
FONTBOUNDINGBOX 76 40 -8 -10
COMMENT "Generated by fontforge, http://fontforge.sourceforge.net"
COMMENT "(c) 2014 - 2019 Adobe Systems Incorporated (http://www.adobe.com/), with Reserved Font Name `Source'."
STARTPROPERTIES 40
FOUNDRY "FontForge"
FAMILY_NAME "Source Serif Pro SemiBold"
WEIGHT_NAME "Demi"
SLANT "R"
SETWIDTH_NAME "Normal"
ADD_STYLE_NAME ""
PIXEL_SIZE 30
POINT_SIZE 290
RESOLUTION_X 75
RESOLUTION_Y 75
SPACING "P"
AVERAGE_WIDTH 163
CHARSET_REGISTRY "ISO10646"
CHARSET_ENCODING "1"
FONTNAME_REGISTRY ""
CHARSET_COLLECTIONS "ISO8859-5 ISO8859-7 ISO10646-1"
FONT_NAME "SourceSerifPro-SemiBold"
FACE_NAME "Source Serif Pro SemiBold"
COPYRIGHT "(c) 2014 - 2019 Adobe Systems Incorporated (http://www.adobe.com/), with Reserved Font Name `Source'."
FONT_VERSION "3.001;hotconv 1.0.111;makeotfexe 2.5.65597"
FONT_ASCENT 24
FONT_DESCENT 6
UNDERLINE_POSITION -2
UNDERLINE_THICKNESS 2
X_HEIGHT 13
CAP_HEIGHT 19
RAW_ASCENT 800
RAW_DESCENT 200
NORM_SPACE 7
RELATIVE_WEIGHT 60
RELATIVE_SETWIDTH 50
SUPERSCRIPT_X 0
SUPERSCRIPT_Y 10
SUPERSCRIPT_SIZE 18
SUBSCRIPT_X 0
SUBSCRIPT_Y 2
SUBSCRIPT_SIZE 18
FIGURE_WIDTH 16
AVG_LOWERCASE_WIDTH 161
AVG_UPPERCASE_WIDTH 200
ENDPROPERTIES
CHARS 1458
STARTCHAR space.dup1
ENCODING 32
SWIDTH 224 0
DWIDTH 7 0
BBX 1 1 0 0
BITMAP
00
ENDCHAR
STARTCHAR exclam
ENCODING 33
SWIDTH 317 0
DWIDTH 10 0
BBX 5 20 2 0
BITMAP
78
78
F8
78
78
78
78
70
70
30
30
30
30
00
00
00
70
F8
F8
78
ENDCHAR
STARTCHAR quotedbl
ENCODING 34
SWIDTH 399 0
DWIDTH 12 0
BBX 10 10 1 12
BITMAP
6380
F3C0
F3C0
F3C0
F3C0
7380
6180
6180
6180
6180
ENDCHAR
STARTCHAR numbersign
ENCODING 35
SWIDTH 546 0
DWIDTH 16 0
BBX 15 19 1 0
BITMAP
0E18
0C18
0C30
0C30
0C30
7FFE
7FFE
7FFE
1830
1860
1860
FFFC
FFFC
FFFC
3060
30C0
30C0
30C0
30C0
ENDCHAR
STARTCHAR dollar
ENCODING 36
SWIDTH 520 0
DWIDTH 16 0
BBX 13 25 2 -3
BITMAP
0600
0600
0600
3FC0
76E0
E6F0
E670
E660
E600
F600
FE00
7F80
3FE0
0FE0
07F0
06F0
0678
C670
E670
E670
E6E0
3FC0
0600
0600
0600
ENDCHAR
STARTCHAR percent
ENCODING 37
SWIDTH 867 0
DWIDTH 26 0
BBX 22 21 2 -1
BITMAP
180060
7E00C0
6300C0
E30180
E30300
C38300
C38600
C38C00
E30860
E319F8
633398
76231C
1C630C
00C70C
00870C
01870C
03030C
06031C
060318
0C01B8
0800E0
ENDCHAR
STARTCHAR ampersand
ENCODING 38
SWIDTH 720 0
DWIDTH 22 0
BBX 20 20 1 0
BITMAP
0FE000
1C7000
183000
383000
383000
3C7000
1CE000
1FC7F0
0F07E0
0F8180
37C180
73E100
E1F300
E0F200
E07E00
E03C00
F03E00
F83F00
7FEFF0
3FC7E0
ENDCHAR
STARTCHAR quotesingle
ENCODING 39
SWIDTH 208 0
DWIDTH 6 0
BBX 4 10 1 12
BITMAP
60
F0
F0
F0
F0
70
60
60
60
60
ENDCHAR
STARTCHAR parenleft
ENCODING 40
SWIDTH 358 0
DWIDTH 11 0
BBX 8 27 2 -5
BITMAP
03
06
0E
1C
1C
38
38
70
70
70
60
E0
E0
E0
E0
E0
E0
70
70
70
30
38
18
1C
0E
06
03
ENDCHAR
STARTCHAR parenright
ENCODING 41
SWIDTH 358 0
DWIDTH 11 0
BBX 7 27 1 -5
BITMAP
C0
E0
60
30
38
18
1C
0C
0E
0E
0E
0E
0E
0E
0E
0E
0E
0E
0E
0C
1C
1C
38
30
70
E0
C0
ENDCHAR
STARTCHAR asterisk
ENCODING 42
SWIDTH 435 0
DWIDTH 13 0
BBX 13 11 0 11
BITMAP
0700
0700
0700
6230
FAF8
7FF0
0700
0D80
1DC0
38E0
38E0
ENDCHAR
STARTCHAR plus
ENCODING 43
SWIDTH 537 0
DWIDTH 16 0
BBX 14 15 1 2
BITMAP
0300
0300
0300
0300
0300
0300
FFFC
FFFC
0300
0300
0300
0300
0300
0300
0300
ENDCHAR
STARTCHAR comma
ENCODING 44
SWIDTH 300 0
DWIDTH 9 0
BBX 7 10 0 -6
BITMAP
3C
3E
3E
1E
0E
0C
0C
18
30
E0
ENDCHAR
STARTCHAR hyphen.dup2
ENCODING 45
SWIDTH 325 0
DWIDTH 10 0
BBX 8 3 1 6
BITMAP
FF
FF
FF
ENDCHAR
STARTCHAR period
ENCODING 46
SWIDTH 300 0
DWIDTH 9 0
BBX 5 4 2 0
BITMAP
70
F8
F8
70
ENDCHAR
STARTCHAR slash
ENCODING 47
SWIDTH 357 0
DWIDTH 11 0
BBX 11 26 0 -5
BITMAP
00E0
00C0
01C0
0180
0180
0380
0300
0300
0700
0700
0600
0600
0E00
0C00
0C00
1C00
1800
1800
3800
3000
3000
7000
7000
6000
6000
E000
ENDCHAR
STARTCHAR zero
ENCODING 48
SWIDTH 520 0
DWIDTH 16 0
BBX 13 20 1 0
BITMAP
0200
1FC0
38E0
3870
7070
7078
F038
F038
F038
F038
F038
F038
F038
F038
7038
7078
7070
3870
3CE0
0FC0
ENDCHAR
STARTCHAR one
ENCODING 49
SWIDTH 520 0
DWIDTH 16 0
BBX 12 19 2 0
BITMAP
0F00
7F00
4F00
0F00
0F00
0F00
0F00
0F00
0F00
0F00
0F00
0F00
0F00
0F00
0F00
0F00
0F00
3FE0
FFF0
ENDCHAR
STARTCHAR two
ENCODING 50
SWIDTH 520 0
DWIDTH 16 0
BBX 13 20 1 0
BITMAP
0300
1FE0
70F0
7070
F078
7078
0078
0070
00F0
00E0
01E0
03C0
0380
0600
0C00
1800
3000
7FF8
7FF8
7FF8
ENDCHAR
STARTCHAR three
ENCODING 51
SWIDTH 520 0
DWIDTH 16 0
BBX 14 20 1 0
BITMAP
0300
1FE0
38F0
7878
7078
2078
0078
0070
00E0
0FC0
0FE0
00F0
0078
0038
003C
E038
F038
7078
70F0
3FE0
ENDCHAR
STARTCHAR four
ENCODING 52
SWIDTH 520 0
DWIDTH 16 0
BBX 14 19 1 0
BITMAP
00E0
01E0
03E0
02E0
06E0
0CE0
08E0
18E0
30E0
60E0
60E0
FFFC
FFFC
FFFC
00E0
00E0
00E0
00E0
00E0
ENDCHAR
STARTCHAR five
ENCODING 53
SWIDTH 520 0
DWIDTH 16 0
BBX 14 19 1 0
BITMAP
3FF8
3FF8
3FF8
3000
3000
3000
3000
3FC0
3FF0
00F8
0078
0078
003C
003C
E038
F078
7078
70F0
3FC0
ENDCHAR
STARTCHAR six
ENCODING 54
SWIDTH 520 0
DWIDTH 16 0
BBX 13 20 1 0
BITMAP
0010
00F0
03C0
0F00
1E00
3C00
3800
7800
73C0
FFF0
F8F8
F078
F038
F038
F038
F038
7078
7870
38F0
1FC0
ENDCHAR
STARTCHAR seven
ENCODING 55
SWIDTH 520 0
DWIDTH 16 0
BBX 12 19 2 0
BITMAP
FFF0
FFF0
FFF0
0030
0060
0060
00C0
00C0
01C0
0380
0380
0700
0700
0F00
0E00
1E00
1C00
3C00
3C00
ENDCHAR
STARTCHAR eight
ENCODING 56
SWIDTH 520 0
DWIDTH 16 0
BBX 14 27 1 -3
BITMAP
1FE0
3FF0
7FF8
E01C
E01C
E01C
E01C
E01C
E01C
F03C
7878
3CF0
1FE0
0FC0
1FE0
3CF0
7878
F03C
E01C
E01C
E01C
E01C
E01C
E01C
7FF8
3FF0
1FE0
ENDCHAR
STARTCHAR nine
ENCODING 57
SWIDTH 520 0
DWIDTH 16 0
BBX 13 21 1 -1
BITMAP
0700
1FC0
78F0
7070
F078
F078
F038
F038
F038
F038
7CF8
3FF8
0678
0070
00F0
00E0
01C0
0780
1E00
7800
4000
ENDCHAR
STARTCHAR colon
ENCODING 58
SWIDTH 300 0
DWIDTH 9 0
BBX 5 15 2 0
BITMAP
70
F8
F8
70
00
00
00
00
00
00
00
70
F8
F8
70
ENDCHAR
STARTCHAR semicolon
ENCODING 59
SWIDTH 300 0
DWIDTH 9 0
BBX 7 21 0 -6
BITMAP
1C
3E
3E
1C
00
00
00
00
00
00
00
3C
3E
3E
1E
0E
0C
0C
18
30
E0
ENDCHAR
STARTCHAR less
ENCODING 60
SWIDTH 537 0
DWIDTH 16 0
BBX 14 15 1 2
BITMAP
0018
007C
01F0
03C0
0F00
3C00
F800
F000
7C00
1F00
07C0
01E0
00FC
0038
0008
ENDCHAR
STARTCHAR equal
ENCODING 61
SWIDTH 537 0
DWIDTH 16 0
BBX 14 8 1 6
BITMAP
FFFC
FFFC
0000
0000
0000
0000
FFFC
FFFC
ENDCHAR
STARTCHAR greater
ENCODING 62
SWIDTH 537 0
DWIDTH 16 0
BBX 13 15 2 2
BITMAP
C000
F000
7C00
1F00
0780
01E0
0078
0078
01F0
03C0
0F00
3E00
F800
E000
8000
ENDCHAR
STARTCHAR question
ENCODING 63
SWIDTH 432 0
DWIDTH 13 0
BBX 9 20 2 0
BITMAP
F800
FC00
FE00
1F00
0180
0180
0180
0780
3F80
7F00
7800
7000
2000
0000
0000
0000
7800
F800
F800
7800
ENDCHAR
STARTCHAR at
ENCODING 64
SWIDTH 862 0
DWIDTH 26 0
BBX 24 25 1 -5
BITMAP
000F00
00FFE0
038070
060018
0C000C
180006
383EC6
3073C6
60E183
61C383
61C383
E18383
C38386
C38306
C38706
C3870C
E3FB18
61F3F0
60E0C0
300000
380000
1C0000
0F0100
03FF80
003000
ENDCHAR
STARTCHAR A
ENCODING 65
SWIDTH 669 0
DWIDTH 20 0
BBX 20 20 0 0
BITMAP
007000
00F000
00F000
00F800
01F800
01F800
013C00
033C00
033C00
021E00
061E00
061E00
07FF00
0FFF00
080F00
080780
180780
180780
7C0FE0
FE1FF0
ENDCHAR
STARTCHAR B
ENCODING 66
SWIDTH 640 0
DWIDTH 19 0
BBX 17 20 1 0
BITMAP
FFF800
FFFC00
1E1E00
1E0F00
1E0F00
1E0F00
1E0F00
1E0E00
1E3C00
1FE000
1E7E00
1E0F00
1E0780
1E0780
1E0780
1E0780
1E0780
1E0F00
7FFE00
FFF800
ENDCHAR
STARTCHAR C
ENCODING 67
SWIDTH 627 0
DWIDTH 19 0
BBX 17 21 1 -1
BITMAP
03FE00
0F8700
1E0300
3C0380
3C0380
780380
780000
F80000
F80000
F00000
F00000
F80000
F80000
780000
780000
7C0180
3C0380
1E0380
0F8780
03FF00
006000
ENDCHAR
STARTCHAR D
ENCODING 68
SWIDTH 707 0
DWIDTH 21 0
BBX 19 20 1 0
BITMAP
FFF000
FFFE00
1E0F00
1E0780
1E03C0
1E03C0
1E03E0
1E01E0
1E01E0
1E01E0
1E01E0
1E01E0
1E01E0
1E03E0
1E03C0
1E03C0
1E0780
1E0F00
7FFE00
FFF000
ENDCHAR
STARTCHAR E
ENCODING 69
SWIDTH 599 0
DWIDTH 18 0
BBX 16 20 1 0
BITMAP
FFFE
FFFE
1E06
1E06
1E06
1E01
1E10
1E10
1E10
1FF0
1FF0
1E10
1E10
1E00
1E00
1E03
1E03
1E03
7FFF
FFFF
ENDCHAR
STARTCHAR F
ENCODING 70
SWIDTH 579 0
DWIDTH 17 0
BBX 16 20 1 0
BITMAP
FFFE
FFFE
1E06
1E07
1E07
1E00
1E18
1E18
1E18
1FF8
1FF8
1E18
1E18
1E00
1E00
1E00
1E00
1E00
7F80
FF80
ENDCHAR
STARTCHAR G
ENCODING 71
SWIDTH 678 0
DWIDTH 20 0
BBX 19 21 1 -1
BITMAP
03FF00
0F8780
1E0380
3C0380
3C0380
780180
780000
F80000
F80000
F80000
F03FE0
F03FE0
F80780
780780
780780
7C0780
3C0780
1E0780
0F8780
03FF00
006000
ENDCHAR
STARTCHAR H
ENCODING 72
SWIDTH 778 0
DWIDTH 23 0
BBX 21 20 1 0
BITMAP
FF8FF8
FF8FF8
1E01E0
1E01E0
1E01E0
1E01E0
1E01E0
1E01E0
1E01E0
1FFFE0
1FFFE0
1E01E0
1E01E0
1E01E0
1E01E0
1E01E0
1E01E0
1E01E0
7F07F0
FF8FF8
ENDCHAR
STARTCHAR I
ENCODING 73
SWIDTH 379 0
DWIDTH 11 0
BBX 9 20 1 0
BITMAP
FF80
FF80
1E00
1E00
1E00
1E00
1E00
1E00
1E00
1E00
1E00
1E00
1E00
1E00
1E00
1E00
1E00
1E00
7F00
FF80
ENDCHAR
STARTCHAR J
ENCODING 74
SWIDTH 384 0
DWIDTH 12 0
BBX 13 25 -2 -5
BITMAP
1FF8
1FF8
03C0
03C0
03C0
03C0
03C0
03C0
03C0
03C0
03C0
03C0
03C0
03C0
03C0
03C0
03C0
03C0
03C0
03C0
0380
0380
F300
FE00
7C00
ENDCHAR
STARTCHAR K
ENCODING 75
SWIDTH 681 0
DWIDTH 20 0
BBX 19 20 1 0
BITMAP
FF8FE0
FF8FE0
1E0600
1E0C00
1C0C00
1C1800
1C3000
1C6000
1CF000
1CF000
1DF800
1F7800
1E3C00
1C1E00
1C1E00
1C0F00
1C0F00
1E0780
7F0FE0
FF9FE0
ENDCHAR
STARTCHAR L
ENCODING 76
SWIDTH 589 0
DWIDTH 18 0
BBX 16 20 1 0
BITMAP
FF80
FF80
1E00
1E00
1E00
1E00
1E00
1E00
1E00
1E00
1E00
1E00
1E00
1E00
1E03
1E07
1E07
1E07
7FFE
FFFE
ENDCHAR
STARTCHAR M
ENCODING 77
SWIDTH 899 0
DWIDTH 27 0
BBX 25 20 1 0
BITMAP
FE003F80
FE003F80
1F007C00
1F007C00
1F00FC00
1780FC00
1780BC00
13C1BC00
13C1BC00
13C13C00
11E33C00
11E33C00
10F63C00
10F63C00
10F63C00
107C3C00
107C3C00
10383C00
FC387F00
FE38FF80
ENDCHAR
STARTCHAR N
ENCODING 78
SWIDTH 731 0
DWIDTH 22 0
BBX 20 20 1 0
BITMAP
FC0FF0
FE0FF0
1F0080
1F0080
1F8080
17C080
13C080
13E080
11F080
10F880
107880
107C80
103E80
101F80
100F80
100F80
100780
100380
7E0380
FF0180
ENDCHAR
STARTCHAR O
ENCODING 79
SWIDTH 704 0
DWIDTH 21 0
BBX 19 21 1 -1
BITMAP
03FC00
0F1E00
1E0700
3C0780
3803C0
7803C0
7803C0
F803E0
F801E0
F001E0
F001E0
F801E0
F803E0
7803C0
7803C0
7803C0
3C0780
1E0700
0F1E00
07FC00
004000
ENDCHAR
STARTCHAR P
ENCODING 80
SWIDTH 600 0
DWIDTH 18 0
BBX 16 20 1 0
BITMAP
FFF0
FFFC
1E1E
1E0F
1E0F
1E07
1E07
1E0F
1E0F
1E1E
1E3C
1FF8
1E00
1E00
1E00
1E00
1E00
1E00
7F80
FF80
ENDCHAR
STARTCHAR Q
ENCODING 81
SWIDTH 704 0
DWIDTH 21 0
BBX 19 26 1 -6
BITMAP
03FC00
0F1E00
1E0700
3C0780
3803C0
7803C0
7803C0
F803E0
F801E0
F001E0
F001E0
F801E0
F803E0
7803C0
7803C0
7803C0
3C0780
1E0700
0F1E00
07FC00
00E000
00E000
00F000
00F800
007FC0
003FC0
ENDCHAR
STARTCHAR R
ENCODING 82
SWIDTH 666 0
DWIDTH 20 0
BBX 19 20 1 0
BITMAP
FFF000
FFFE00
1E0F00
1E0F00
1E0700
1E0780
1E0700
1E0F00
1E1E00
1FFC00
1FF800
1E3C00
1E1E00
1E1E00
1E0E00
1E0F00
1E0F00
1E0F00
7F0FC0
FF87E0
ENDCHAR
STARTCHAR S
ENCODING 83
SWIDTH 526 0
DWIDTH 16 0
BBX 14 21 1 -1
BITMAP
1FF0
3C78
7038
7038
F038
F000
7800
7C00
7F80
3FE0
0FF0
03F8
00F8
007C
003C
E03C
E038
E038
F0F0
7FE0
0200
ENDCHAR
STARTCHAR T
ENCODING 84
SWIDTH 618 0
DWIDTH 19 0
BBX 17 20 1 0
BITMAP
FFFF80
FFFF80
C3C380
C3C180
C3C180
C3C180
03C000
03C000
03C000
03C000
03C000
03C000
03C000
03C000
03C000
03C000
03C000
03C000
0FF000
1FF800
ENDCHAR
STARTCHAR U
ENCODING 85
SWIDTH 729 0
DWIDTH 22 0
BBX 20 21 1 -1
BITMAP
FF87F0
FF87F0
3C0080
3C0080
3C0080
3C0080
3C0080
3C0080
3C0080
3C0080
3C0080
3C0080
3C0080
3C0080
1E0180
1E0180
1E0380
0F8700
0FFE00
03FC00
006000
ENDCHAR
STARTCHAR V
ENCODING 86
SWIDTH 668 0
DWIDTH 20 0
BBX 20 20 0 0
BITMAP
FF87F0
FF87F0
1E0180
1E0180
1E0180
0F0300
0F0300
0F0300
078600
078600
038400
03CC00
03CC00
01E800
01F800
01F800
00F000
00F000
00F000
006000
ENDCHAR
STARTCHAR W
ENCODING 87
SWIDTH 971 0
DWIDTH 29 0
BBX 29 20 0 0
BITMAP
FF9FF3F8
FF9FF3F8
1E038040
1E03C0C0
1E07C0C0
0F07C0C0
0F05E080
0F0DE180
0F0DE180
0788F100
0798F300
0798F300
03907300
03F07A00
03F07E00
01E03E00
01E03C00
01E03C00
01E01C00
00C01C00
ENDCHAR
STARTCHAR X
ENCODING 88
SWIDTH 651 0
DWIDTH 20 0
BBX 19 20 0 0
BITMAP
FF8FC0
FF8FC0
1F0300
0F0600
0F8C00
078C00
03D800
03D000
01F000
01F000
00F000
01F800
017800
033C00
063E00
061E00
0C0F00
180F00
7C1FE0
FE3FE0
ENDCHAR
STARTCHAR Y
ENCODING 89
SWIDTH 629 0
DWIDTH 19 0
BBX 19 20 0 0
BITMAP
FF8FE0
FF8FE0
1E0300
1F0200
0F0600
0F8600
078C00
078C00
03D800
03D800
01F000
01F000
00E000
00E000
00E000
00E000
00E000
01E000
03FC00
07FC00
ENDCHAR
STARTCHAR Z
ENCODING 90
SWIDTH 557 0
DWIDTH 17 0
BBX 15 20 1 0
BITMAP
FFFE
FFFC
E03C
C078
C0F8
C0F0
01E0
01E0
03C0
07C0
0780
0F00
1F00
1E00
3E00
3C06
7806
F80E
FFFE
FFFE
ENDCHAR
STARTCHAR bracketleft
ENCODING 91
SWIDTH 333 0
DWIDTH 10 0
BBX 6 26 3 -5
BITMAP
FC
E0
E0
E0
E0
E0
E0
E0
E0
E0
E0
E0
E0
E0
E0
E0
E0
E0
E0
E0
E0
E0
E0
E0
FC
FC
ENDCHAR
STARTCHAR backslash
ENCODING 92
SWIDTH 357 0
DWIDTH 11 0
BBX 11 26 0 -5
BITMAP
E000
6000
6000
7000
3000
3000
3800
1800
1800
1C00
1C00
0C00
0C00
0E00
0600
0600
0700
0300
0300
0380
0180
0180
01C0
01C0
00C0
00E0
ENDCHAR
STARTCHAR bracketright
ENCODING 93
SWIDTH 333 0
DWIDTH 10 0
BBX 6 26 1 -5
BITMAP
FC
1C
1C
1C
1C
1C
1C
1C
1C
1C
1C
1C
1C
1C
1C
1C
1C
1C
1C
1C
1C
1C
1C
1C
FC
FC
ENDCHAR
STARTCHAR asciicircum
ENCODING 94
SWIDTH 537 0
DWIDTH 16 0
BBX 12 9 2 6
BITMAP
0600
0F00
0F80
1980
39C0
30E0
7060
E070
4020
ENDCHAR
STARTCHAR underscore
ENCODING 95
SWIDTH 525 0
DWIDTH 16 0
BBX 14 3 1 -3
BITMAP
FFFC
FFFC
FFFC
ENDCHAR
STARTCHAR grave
ENCODING 96
SWIDTH 400 0
DWIDTH 12 0
BBX 6 6 2 17
BITMAP
60
F0
70
38
18
0C
ENDCHAR
STARTCHAR a
ENCODING 97
SWIDTH 520 0
DWIDTH 16 0
BBX 15 15 1 0
BITMAP
0F80
3FE0
70E0
70F0
70F0
20F0
01F0
0FF0
38F0
70F0
F0F0
F0F0
F0F0
7F7E
7E7C
ENDCHAR
STARTCHAR b
ENCODING 98
SWIDTH 593 0
DWIDTH 18 0
BBX 16 22 1 0
BITMAP
1C00
FC00
F800
3800
3800
3800
3800
38F0
3BF8
3F7C
3C1E
381E
380E
380F
380F
380F
380F
381E
381E
3C3C
7FFC
FBF8
ENDCHAR
STARTCHAR c
ENCODING 99
SWIDTH 500 0
DWIDTH 15 0
BBX 13 15 1 0
BITMAP
07C0
1FE0
3C70
7878
7038
F030
F000
F000
F000
F000
F000
7808
7C38
3FF0
1FE0
ENDCHAR
STARTCHAR d
ENCODING 100
SWIDTH 580 0
DWIDTH 17 0
BBX 16 22 1 0
BITMAP
000C
00FC
00FC
003C
003C
003C
003C
073C
1FFC
3EFC
783C
783C
F03C
F03C
F03C
F03C
F03C
F03C
783C
783C
3FFC
1FBF
ENDCHAR
STARTCHAR e
ENCODING 101
SWIDTH 515 0
DWIDTH 15 0
BBX 13 15 1 0
BITMAP
0780
1FE0
3870
7838
7038
F038
FFF8
FFF8
F000
F000
F000
7808
7C18
3FF0
1FE0
ENDCHAR
STARTCHAR f
ENCODING 102
SWIDTH 358 0
DWIDTH 11 0
BBX 12 22 1 0
BITMAP
03F0
06F0
0C70
1C00
1C00
3C00
3C00
3C00
FF80
3C00
3C00
3C00
3C00
3C00
3C00
3C00
3C00
3C00
3C00
3C00
7E00
FF00
ENDCHAR
STARTCHAR g
ENCODING 103
SWIDTH 530 0
DWIDTH 16 0
BBX 14 22 1 -7
BITMAP
0F84
3FFC
70FC
7070
F070
F070
7070
70F0
3DE0
3F80
2000
6000
7800
7FF8
7FFC
3FFC
601C
C01C
E01C
E038
7FF0
3FC0
ENDCHAR
STARTCHAR h
ENCODING 104
SWIDTH 609 0
DWIDTH 18 0
BBX 16 22 1 0
BITMAP
1C00
FC00
F800
3800
3800
3800
3800
3870
39FC
3BFC
3E1C
381E
381E
381E
381E
381E
381E
381E
381E
381E
7C3E
FE7F
ENDCHAR
STARTCHAR i
ENCODING 105
SWIDTH 307 0
DWIDTH 9 0
BBX 7 22 1 0
BITMAP
38
3C
7C
3C
00
00
00
0C
7C
FC
3C
3C
3C
3C
3C
3C
3C
3C
3C
3C
7C
FE
ENDCHAR
STARTCHAR j
ENCODING 106
SWIDTH 292 0
DWIDTH 9 0
BBX 10 29 -3 -7
BITMAP
0380
03C0
07C0
03C0
0000
0000
0000
00C0
07C0
0FC0
03C0
0380
0380
0380
0380
0380
0380
0380
0380
0380
0380
0380
0380
0380
0380
0380
F300
FF00
7C00
ENDCHAR
STARTCHAR k
ENCODING 107
SWIDTH 572 0
DWIDTH 17 0
BBX 16 22 1 0
BITMAP
1C00
FC00
FC00
3C00
3C00
3800
3800
3800
38FE
3830
3860
38C0
39C0
3BC0
3FE0
3DE0
38F0
3878
3C78
3C3C
7C3E
FF1F
ENDCHAR
STARTCHAR l
ENCODING 108
SWIDTH 310 0
DWIDTH 9 0
BBX 8 22 1 0
BITMAP
1C
FC
FC
3C
3C
38
38
38
38
38
38
38
38
38
38
38
38
38
3C
3C
7C
FF
ENDCHAR
STARTCHAR m
ENCODING 109
SWIDTH 904 0
DWIDTH 27 0
BBX 25 15 1 0
BITMAP
08703800
79FCFE00
FBFDFE00
3E1F1E00
3C1E0E00
3C1E0F00
3C1E0F00
3C1E0F00
3C1E0F00
3C1E0F00
3C1E0F00
3C1E0F00
3C1E0F00
7C3E1F00
FE7F3F80
ENDCHAR
STARTCHAR n
ENCODING 110
SWIDTH 611 0
DWIDTH 18 0
BBX 17 15 1 0
BITMAP
087000
79FC00
FBFC00
3E1C00
3C1E00
3C1E00
3C1E00
3C1E00
3C1E00
3C1E00
3C1E00
3C1E00
3C1E00
7C3E00
FE7F80
ENDCHAR
STARTCHAR o
ENCODING 111
SWIDTH 557 0
DWIDTH 17 0
BBX 15 15 1 0
BITMAP
0780
1FF0
3878
7838
703C
F01C
F01C
F01E
F01E
F01C
F03C
703C
7838
3C70
0FE0
ENDCHAR
STARTCHAR p
ENCODING 112
SWIDTH 596 0
DWIDTH 18 0
BBX 16 22 1 -7
BITMAP
08F0
7BF8
FF7C
3C1E
3C1E
3C0F
3C0F
3C0F
3C0F
3C0F
3C0E
3C1E
3C3E
3FFC
3DF8
3C00
3C00
3C00
3C00
3C00
7E00
FF00
ENDCHAR
STARTCHAR q
ENCODING 113
SWIDTH 569 0
DWIDTH 17 0
BBX 16 22 1 -7
BITMAP
0704
1FDC
3E7C
783C
783C
F03C
F03C
F03C
F03C
F03C
F03C
783C
783C
3FFC
1FBC
003C
003C
003C
003C
003C
007E
00FF
ENDCHAR
STARTCHAR r
ENCODING 114
SWIDTH 443 0
DWIDTH 13 0
BBX 12 15 1 0
BITMAP
0860
79F0
FBF0
3E70
3C00
3C00
3C00
3C00
3C00
3C00
3C00
3C00
3C00
7E00
FF00
ENDCHAR
STARTCHAR s
ENCODING 115
SWIDTH 444 0
DWIDTH 13 0
BBX 11 15 1 0
BITMAP
0F00
3FE0
70C0
60C0
F0C0
F800
7F00
7FC0
1FE0
07E0
01E0
C0E0
E0E0
E1C0
7F80
ENDCHAR
STARTCHAR t
ENCODING 116
SWIDTH 341 0
DWIDTH 10 0
BBX 10 19 0 0
BITMAP
0C00
0C00
1C00
1C00
1C00
FFC0
1C00
1C00
1C00
1C00
1C00
1C00
1C00
3C00
3C00
3C00
1C00
1FC0
1F80
ENDCHAR
STARTCHAR u
ENCODING 117
SWIDTH 595 0
DWIDTH 18 0
BBX 16 15 1 0
BITMAP
0804
F87C
783C
381C
381C
381C
381C
381C
381C
781C
781C
383C
3C7C
3FDE
1F9F
ENDCHAR
STARTCHAR v
ENCODING 118
SWIDTH 516 0
DWIDTH 15 0
BBX 15 14 0 0
BITMAP
FF3E
3C08
3C18
3C18
1E10
1E30
0E30
0F20
0760
07C0
07C0
03C0
0380
0180
ENDCHAR
STARTCHAR w
ENCODING 119
SWIDTH 776 0
DWIDTH 23 0
BBX 23 14 0 0
BITMAP
FE7F3E
381C18
3C3C18
3C3E18
1C2E30
1E6E30
1E6F30
0E4720
0FC7E0
07C3E0
0783C0
0783C0
030180
030180
ENDCHAR
STARTCHAR x
ENCODING 120
SWIDTH 538 0
DWIDTH 16 0
BBX 16 14 0 0
BITMAP
FF3E
1E18
1E18
0F30
0FE0
07C0
03C0
03E0
07E0
04F0
0CF8
1878
383C
FCFF
ENDCHAR
STARTCHAR y
ENCODING 121
SWIDTH 523 0
DWIDTH 16 0
BBX 16 21 0 -7
BITMAP
FF3F
3C0C
3C08
1C18
1E18
1E10
0E30
0F30
0720
07E0
07C0
03C0
03C0
0180
0180
0100
0100
0300
F600
FC00
7800
ENDCHAR
STARTCHAR z
ENCODING 122
SWIDTH 460 0
DWIDTH 14 0
BBX 12 14 1 0
BITMAP
FFF0
E1E0
C1E0
C3C0
0780
0780
0F00
1E00
1E00
3C30
7830
7830
F070
FFF0
ENDCHAR
STARTCHAR braceleft
ENCODING 123
SWIDTH 340 0
DWIDTH 10 0
BBX 8 26 1 -5
BITMAP
1F
1C
38
38
38
38
18
1C
1C
0C
18
38
E0
78
18
0C
0C
1C
18
18
38
38
38
3C
1F
07
ENDCHAR
STARTCHAR bar
ENCODING 124
SWIDTH 261 0
DWIDTH 8 0
BBX 2 31 3 -8
BITMAP
C0
C0
C0
C0
C0
C0
C0
C0
C0
C0
C0
C0
C0
C0
C0
C0
C0
C0
C0
C0
C0
C0
C0
C0
C0
C0
C0
C0
C0
C0
C0
ENDCHAR
STARTCHAR braceright
ENCODING 125
SWIDTH 340 0
DWIDTH 10 0
BBX 8 26 1 -5
BITMAP
F8
3C
1C
1C
1C
1C
18
18
38
38
18
1C
07
0F
18
18
38
18
18
1C
1C
1C
1C
1C
F8
E0
ENDCHAR
STARTCHAR asciitilde
ENCODING 126
SWIDTH 537 0
DWIDTH 16 0
BBX 14 5 1 8
BITMAP
3C0C
7E0C
679C
E3F8
C0F0
ENDCHAR
STARTCHAR space
ENCODING 160
SWIDTH 224 0
DWIDTH 7 0
BBX 1 1 0 0
BITMAP
00
ENDCHAR
STARTCHAR exclamdown
ENCODING 161
SWIDTH 317 0
DWIDTH 10 0
BBX 5 20 2 -6
BITMAP
70
F8
F8
78
00
00
00
30
30
30
30
70
70
70
78
78
78
F8
F8
78
ENDCHAR
STARTCHAR cent
ENCODING 162
SWIDTH 520 0
DWIDTH 16 0
BBX 13 21 1 -1
BITMAP
0100
0100
0100
07E0
1F70
3938
7938
7138
F100
F100
F100
F100
F100
7100
7908
3D18
3FF0
0FE0
0100
0100
0100
ENDCHAR
STARTCHAR sterling
ENCODING 163
SWIDTH 520 0
DWIDTH 16 0
BBX 13 20 1 0
BITMAP
0100
0FE0
1C70
3878
3838
3838
3800
3800
3800
1C00
FFE0
FFE0
1C00
1C00
1800
1800
3000
7FF8
FFF8
FFF8
ENDCHAR
STARTCHAR currency
ENCODING 164
SWIDTH 522 0
DWIDTH 16 0
BBX 14 14 1 3
BITMAP
C008
E01C
E7B8
3FF0
3860
3030
3030
3030
3030
3860
1FE0
6FF8
E01C
C01C
ENDCHAR
STARTCHAR yen
ENCODING 165
SWIDTH 520 0
DWIDTH 16 0
BBX 16 19 0 0
BITMAP
FF3F
380C
3C08
1C18
1E18
0E30
0F30
0760
07E0
3FFC
3FFC
03C0
03C0
3FFC
3FFC
03C0
03C0
0FF0
1FF8
ENDCHAR
STARTCHAR brokenbar
ENCODING 166
SWIDTH 261 0
DWIDTH 8 0
BBX 2 31 3 -8
BITMAP
C0
C0
C0
C0
C0
C0
C0
C0
C0
C0
C0
C0
C0
00
00
00
00
C0
C0
C0
C0
C0
C0
C0
C0
C0
C0
C0
C0
C0
C0
ENDCHAR
STARTCHAR section
ENCODING 167
SWIDTH 510 0
DWIDTH 15 0
BBX 13 23 1 -3
BITMAP
0FE0
3CF0
3870
3070
3800
3C00
3F00
3FC0
6FE0
E1F0
E078
F038
7818
7E38
3FB0
0FE0
03E0
00F0
2070
7070
7860
39E0
1F80
ENDCHAR
STARTCHAR dieresis
ENCODING 168
SWIDTH 400 0
DWIDTH 12 0
BBX 10 3 1 18
BITMAP
E1C0
F3C0
E1C0
ENDCHAR
STARTCHAR copyright
ENCODING 169
SWIDTH 750 0
DWIDTH 23 0
BBX 21 21 1 -1
BITMAP
03FE00
0E0700
1801C0
3000E0
60FC60
61C430
C30430
C70410
C70010
C70018
C70018
C70018
C70410
C30430
63C430
60FC60
300060
1801C0
0E0380
03FE00
002000
ENDCHAR
STARTCHAR ordfeminine
ENCODING 170
SWIDTH 353 0
DWIDTH 11 0
BBX 10 10 1 12
BITMAP
7E00
E700
C700
0700
3F00
E700
C700
C700
FFC0
6100
ENDCHAR
STARTCHAR guillemotleft
ENCODING 171
SWIDTH 518 0
DWIDTH 16 0
BBX 14 13 1 1
BITMAP
0208
061C
1C30
3860
71E0
F3C0
E380
F3C0
70E0
3870
0C30
061C
0208
ENDCHAR
STARTCHAR logicalnot
ENCODING 172
SWIDTH 537 0
DWIDTH 16 0
BBX 14 7 1 5
BITMAP
FFFC
FFFC
000C
000C
000C
000C
000C
ENDCHAR
STARTCHAR hyphen.dup3
ENCODING 173
SWIDTH 325 0
DWIDTH 10 0
BBX 8 3 1 6
BITMAP
FF
FF
FF
ENDCHAR
STARTCHAR registered
ENCODING 174
SWIDTH 464 0
DWIDTH 14 0
BBX 12 12 1 9
BITMAP
1F80
6060
5C20
C930
8910
8E10
8910
8930
54A0
6060
3FC0
0600
ENDCHAR
STARTCHAR macron
ENCODING 175
SWIDTH 400 0
DWIDTH 12 0
BBX 8 2 2 18
BITMAP
FF
FF
ENDCHAR
STARTCHAR degree
ENCODING 176
SWIDTH 328 0
DWIDTH 10 0
BBX 8 7 1 13
BITMAP
7C
42
C3
83
C3
C2
7E
ENDCHAR
STARTCHAR plusminus
ENCODING 177
SWIDTH 537 0
DWIDTH 16 0
BBX 14 17 1 0
BITMAP
0300
0300
0300
0300
0300
0300
FFFC
FFFC
0300
0300
0300
0300
0300
0300
0000
FFFC
FFFC
ENDCHAR
STARTCHAR two.sups
ENCODING 178
SWIDTH 371 0
DWIDTH 11 0
BBX 9 12 1 13
BITMAP
0C00
6F00
E300
E300
0300
0700
0600
0C00
1800
3000
7F80
FF80
ENDCHAR
STARTCHAR three.sups
ENCODING 179
SWIDTH 371 0
DWIDTH 11 0
BBX 9 13 1 12
BITMAP
1C00
6F00
6300
6300
0300
0600
1E00
0300
0380
C380
E380
6700
1C00
ENDCHAR
STARTCHAR acute
ENCODING 180
SWIDTH 400 0
DWIDTH 12 0
BBX 6 6 4 17
BITMAP
18
3C
38
70
E0
C0
ENDCHAR
STARTCHAR mu.dup4
ENCODING 181
SWIDTH 578 0
DWIDTH 17 0
BBX 15 21 2 -6
BITMAP
3018
F078
F078
F078
F078
F078
7078
7070
7070
7070
6070
7070
7DB8
7FBE
6F3C
E000
E000
F000
F000
F000
C000
ENDCHAR
STARTCHAR paragraph
ENCODING 182
SWIDTH 616 0
DWIDTH 18 0
BBX 16 24 1 -4
BITMAP
03FF
1FFF
3F1C
7F1C
FF1C
FF1C
FF1C
FF1C
FF1C
FF1C
FF1C
FF1C
7F1C
3F1C
1F1C
071C
001C
001C
001C
001C
001C
001C
001C
001C
ENDCHAR
STARTCHAR periodcentered
ENCODING 183
SWIDTH 300 0
DWIDTH 9 0
BBX 5 4 2 8
BITMAP
70
F8
F8
70
ENDCHAR
STARTCHAR cedilla
ENCODING 184
SWIDTH 400 0
DWIDTH 12 0
BBX 6 7 3 -7
BITMAP
20
60
78
1C
1C
F8
F0
ENDCHAR
STARTCHAR one.sups
ENCODING 185
SWIDTH 371 0
DWIDTH 11 0
BBX 8 12 2 13
BITMAP
08
F8
F8
38
38
38
38
38
38
38
38
FF
ENDCHAR
STARTCHAR ordmasculine
ENCODING 186
SWIDTH 378 0
DWIDTH 11 0
BBX 10 10 1 12
BITMAP
3E00
6380
E180
C180
C1C0
C1C0
C180
E180
7300
1C00
ENDCHAR
STARTCHAR guillemotright
ENCODING 187
SWIDTH 518 0
DWIDTH 16 0
BBX 14 13 1 1
BITMAP
8100
E380
71C0
38E0
1C70
0E3C
0E1C
0E38
1C70
38E0
71C0
C380
8100
ENDCHAR
STARTCHAR onequarter
ENCODING 188
SWIDTH 867 0
DWIDTH 26 0
BBX 22 21 2 -1
BITMAP
080020
F80060
F800C0
380080
380180
380300
380200
380600
380C00
380870
3818F0
FF30F0
006170
006270
00C670
018470
018FFC
030FFC
060070
0C0070
040000
ENDCHAR
STARTCHAR onehalf
ENCODING 189
SWIDTH 867 0
DWIDTH 26 0
BBX 22 21 2 -1
BITMAP
080040
F800C0
B80180
380180
380300
380600
380600
380C00
3818E0
381338
38331C
FE631C
00401C
00C018
018030
010060
0300C0
060180
0C03FC
1C03FC
080000
ENDCHAR
STARTCHAR threequarters
ENCODING 190
SWIDTH 867 0
DWIDTH 26 0
BBX 22 21 2 -1
BITMAP
180020
6F0060
630040
6300C0
030180
060300
1E0300
030600
038C00
C38C70
E39870
6730B0
3C2130
006330
00C230
008430
0187FC
0307FC
020030
060030
0C0000
ENDCHAR
STARTCHAR questiondown
ENCODING 191
SWIDTH 432 0
DWIDTH 13 0
BBX 9 20 2 -5
BITMAP
0F00
0F80
0F00
0F00
0000
0000
0000
0200
0600
0F00
7F00
FE00
F000
C000
C000
C000
7C00
3F80
1F80
0F80
ENDCHAR
STARTCHAR Agrave
ENCODING 192
SWIDTH 669 0
DWIDTH 20 0
BBX 20 26 0 0
BITMAP
038000
03C000
01E000
007000
001000
000000
007000
00F000
00F000
00F800
01F800
01F800
013C00
033C00
033C00
021E00
061E00
061E00
07FF00
0FFF00
080F00
080780
180780
180780
7C0FE0
FE1FF0
ENDCHAR
STARTCHAR Aacute
ENCODING 193
SWIDTH 669 0
DWIDTH 20 0
BBX 20 26 0 0
BITMAP
001C00
003C00
007800
00E000
008000
000000
007000
00F000
00F000
00F800
01F800
01F800
013C00
033C00
033C00
021E00
061E00
061E00
07FF00
0FFF00
080F00
080780
180780
180780
7C0FE0
FE1FF0
ENDCHAR
STARTCHAR Acircumflex
ENCODING 194
SWIDTH 669 0
DWIDTH 20 0
BBX 20 26 0 0
BITMAP
006000
00F000
01F800
030C00
060200
000000
007000
00F000
00F000
00F800
01F800
01F800
013C00
033C00
033C00
021E00
061E00
061E00
07FF00
0FFF00
080F00
080780
180780
180780
7C0FE0
FE1FF0
ENDCHAR
STARTCHAR Atilde
ENCODING 195
SWIDTH 669 0
DWIDTH 20 0
BBX 20 26 0 0
BITMAP
018200
03E200
07FE00
043C00
040800
000000
007000
00F000
00F000
00F800
01F800
01F800
013C00
033C00
033C00
021E00
061E00
061E00
07FF00
0FFF00
080F00
080780
180780
180780
7C0FE0
FE1FF0
ENDCHAR
STARTCHAR Adieresis
ENCODING 196
SWIDTH 669 0
DWIDTH 20 0
BBX 20 26 0 0
BITMAP
020400
070E00
078F00
070E00
000000
000000
007000
00F000
00F000
00F800
01F800
01F800
013C00
033C00
033C00
021E00
061E00
061E00
07FF00
0FFF00
080F00
080780
180780
180780
7C0FE0
FE1FF0
ENDCHAR
STARTCHAR Aring
ENCODING 197
SWIDTH 669 0
DWIDTH 20 0
BBX 20 27 0 0
BITMAP
00F000
019800
018800
019800
00F800
006000
000000
007000
00F000
00F000
00F800
01F800
01F800
013C00
033C00
033C00
021E00
061E00
061E00
07FF00
0FFF00
080F00
080780
180780
180780
7C0FE0
FE1FF0
ENDCHAR
STARTCHAR AE
ENCODING 198
SWIDTH 907 0
DWIDTH 27 0
BBX 26 20 0 0
BITMAP
00FFFFC0
00FFFFC0
001781C0
003781C0
002781C0
00678000
00478600
00C78600
01878600
0187FE00
0307FE00
03FF8600
07FF8600
06078000
0C078000
0C0780C0
180780C0
180780C0
7C1FFFC0
FE1FFFC0
ENDCHAR
STARTCHAR Ccedilla
ENCODING 199
SWIDTH 627 0
DWIDTH 19 0
BBX 17 27 1 -7
BITMAP
03FE00
0F8700
1E0300
3C0380
3C0380
780380
780000
F80000
F80000
F00000
F00000
F80000
F80000
780000
780000
7C0180
3C0380
1E0380
0F8780
03FF00
006000
006000
007800
001800
001800
00F800
00E000
ENDCHAR
STARTCHAR Egrave
ENCODING 200
SWIDTH 599 0
DWIDTH 18 0
BBX 16 26 1 0
BITMAP
0E00
0F00
0780
01C0
0040
0000
FFFE
FFFE
1E06
1E06
1E06
1E01
1E10
1E10
1E10
1FF0
1FF0
1E10
1E10
1E00
1E00
1E03
1E03
1E03
7FFF
FFFF
ENDCHAR
STARTCHAR Eacute
ENCODING 201
SWIDTH 599 0
DWIDTH 18 0
BBX 16 26 1 0
BITMAP
0038
0078
00F0
01C0
0100
0000
FFFE
FFFE
1E06
1E06
1E06
1E01
1E10
1E10
1E10
1FF0
1FF0
1E10
1E10
1E00
1E00
1E03
1E03
1E03
7FFF
FFFF
ENDCHAR
STARTCHAR Ecircumflex
ENCODING 202
SWIDTH 599 0
DWIDTH 18 0
BBX 16 26 1 0
BITMAP
00C0
01E0
03F0
0618
0C0C
0000
FFFE
FFFE
1E06
1E06
1E06
1E01
1E10
1E10
1E10
1FF0
1FF0
1E10
1E10
1E00
1E00
1E03
1E03
1E03
7FFF
FFFF
ENDCHAR
STARTCHAR Edieresis
ENCODING 203
SWIDTH 599 0
DWIDTH 18 0
BBX 16 26 1 0
BITMAP
0C08
1E3C
1E3C
0C1C
0000
0000
FFFE
FFFE
1E06
1E06
1E06
1E01
1E10
1E10
1E10
1FF0
1FF0
1E10
1E10
1E00
1E00
1E03
1E03
1E03
7FFF
FFFF
ENDCHAR
STARTCHAR Igrave
ENCODING 204
SWIDTH 379 0
DWIDTH 11 0
BBX 9 26 1 0
BITMAP
E000
F000
3C00
1E00
0400
0000
FF80
FF80
1E00
1E00
1E00
1E00
1E00
1E00
1E00
1E00
1E00
1E00
1E00
1E00
1E00
1E00
1E00
1E00
7F00
FF80
ENDCHAR
STARTCHAR Iacute
ENCODING 205
SWIDTH 379 0
DWIDTH 11 0
BBX 9 26 1 0
BITMAP
0380
0780
0F00
1C00
1000
0000
FF80
FF80
1E00
1E00
1E00
1E00
1E00
1E00
1E00
1E00
1E00
1E00
1E00
1E00
1E00
1E00
1E00
1E00
7F00
FF80
ENDCHAR
STARTCHAR Icircumflex
ENCODING 206
SWIDTH 379 0
DWIDTH 11 0
BBX 10 26 1 0
BITMAP
1C00
3E00
7F00
E380
80C0
0000
FF80
FF80
1E00
1E00
1E00
1E00
1E00
1E00
1E00
1E00
1E00
1E00
1E00
1E00
1E00
1E00
1E00
1E00
7F00
FF80
ENDCHAR
STARTCHAR Idieresis
ENCODING 207
SWIDTH 379 0
DWIDTH 11 0
BBX 9 26 1 0
BITMAP
4100
F380
F380
E380
0000
0000
FF80
FF80
1E00
1E00
1E00
1E00
1E00
1E00
1E00
1E00
1E00
1E00
1E00
1E00
1E00
1E00
1E00
1E00
7F00
FF80
ENDCHAR
STARTCHAR Eth
ENCODING 208
SWIDTH 707 0
DWIDTH 21 0
BBX 19 20 1 0
BITMAP
FFF000
FFFE00
1E0F00
1E0780
1E03C0
1E03C0
1E03E0
1E01E0
1E01E0
FFE1E0
FFE1E0
1E01E0
1E01E0
1E03E0
1E03C0
1E03C0
1E0780
1E0F00
7FFE00
FFF000
ENDCHAR
STARTCHAR Ntilde
ENCODING 209
SWIDTH 731 0
DWIDTH 22 0
BBX 20 26 1 0
BITMAP
018300
03E200
07FE00
043C00
040800
000000
FC0FF0
FE0FF0
1F0080
1F0080
1F8080
17C080
13C080
13E080
11F080
10F880
107880
107C80
103E80
101F80
100F80
100F80
100780
100380
7E0380
FF0180
ENDCHAR
STARTCHAR Ograve
ENCODING 210
SWIDTH 704 0
DWIDTH 21 0
BBX 19 27 1 -1
BITMAP
070000
078000
03C000
00F000
002000
000000
03FC00
0F1E00
1E0700
3C0780
3803C0
7803C0
7803C0
F803E0
F801E0
F001E0
F001E0
F801E0
F803E0
7803C0
7803C0
7803C0
3C0780
1E0700
0F1E00
07FC00
004000
ENDCHAR
STARTCHAR Oacute
ENCODING 211
SWIDTH 704 0
DWIDTH 21 0
BBX 19 27 1 -1
BITMAP
001C00
003C00
007800
00E000
008000
000000
03FC00
0F1E00
1E0700
3C0780
3803C0
7803C0
7803C0
F803E0
F801E0
F001E0
F001E0
F801E0
F803E0
7803C0
7803C0
7803C0
3C0780
1E0700
0F1E00
07FC00
004000
ENDCHAR
STARTCHAR Ocircumflex
ENCODING 212
SWIDTH 704 0
DWIDTH 21 0
BBX 19 27 1 -1
BITMAP
00E000
01F000
03F800
071C00
040600
000000
03FC00
0F1E00
1E0700
3C0780
3803C0
7803C0
7803C0
F803E0
F801E0
F001E0
F001E0
F801E0
F803E0
7803C0
7803C0
7803C0
3C0780
1E0700
0F1E00
07FC00
004000
ENDCHAR
STARTCHAR Otilde
ENCODING 213
SWIDTH 704 0
DWIDTH 21 0
BBX 19 27 1 -1
BITMAP
038200
07C600
07FE00
0C7C00
041000
000000
03FC00
0F1E00
1E0700
3C0780
3803C0
7803C0
7803C0
F803E0
F801E0
F001E0
F001E0
F801E0
F803E0
7803C0
7803C0
7803C0
3C0780
1E0700
0F1E00
07FC00
004000
ENDCHAR
STARTCHAR Odieresis
ENCODING 214
SWIDTH 704 0
DWIDTH 21 0
BBX 19 27 1 -1
BITMAP
060400
0F1E00
0F1E00
070E00
000000
000000
03FC00
0F1E00
1E0700
3C0780
3803C0
7803C0
7803C0
F803E0
F801E0
F001E0
F001E0
F801E0
F803E0
7803C0
7803C0
7803C0
3C0780
1E0700
0F1E00
07FC00
004000
ENDCHAR
STARTCHAR multiply
ENCODING 215
SWIDTH 537 0
DWIDTH 16 0
BBX 14 14 1 3
BITMAP
4008
E01C
7038
3870
1CE0
0FC0
0780
0780
0FC0
1CE0
3870
7038
E01C
4008
ENDCHAR
STARTCHAR Oslash
ENCODING 216
SWIDTH 704 0
DWIDTH 21 0
BBX 19 22 1 -1
BITMAP
000040
03FCC0
0F1FC0
1C0780
3C0380
3807C0
780FC0
781DC0
F039E0
F071E0
F061E0
F0C1E0
F1C1E0
F381E0
7701C0
7E03C0
7C03C0
3C0380
3C0700
7F1E00
E7FC00
404000
ENDCHAR
STARTCHAR Ugrave
ENCODING 217
SWIDTH 729 0
DWIDTH 22 0
BBX 20 27 1 -1
BITMAP
038000
03C000
01E000
007000
001000
000000
FF87F0
FF87F0
3C0080
3C0080
3C0080
3C0080
3C0080
3C0080
3C0080
3C0080
3C0080
3C0080
3C0080
3C0080
1E0180
1E0180
1E0380
0F8700
0FFE00
03FC00
006000
ENDCHAR
STARTCHAR Uacute
ENCODING 218
SWIDTH 729 0
DWIDTH 22 0
BBX 20 27 1 -1
BITMAP
000E00
001E00
003C00
007000
004000
000000
FF87F0
FF87F0
3C0080
3C0080
3C0080
3C0080
3C0080
3C0080
3C0080
3C0080
3C0080
3C0080
3C0080
3C0080
1E0180
1E0180
1E0380
0F8700
0FFE00
03FC00
006000
ENDCHAR
STARTCHAR Ucircumflex
ENCODING 219
SWIDTH 729 0
DWIDTH 22 0
BBX 20 27 1 -1
BITMAP
003000
007800
01FC00
038E00
020300
000000
FF87F0
FF87F0
3C0080
3C0080
3C0080
3C0080
3C0080
3C0080
3C0080
3C0080
3C0080
3C0080
3C0080
3C0080
1E0180
1E0180
1E0380
0F8700
0FFE00
03FC00
006000
ENDCHAR
STARTCHAR Udieresis
ENCODING 220
SWIDTH 729 0
DWIDTH 22 0
BBX 20 27 1 -1
BITMAP
010200
038700
038780
038700
000000
000000
FF87F0
FF87F0
3C0080
3C0080
3C0080
3C0080
3C0080
3C0080
3C0080
3C0080
3C0080
3C0080
3C0080
3C0080
1E0180
1E0180
1E0380
0F8700
0FFE00
03FC00
006000
ENDCHAR
STARTCHAR Yacute
ENCODING 221
SWIDTH 629 0
DWIDTH 19 0
BBX 19 26 0 0
BITMAP
000F00
001E00
003C00
007000
004000
000000
FF8FE0
FF8FE0
1E0300
1F0200
0F0600
0F8600
078C00
078C00
03D800
03D800
01F000
01F000
00E000
00E000
00E000
00E000
00E000
01E000
03FC00
07FC00
ENDCHAR
STARTCHAR Thorn
ENCODING 222
SWIDTH 616 0
DWIDTH 18 0
BBX 17 20 1 0
BITMAP
FF8000
FF8000
1E0000
1E0000
1FF800
1FFE00
1E0F00
1E0700
1E0780
1E0780
1E0780
1E0780
1E0F00
1E1E00
1FFC00
1F8000
1E0000
1E0000
7F0000
FF8000
ENDCHAR
STARTCHAR germandbls
ENCODING 223
SWIDTH 624 0
DWIDTH 19 0
BBX 17 22 1 0
BITMAP
03F800
0F1E00
1C0E00
1C0F00
3C0E00
3C0E00
3C0E00
381800
383000
386000
38E000
38E000
38F800
38FE00
387F00
381F80
380780
380380
398380
3DC380
7DC700
FDFE00
ENDCHAR
STARTCHAR agrave
ENCODING 224
SWIDTH 520 0
DWIDTH 16 0
BBX 15 23 1 0
BITMAP
1800
1C00
1E00
0E00
0700
0180
0000
0000
0F80
3FE0
70E0
70F0
70F0
20F0
01F0
0FF0
38F0
70F0
F0F0
F0F0
F0F0
7F7E
7E7C
ENDCHAR
STARTCHAR aacute
ENCODING 225
SWIDTH 520 0
DWIDTH 16 0
BBX 15 23 1 0
BITMAP
0060
00E0
01E0
01C0
0380
0600
0000
0000
0F80
3FE0
70E0
70F0
70F0
20F0
01F0
0FF0
38F0
70F0
F0F0
F0F0
F0F0
7F7E
7E7C
ENDCHAR
STARTCHAR acircumflex
ENCODING 226
SWIDTH 520 0
DWIDTH 16 0
BBX 15 22 1 0
BITMAP
0700
0780
0FC0
1CE0
3070
2020
0000
0F80
3FE0
70E0
70F0
70F0
20F0
01F0
0FF0
38F0
70F0
F0F0
F0F0
F0F0
7F7E
7E7C
ENDCHAR
STARTCHAR atilde
ENCODING 227
SWIDTH 520 0
DWIDTH 16 0
BBX 15 22 1 0
BITMAP
0820
3E30
3FE0
23E0
61C0
0000
0000
0F80
3FE0
70E0
70F0
70F0
20F0
01F0
0FF0
38F0
70F0
F0F0
F0F0
F0F0
7F7E
7E7C
ENDCHAR
STARTCHAR adieresis
ENCODING 228
SWIDTH 520 0
DWIDTH 16 0
BBX 15 21 1 0
BITMAP
38F0
78F0
38F0
0000
0000
0000
0F80
3FE0
70E0
70F0
70F0
20F0
01F0
0FF0
38F0
70F0
F0F0
F0F0
F0F0
7F7E
7E7C
ENDCHAR
STARTCHAR aring
ENCODING 229
SWIDTH 520 0
DWIDTH 16 0
BBX 15 23 1 0
BITMAP
0780
0CC0
08C0
1840
0CC0
0F80
0000
0000
0F80
3FE0
70E0
70F0
70F0
20F0
01F0
0FF0
38F0
70F0
F0F0
F0F0
F0F0
7F7E
7E7C
ENDCHAR
STARTCHAR ae
ENCODING 230
SWIDTH 786 0
DWIDTH 24 0
BBX 21 15 1 0
BITMAP
0F0380
3FEFE0
70F870
70F838
70F038
20F038
01FFF8
0FFFF8
38F000
70F000
F07800
F07808
F0FC18
7FBFF0
7E0FE0
ENDCHAR
STARTCHAR ccedilla
ENCODING 231
SWIDTH 500 0
DWIDTH 15 0
BBX 13 22 1 -7
BITMAP
07C0
1FE0
3C70
7878
7038
F030
F000
F000
F000
F000
F000
7808
7C38
3FF0
1FE0
0300
0300
03C0
00C0
00C0
07C0
0700
ENDCHAR
STARTCHAR egrave
ENCODING 232
SWIDTH 515 0
DWIDTH 15 0
BBX 13 23 1 0
BITMAP
1800
1C00
1E00
0E00
0300
0180
0000
0000
0780
1FE0
3870
7838
7038
F038
FFF8
FFF8
F000
F000
F000
7808
7C18
3FF0
1FE0
ENDCHAR
STARTCHAR eacute
ENCODING 233
SWIDTH 515 0
DWIDTH 15 0
BBX 13 23 1 0
BITMAP
0060
00F0
00E0
01C0
0380
0300
0000
0000
0780
1FE0
3870
7838
7038
F038
FFF8
FFF8
F000
F000
F000
7808
7C18
3FF0
1FE0
ENDCHAR
STARTCHAR ecircumflex
ENCODING 234
SWIDTH 515 0
DWIDTH 15 0
BBX 13 22 1 0
BITMAP
0380
0780
0FC0
1C60
3830
1010
0000
0780
1FE0
3870
7838
7038
F038
FFF8
FFF8
F000
F000
F000
7808
7C18
3FF0
1FE0
ENDCHAR
STARTCHAR edieresis
ENCODING 235
SWIDTH 515 0
DWIDTH 15 0
BBX 13 21 1 0
BITMAP
3C70
3C78
3C70
0000
0000
0000
0780
1FE0
3870
7838
7038
F038
FFF8
FFF8
F000
F000
F000
7808
7C18
3FF0
1FE0
ENDCHAR
STARTCHAR igrave
ENCODING 236
SWIDTH 307 0
DWIDTH 9 0
BBX 8 23 0 0
BITMAP
60
F0
70
38
1C
0C
00
00
06
3E
7E
1E
1E
1E
1E
1E
1E
1E
1E
1E
1E
3E
7F
ENDCHAR
STARTCHAR iacute
ENCODING 237
SWIDTH 307 0
DWIDTH 9 0
BBX 8 23 1 0
BITMAP
03
07
0F
0E
18
30
00
00
0C
7C
FC
3C
3C
3C
3C
3C
3C
3C
3C
3C
3C
7C
FE
ENDCHAR
STARTCHAR icircumflex
ENCODING 238
SWIDTH 307 0
DWIDTH 9 0
BBX 10 22 0 0
BITMAP
1C00
1E00
3F00
6380
C1C0
8080
0000
0600
3E00
7E00
1E00
1E00
1E00
1E00
1E00
1E00
1E00
1E00
1E00
1E00
3E00
7F00
ENDCHAR
STARTCHAR idieresis
ENCODING 239
SWIDTH 307 0
DWIDTH 9 0
BBX 10 21 0 0
BITMAP
F380
F7C0
F380
0000
0000
0000
0600
3E00
7E00
1E00
1E00
1E00
1E00
1E00
1E00
1E00
1E00
1E00
1E00
3E00
7F00
ENDCHAR
STARTCHAR eth
ENCODING 240
SWIDTH 550 0
DWIDTH 17 0
BBX 14 22 1 0
BITMAP
1C08
0E3C
07F0
03C0
0FE0
18F0
1070
0078
0FF8
3C7C
783C
703C
F03C
F01C
F01C
F01C
F03C
F03C
7038
7838
3C70
0FE0
ENDCHAR
STARTCHAR ntilde
ENCODING 241
SWIDTH 611 0
DWIDTH 18 0
BBX 17 22 1 0
BITMAP
020800
0F8800
0FF800
19F000
106000
000000
000000
087000
79FC00
FBFC00
3E1C00
3C1E00
3C1E00
3C1E00
3C1E00
3C1E00
3C1E00
3C1E00
3C1E00
3C1E00
7C3E00
FE7F80
ENDCHAR
STARTCHAR ograve
ENCODING 242
SWIDTH 557 0
DWIDTH 17 0
BBX 15 23 1 0
BITMAP
1C00
1C00
1E00
0F00
0300
0180
0000
0000
0780
1FF0
3878
7838
703C
F01C
F01C
F01E
F01E
F01C
F03C
703C
7838
3C70
0FE0
ENDCHAR
STARTCHAR oacute
ENCODING 243
SWIDTH 557 0
DWIDTH 17 0
BBX 15 23 1 0
BITMAP
0070
0070
00E0
01C0
0180
0300
0000
0000
0780
1FF0
3878
7838
703C
F01C
F01C
F01E
F01E
F01C
F03C
703C
7838
3C70
0FE0
ENDCHAR
STARTCHAR ocircumflex
ENCODING 244
SWIDTH 557 0
DWIDTH 17 0
BBX 15 22 1 0
BITMAP
0380
07C0
0FC0
0C60
1830
1010
0000
0780
1FF0
3878
7838
703C
F01C
F01C
F01E
F01E
F01C
F03C
703C
7838
3C70
0FE0
ENDCHAR
STARTCHAR otilde
ENCODING 245
SWIDTH 557 0
DWIDTH 17 0
BBX 15 22 1 0
BITMAP
0410
1F10
1FF0
31F0
20E0
0000
0000
0780
1FF0
3878
7838
703C
F01C
F01C
F01E
F01E
F01C
F03C
703C
7838
3C70
0FE0
ENDCHAR
STARTCHAR odieresis
ENCODING 246
SWIDTH 557 0
DWIDTH 17 0
BBX 15 21 1 0
BITMAP
3C70
3C78
3C70
0000
0000
0000
0780
1FF0
3878
7838
703C
F01C
F01C
F01E
F01E
F01C
F03C
703C
7838
3C70
0FE0
ENDCHAR
STARTCHAR divide
ENCODING 247
SWIDTH 537 0
DWIDTH 16 0
BBX 14 16 1 2
BITMAP
0100
0780
0780
0780
0100
0000
0000
FFFC
FFFC
0000
0000
0000
0380
0780
0780
0300
ENDCHAR
STARTCHAR oslash
ENCODING 248
SWIDTH 557 0
DWIDTH 17 0
BBX 15 16 1 -1
BITMAP
07CC
1FF8
3878
7838
707C
F0DC
F19C
F11E
F31E
F61C
FC1C
783C
7838
3C70
6FE0
4000
ENDCHAR
STARTCHAR ugrave
ENCODING 249
SWIDTH 595 0
DWIDTH 18 0
BBX 16 23 1 0
BITMAP
0C00
1E00
0E00
0700
0380
0180
0000
0000
0804
F87C
783C
381C
381C
381C
381C
381C
381C
781C
781C
383C
3C7C
3FDE
1F9F
ENDCHAR
STARTCHAR uacute
ENCODING 250
SWIDTH 595 0
DWIDTH 18 0
BBX 16 23 1 0
BITMAP
0070
0070
00E0
01C0
0180
0300
0000
0000
0804
F87C
783C
381C
381C
381C
381C
381C
381C
781C
781C
383C
3C7C
3FDE
1F9F
ENDCHAR
STARTCHAR ucircumflex
ENCODING 251
SWIDTH 595 0
DWIDTH 18 0
BBX 16 22 1 0
BITMAP
0380
03C0
07E0
0E70
1838
1010
0000
0804
F87C
783C
381C
381C
381C
381C
381C
381C
781C
781C
383C
3C7C
3FDE
1F9F
ENDCHAR
STARTCHAR udieresis
ENCODING 252
SWIDTH 595 0
DWIDTH 18 0
BBX 16 21 1 0
BITMAP
1C38
1E78
1C38
0000
0000
0000
0804
F87C
783C
381C
381C
381C
381C
381C
381C
781C
781C
383C
3C7C
3FDE
1F9F
ENDCHAR
STARTCHAR yacute
ENCODING 253
SWIDTH 523 0
DWIDTH 16 0
BBX 16 30 0 -7
BITMAP
0018
003C
0038
0070
00E0
00C0
0000
0000
0000
FF3F
3C0C
3C08
1C18
1E18
1E10
0E30
0F30
0720
07E0
07C0
03C0
03C0
0180
0180
0100
0100
0300
F600
FC00
7800
ENDCHAR
STARTCHAR thorn
ENCODING 254
SWIDTH 577 0
DWIDTH 17 0
BBX 16 29 0 -7
BITMAP
0C00
FC00
FC00
3C00
3C00
3C00
3C00
3C70
3DFC
3F3E
3C1E
3C0F
3C0F
3C0F
3C0F
3C0F
3C0F
3C0F
3C0E
3E1E
3FFC
3DF8
3C00
3C00
3C00
3C00
3C00
3E00
FF00
ENDCHAR
STARTCHAR ydieresis
ENCODING 255
SWIDTH 523 0
DWIDTH 16 0
BBX 16 28 0 -7
BITMAP
0E1C
0F3C
0E1C
0000
0000
0000
0000
FF3F
3C0C
3C08
1C18
1E18
1E10
0E30
0F30
0720
07E0
07C0
03C0
03C0
0180
0180
0100
0100
0300
F600
FC00
7800
ENDCHAR
STARTCHAR Amacron
ENCODING 256
SWIDTH 669 0
DWIDTH 20 0
BBX 20 25 0 0
BITMAP
07FE00
07FE00
07FE00
000000
000000
007000
00F000
00F000
00F800
01F800
01F800
013C00
033C00
033C00
021E00
061E00
061E00
07FF00
0FFF00
080F00
080780
180780
180780
7C0FE0
FE1FF0
ENDCHAR
STARTCHAR amacron
ENCODING 257
SWIDTH 520 0
DWIDTH 16 0
BBX 15 20 1 0
BITMAP
1FE0
1FE0
0000
0000
0000
0F80
3FE0
70E0
70F0
70F0
20F0
01F0
0FF0
38F0
70F0
F0F0
F0F0
F0F0
7F7E
7E7C
ENDCHAR
STARTCHAR Abreve
ENCODING 258
SWIDTH 669 0
DWIDTH 20 0
BBX 20 26 0 0
BITMAP
020600
030600
03FC00
01F800
000000
000000
007000
00F000
00F000
00F800
01F800
01F800
013C00
033C00
033C00
021E00
061E00
061E00
07FF00
0FFF00
080F00
080780
180780
180780
7C0FE0
FE1FF0
ENDCHAR
STARTCHAR abreve
ENCODING 259
SWIDTH 520 0
DWIDTH 16 0
BBX 15 22 1 0
BITMAP
3030
3060
1CE0
1FC0
0780
0000
0000
0F80
3FE0
70E0
70F0
70F0
20F0
01F0
0FF0
38F0
70F0
F0F0
F0F0
F0F0
7F7E
7E7C
ENDCHAR
STARTCHAR Aogonek
ENCODING 260
SWIDTH 669 0
DWIDTH 20 0
BBX 20 27 0 -7
BITMAP
007000
00F000
00F000
00F800
01F800
01F800
013C00
033C00
033C00
021E00
061E00
061E00
07FF00
0FFF00
080F00
080780
180780
180780
7C0FE0
FE1FF0
000100
000300
000700
000700
0007A0
0003F0
000180
ENDCHAR
STARTCHAR aogonek
ENCODING 261
SWIDTH 520 0
DWIDTH 16 0
BBX 15 22 1 -7
BITMAP
0F80
3FE0
70E0
70F0
70F0
20F0
01F0
0FF0
38F0
70F0
F0F0
F0F0
F0F0
7F7E
7E7C
0018
0030
0060
0060
007A
007E
0038
ENDCHAR
STARTCHAR Cacute
ENCODING 262
SWIDTH 627 0
DWIDTH 19 0
BBX 17 27 1 -1
BITMAP
000E00
001E00
003C00
00F000
004000
000000
03FE00
0F8700
1E0300
3C0380
3C0380
780380
780000
F80000
F80000
F00000
F00000
F80000
F80000
780000
780000
7C0180
3C0380
1E0380
0F8780
03FF00
006000
ENDCHAR
STARTCHAR cacute
ENCODING 263
SWIDTH 500 0
DWIDTH 15 0
BBX 13 23 1 0
BITMAP
0060
00F0
00E0
01C0
0380
0300
0000
0000
07C0
1FE0
3C70
7878
7038
F030
F000
F000
F000
F000
F000
7808
7C38
3FF0
1FE0
ENDCHAR
STARTCHAR Ccircumflex
ENCODING 264
SWIDTH 627 0
DWIDTH 19 0
BBX 17 27 1 -1
BITMAP
006000
00F000
01FC00
038E00
060200
000000
03FE00
0F8700
1E0300
3C0380
3C0380
780380
780000
F80000
F80000
F00000
F00000
F80000
F80000
780000
780000
7C0180
3C0380
1E0380
0F8780
03FF00
006000
ENDCHAR
STARTCHAR ccircumflex
ENCODING 265
SWIDTH 500 0
DWIDTH 15 0
BBX 13 22 1 0
BITMAP
0380
07C0
0FC0
0C60
1830
1010
0000
07C0
1FE0
3C70
7878
7038
F030
F000
F000
F000
F000
F000
7808
7C38
3FF0
1FE0
ENDCHAR
STARTCHAR Cdotaccent
ENCODING 266
SWIDTH 627 0
DWIDTH 19 0
BBX 17 27 1 -1
BITMAP
007000
00F000
00F000
00F000
000000
000000
03FE00
0F8700
1E0300
3C0380
3C0380
780380
780000
F80000
F80000
F00000
F00000
F80000
F80000
780000
780000
7C0180
3C0380
1E0380
0F8780
03FF00
006000
ENDCHAR
STARTCHAR cdotaccent
ENCODING 267
SWIDTH 500 0
DWIDTH 15 0
BBX 13 22 1 0
BITMAP
0180
03C0
07C0
03C0
0100
0000
0000
07C0
1FE0
3C70
7878
7038
F030
F000
F000
F000
F000
F000
7808
7C38
3FF0
1FE0
ENDCHAR
STARTCHAR Ccaron
ENCODING 268
SWIDTH 627 0
DWIDTH 19 0
BBX 17 27 1 -1
BITMAP
030600
018C00
00F800
00F800
000000
000000
03FE00
0F8700
1E0300
3C0380
3C0380
780380
780000
F80000
F80000
F00000
F00000
F80000
F80000
780000
780000
7C0180
3C0380
1E0380
0F8780
03FF00
006000
ENDCHAR
STARTCHAR ccaron
ENCODING 269
SWIDTH 500 0
DWIDTH 15 0
BBX 13 23 1 0
BITMAP
1010
1830
0C60
06C0
07C0
0380
0000
0000
07C0
1FE0
3C70
7878
7038
F030
F000
F000
F000
F000
F000
7808
7C38
3FF0
1FE0
ENDCHAR
STARTCHAR Dcaron
ENCODING 270
SWIDTH 707 0
DWIDTH 21 0
BBX 19 26 1 0
BITMAP
060C00
073800
03F000
01E000
000000
000000
FFF000
FFFE00
1E0F00
1E0780
1E03C0
1E03C0
1E03E0
1E01E0
1E01E0
1E01E0
1E01E0
1E01E0
1E01E0
1E03E0
1E03C0
1E03C0
1E0780
1E0F00
7FFE00
FFF000
ENDCHAR
STARTCHAR dcaron
ENCODING 271
SWIDTH 606 0
DWIDTH 18 0
BBX 19 22 1 0
BITMAP
000CE0
00FCE0
00FCE0
003CC0
003CC0
003CC0
003C00
073C00
1FFC00
3EFC00
783C00
783C00
F03C00
F03C00
F03C00
F03C00
F03C00
F03C00
783C00
783C00
3FFC00
1FBF00
ENDCHAR
STARTCHAR Dcroat
ENCODING 272
SWIDTH 707 0
DWIDTH 21 0
BBX 19 20 1 0
BITMAP
FFF000
FFFE00
1E0F00
1E0780
1E03C0
1E03C0
1E03E0
1E01E0
1E01E0
FFE1E0
FFE1E0
1E01E0
1E01E0
1E03E0
1E03C0
1E03C0
1E0780
1E0F00
7FFE00
FFF000
ENDCHAR
STARTCHAR dcroat
ENCODING 273
SWIDTH 580 0
DWIDTH 17 0
BBX 16 22 1 0
BITMAP
000C
00FC
00FC
003C
07FF
07FF
003C
003C
1FBC
3FFC
7C3C
783C
F03C
F03C
F03C
F03C
F03C
F03C
783C
783C
3FFE
1F9F
ENDCHAR
STARTCHAR Emacron
ENCODING 274
SWIDTH 599 0
DWIDTH 18 0
BBX 16 25 1 0
BITMAP
0FFC
0FFC
0FFC
0000
0000
FFFE
FFFE
1E06
1E06
1E06
1E01
1E10
1E10
1E10
1FF0
1FF0
1E10
1E10
1E00
1E00
1E03
1E03
1E03
7FFF
FFFF
ENDCHAR
STARTCHAR emacron
ENCODING 275
SWIDTH 515 0
DWIDTH 15 0
BBX 13 20 1 0
BITMAP
1FE0
1FE0
0000
0000
0000
0780
1FE0
3870
7838
7038
F038
FFF8
FFF8
F000
F000
F000
7808
7C18
3FF0
1FE0
ENDCHAR
STARTCHAR Ebreve
ENCODING 276
SWIDTH 599 0
DWIDTH 18 0
BBX 16 26 1 0
BITMAP
0808
0C18
07F0
03E0
0000
0000
FFFE
FFFE
1E06
1E06
1E06
1E01
1E10
1E10
1E10
1FF0
1FF0
1E10
1E10
1E00
1E00
1E03
1E03
1E03
7FFF
FFFF
ENDCHAR
STARTCHAR ebreve
ENCODING 277
SWIDTH 515 0
DWIDTH 15 0
BBX 13 22 1 0
BITMAP
3030
1030
1CE0
0FC0
0780
0000
0000
0780
1FE0
3870
7838
7038
F038
FFF8
FFF8
F000
F000
F000
7808
7C18
3FF0
1FE0
ENDCHAR
STARTCHAR Edotaccent
ENCODING 278
SWIDTH 599 0
DWIDTH 18 0
BBX 16 26 1 0
BITMAP
01C0
01E0
03E0
01E0
0000
0000
FFFE
FFFE
1E06
1E06
1E06
1E01
1E10
1E10
1E10
1FF0
1FF0
1E10
1E10
1E00
1E00
1E03
1E03
1E03
7FFF
FFFF
ENDCHAR
STARTCHAR edotaccent
ENCODING 279
SWIDTH 515 0
DWIDTH 15 0
BBX 13 22 1 0
BITMAP
0300
0780
07C0
0780
0100
0000
0000
0780
1FE0
3870
7838
7038
F038
FFF8
FFF8
F000
F000
F000
7808
7C18
3FF0
1FE0
ENDCHAR
STARTCHAR Eogonek
ENCODING 280
SWIDTH 599 0
DWIDTH 18 0
BBX 16 27 1 -7
BITMAP
FFFE
FFFE
1E06
1E06
1E06
1E01
1E10
1E10
1E10
1FF0
1FF0
1E10
1E10
1E00
1E00
1E03
1E03
1E03
7FFF
FFFF
0008
0018
0030
0030
003D
003F
000C
ENDCHAR
STARTCHAR eogonek
ENCODING 281
SWIDTH 515 0
DWIDTH 15 0
BBX 13 22 1 -7
BITMAP
0780
1FE0
3870
7838
7038
F038
FFF8
FFF8
F000
F000
F000
7808
7C18
3FF0
1FE0
00C0
0180
0180
0380
03D8
01F8
00C0
ENDCHAR
STARTCHAR Ecaron
ENCODING 282
SWIDTH 599 0
DWIDTH 18 0
BBX 16 26 1 0
BITMAP
0C1C
0738
03F0
01E0
0000
0000
FFFE
FFFE
1E06
1E06
1E06
1E01
1E10
1E10
1E10
1FF0
1FF0
1E10
1E10
1E00
1E00
1E03
1E03
1E03
7FFF
FFFF
ENDCHAR
STARTCHAR ecaron
ENCODING 283
SWIDTH 515 0
DWIDTH 15 0
BBX 13 23 1 0
BITMAP
1020
1830
0C60
0FC0
07C0
0380
0000
0000
0780
1FE0
3870
7838
7038
F038
FFF8
FFF8
F000
F000
F000
7808
7C18
3FF0
1FE0
ENDCHAR
STARTCHAR Gcircumflex
ENCODING 284
SWIDTH 678 0
DWIDTH 20 0
BBX 19 27 1 -1
BITMAP
007000
00F800
01FC00
038E00
060200
000000
03FF00
0F8780
1E0380
3C0380
3C0380
780180
780000
F80000
F80000
F80000
F03FE0
F03FE0
F80780
780780
780780
7C0780
3C0780
1E0780
0F8780
03FF00
006000
ENDCHAR
STARTCHAR gcircumflex
ENCODING 285
SWIDTH 530 0
DWIDTH 16 0
BBX 14 29 1 -7
BITMAP
0700
0F80
1F80
18C0
3060
2020
0000
0F84
3FFC
70FC
7070
F070
F070
7070
70F0
3DE0
3F80
2000
6000
7800
7FF8
7FFC
3FFC
601C
C01C
E01C
E038
7FF0
3FC0
ENDCHAR
STARTCHAR Gbreve
ENCODING 286
SWIDTH 678 0
DWIDTH 20 0
BBX 19 27 1 -1
BITMAP
020200
030600
01FC00
01F800
000000
000000
03FF00
0F8780
1E0380
3C0380
3C0380
780180
780000
F80000
F80000
F80000
F03FE0
F03FE0
F80780
780780
780780
7C0780
3C0780
1E0780
0F8780
03FF00
006000
ENDCHAR
STARTCHAR gbreve
ENCODING 287
SWIDTH 530 0
DWIDTH 16 0
BBX 14 29 1 -7
BITMAP
2020
3060
1CE0
1FC0
0780
0000
0000
0F84
3FFC
70FC
7070
F070
F070
7070
70F0
3DE0
3F80
2000
6000
7800
7FF8
7FFC
3FFC
601C
C01C
E01C
E038
7FF0
3FC0
ENDCHAR
STARTCHAR Gdotaccent
ENCODING 288
SWIDTH 678 0
DWIDTH 20 0
BBX 19 27 1 -1
BITMAP
007000
00F800
00F800
007000
000000
000000
03FF00
0F8780
1E0380
3C0380
3C0380
780180
780000
F80000
F80000
F80000
F03FE0
F03FE0
F80780
780780
780780
7C0780
3C0780
1E0780
0F8780
03FF00
006000
ENDCHAR
STARTCHAR gdotaccent
ENCODING 289
SWIDTH 530 0
DWIDTH 16 0
BBX 14 29 1 -7
BITMAP
0200
0F80
0F80
0F00
0200
0000
0000
0F84
3FFC
70FC
7070
F070
F070
7070
70F0
3DE0
3F80
2000
6000
7800
7FF8
7FFC
3FFC
601C
C01C
E01C
E038
7FF0
3FC0
ENDCHAR
STARTCHAR uni0122
ENCODING 290
SWIDTH 678 0
DWIDTH 20 0
BBX 19 28 1 -8
BITMAP
03FF00
0F8780
1E0380
3C0380
3C0380
780180
780000
F80000
F80000
F80000
F03FE0
F03FE0
F80780
780780
780780
7C0780
3C0780
1E0780
0F8780
03FF00
006000
000000
007800
007800
007800
003000
006000
008000
ENDCHAR
STARTCHAR uni0123
ENCODING 291
SWIDTH 530 0
DWIDTH 16 0
BBX 14 30 1 -7
BITMAP
0180
0300
0600
0700
0700
0700
0000
0000
0F84
3FFC
70FC
7070
F070
F070
7070
70F0
3DE0
3F80
2000
6000
7800
7FF8
7FFC
3FFC
601C
C01C
E01C
E038
7FF0
3FC0
ENDCHAR
STARTCHAR Hcircumflex
ENCODING 292
SWIDTH 778 0
DWIDTH 23 0
BBX 21 26 1 0
BITMAP
007000
00F800
01FC00
038E00
020300
000000
FF8FF8
FF8FF8
1E01E0
1E01E0
1E01E0
1E01E0
1E01E0
1E01E0
1E01E0
1FFFE0
1FFFE0
1E01E0
1E01E0
1E01E0
1E01E0
1E01E0
1E01E0
1E01E0
7F07F0
FF8FF8
ENDCHAR
STARTCHAR hcircumflex
ENCODING 293
SWIDTH 609 0
DWIDTH 18 0
BBX 16 27 1 0
BITMAP
0180
03C0
0FE0
1C70
1018
1C00
FC00
F800
3800
3800
3800
3800
3870
39FC
3BFC
3E1C
381E
381E
381E
381E
381E
381E
381E
381E
381E
7C3E
FE7F
ENDCHAR
STARTCHAR Hbar
ENCODING 294
SWIDTH 778 0
DWIDTH 23 0
BBX 22 20 1 0
BITMAP
FF8FF8
FF8FF8
1E01E0
1E01E0
1E01E0
FFFFFC
1E01E0
1E01E0
1E01E0
1E01E0
1FFFE0
1E01E0
1E01E0
1E01E0
1E01E0
1E01E0
1E01E0
1E01E0
7F07F0
FF8FF8
ENDCHAR
STARTCHAR hbar
ENCODING 295
SWIDTH 609 0
DWIDTH 18 0
BBX 16 22 1 0
BITMAP
1C00
FC00
F800
3800
3800
FFC0
3800
3800
38F8
3BFC
3FFC
3C1C
381E
381E
381E
381E
381E
381E
381E
381E
7C3E
FE7F
ENDCHAR
STARTCHAR Itilde
ENCODING 296
SWIDTH 379 0
DWIDTH 11 0
BBX 11 26 0 0
BITMAP
3820
7C60
7FE0
C7C0
4100
0000
7FC0
7FC0
0F00
0F00
0F00
0F00
0F00
0F00
0F00
0F00
0F00
0F00
0F00
0F00
0F00
0F00
0F00
0F00
3F80
7FC0
ENDCHAR
STARTCHAR itilde
ENCODING 297
SWIDTH 307 0
DWIDTH 9 0
BBX 11 22 -1 0
BITMAP
1040
7C60
7FC0
47C0
C380
0000
0000
0300
1F00
3F00
0F00
0F00
0F00
0F00
0F00
0F00
0F00
0F00
0F00
0F00
1F00
3F80
ENDCHAR
STARTCHAR Imacron
ENCODING 298
SWIDTH 379 0
DWIDTH 11 0
BBX 9 25 1 0
BITMAP
FF80
FF80
FF80
0000
0000
FF80
FF80
1E00
1E00
1E00
1E00
1E00
1E00
1E00
1E00
1E00
1E00
1E00
1E00
1E00
1E00
1E00
1E00
7F00
FF80
ENDCHAR
STARTCHAR imacron
ENCODING 299
SWIDTH 307 0
DWIDTH 9 0
BBX 9 20 0 0
BITMAP
FF80
FF80
0000
0000
0000
0600
3E00
7E00
1E00
1E00
1E00
1E00
1E00
1E00
1E00
1E00
1E00
1E00
3E00
7F00
ENDCHAR
STARTCHAR Iogonek
ENCODING 302
SWIDTH 379 0
DWIDTH 11 0
BBX 9 27 1 -7
BITMAP
FF80
FF80
1E00
1E00
1E00
1E00
1E00
1E00
1E00
1E00
1E00
1E00
1E00
1E00
1E00
1E00
1E00
1E00
7F00
FF80
0C00
1800
1800
1800
1C80
1F80
0E00
ENDCHAR
STARTCHAR iogonek
ENCODING 303
SWIDTH 307 0
DWIDTH 9 0
BBX 8 29 1 -7
BITMAP
38
3C
7C
3C
00
00
00
0C
7C
FC
3C
3C
3C
3C
3C
3C
3C
3C
3C
3C
7C
FE
18
30
70
70
7A
3F
18
ENDCHAR
STARTCHAR Idotaccent
ENCODING 304
SWIDTH 379 0
DWIDTH 11 0
BBX 9 26 1 0
BITMAP
1C00
1E00
3E00
1E00
0000
0000
FF80
FF80
1E00
1E00
1E00
1E00
1E00
1E00
1E00
1E00
1E00
1E00
1E00
1E00
1E00
1E00
1E00
1E00
7F00
FF80
ENDCHAR
STARTCHAR dotlessi
ENCODING 305
SWIDTH 307 0
DWIDTH 9 0
BBX 7 15 1 0
BITMAP
0C
7C
FC
3C
3C
3C
3C
3C
3C
3C
3C
3C
3C
7C
FE
ENDCHAR
STARTCHAR Jcircumflex
ENCODING 308
SWIDTH 384 0
DWIDTH 12 0
BBX 13 31 -2 -5
BITMAP
0180
03C0
07E0
0C30
1818
0000
1FF8
1FF8
03C0
03C0
03C0
03C0
03C0
03C0
03C0
03C0
03C0
03C0
03C0
03C0
03C0
03C0
03C0
03C0
03C0
03C0
0380
0380
F300
FE00
7C00
ENDCHAR
STARTCHAR jcircumflex
ENCODING 309
SWIDTH 292 0
DWIDTH 9 0
BBX 12 29 -3 -7
BITMAP
0380
07C0
0EC0
0C60
1830
1010
0000
00C0
07C0
0FC0
03C0
0380
0380
0380
0380
0380
0380
0380
0380
0380
0380
0380
0380
0380
0380
0380
F300
FF00
7C00
ENDCHAR
STARTCHAR uni0136
ENCODING 310
SWIDTH 681 0
DWIDTH 20 0
BBX 19 28 1 -8
BITMAP
FF8FE0
FF8FE0
1E0600
1E0C00
1C0C00
1C1800
1C3000
1C6000
1CF000
1CF000
1DF800
1F7800
1E3C00
1C1E00
1C1E00
1C0F00
1C0F00
1E0780
7F0FE0
FF9FE0
000000
000000
00F000
00F000
00F000
006000
00C000
010000
ENDCHAR
STARTCHAR uni0137
ENCODING 311
SWIDTH 572 0
DWIDTH 17 0
BBX 16 30 1 -8
BITMAP
1C00
FC00
FC00
3C00
3C00
3800
3800
3800
38FE
3830
3860
38C0
39C0
3BC0
3FE0
3DE0
38F0
3878
3C78
3C3C
7C3E
FF1F
0000
0000
03C0
03C0
01C0
0080
0700
0200
ENDCHAR
STARTCHAR kgreenlandic
ENCODING 312
SWIDTH 576 0
DWIDTH 17 0
BBX 16 15 1 0
BITMAP
0C00
3C7F
FC30
3C60
3CC0
3DC0
3FC0
3FE0
3CF0
3CF0
3C78
3C78
3C3C
7C3E
FE1F
ENDCHAR
STARTCHAR Lacute
ENCODING 313
SWIDTH 589 0
DWIDTH 18 0
BBX 16 26 1 0
BITMAP
00E0
01E0
03C0
0700
0400
0000
FF80
FF80
1E00
1E00
1E00
1E00
1E00
1E00
1E00
1E00
1E00
1E00
1E00
1E00
1E03
1E07
1E07
1E07
7FFE
FFFE
ENDCHAR
STARTCHAR lacute
ENCODING 314
SWIDTH 310 0
DWIDTH 9 0
BBX 8 27 1 0
BITMAP
07
0F
1E
38
20
1C
FC
FC
3C
3C
38
38
38
38
38
38
38
38
38
38
38
38
38
3C
3C
7C
FF
ENDCHAR
STARTCHAR uni013B
ENCODING 315
SWIDTH 589 0
DWIDTH 18 0
BBX 16 28 1 -8
BITMAP
FF80
FF80
1E00
1E00
1E00
1E00
1E00
1E00
1E00
1E00
1E00
1E00
1E00
1E00
1E03
1E07
1E07
1E07
7FFE
FFFE
0000
0000
01C0
03C0
01C0
00C0
0380
0200
ENDCHAR
STARTCHAR uni013C
ENCODING 316
SWIDTH 310 0
DWIDTH 9 0
BBX 8 30 1 -8
BITMAP
1C
FC
FC
3C
3C
38
38
38
38
38
38
38
38
38
38
38
38
38
3C
3C
7C
FF
00
00
38
3C
38
18
30
40
ENDCHAR
STARTCHAR Lcaron
ENCODING 317
SWIDTH 589 0
DWIDTH 18 0
BBX 16 22 1 0
BITMAP
000E
000E
FF8E
FF8E
1E0C
1E0C
1E08
1E00
1E00
1E00
1E00
1E00
1E00
1E00
1E00
1E00
1E03
1E07
1E07
1E07
7FFE
FFFE
ENDCHAR
STARTCHAR lcaron
ENCODING 318
SWIDTH 326 0
DWIDTH 10 0
BBX 11 22 1 0
BITMAP
1CE0
FCE0
FCC0
3CC0
3CC0
3880
3800
3800
3800
3800
3800
3800
3800
3800
3800
3800
3800
3800
3C00
3C00
7C00
FF00
ENDCHAR
STARTCHAR Ldot
ENCODING 319
SWIDTH 589 0
DWIDTH 18 0
BBX 16 20 1 0
BITMAP
FF80
FF80
1E00
1E00
1E00
1E00
1E1E
1E1F
1E1F
1E1E
1E00
1E00
1E00
1E00
1E03
1E07
1E07
1E07
7FFE
FFFE
ENDCHAR
STARTCHAR ldot
ENCODING 320
SWIDTH 354 0
DWIDTH 11 0
BBX 11 22 1 0
BITMAP
1C00
FC00
FC00
3C00
3C00
3800
3800
3800
3800
39E0
39E0
39E0
39E0
3800
3800
3800
3800
3800
3C00
3C00
7C00
FF00
ENDCHAR
STARTCHAR Lslash
ENCODING 321
SWIDTH 589 0
DWIDTH 18 0
BBX 16 20 1 0
BITMAP
FF80
FF80
1E00
1E00
1E00
1E00
1E20
1EE0
1FC0
1F00
1E00
7E00
DE00
9E00
1E03
1E07
1E07
1E07
7FFE
FFFE
ENDCHAR
STARTCHAR lslash
ENCODING 322
SWIDTH 310 0
DWIDTH 9 0
BBX 8 22 1 0
BITMAP
1C
FC
FC
3C
3C
38
38
38
3B
3F
3C
F8
F8
B8
38
38
38
38
3C
3C
7C
FF
ENDCHAR
STARTCHAR Nacute
ENCODING 323
SWIDTH 731 0
DWIDTH 22 0
BBX 20 26 1 0
BITMAP
001E00
003C00
007800
00E000
008000
000000
FC0FF0
FE0FF0
1F0080
1F0080
1F8080
17C080
13C080
13E080
11F080
10F880
107880
107C80
103E80
101F80
100F80
100F80
100780
100380
7E0380
FF0180
ENDCHAR
STARTCHAR nacute
ENCODING 324
SWIDTH 611 0
DWIDTH 18 0
BBX 17 23 1 0
BITMAP
001800
003800
007800
007000
00E000
00C000
000000
000000
087000
79FC00
FBFC00
3E1C00
3C1E00
3C1E00
3C1E00
3C1E00
3C1E00
3C1E00
3C1E00
3C1E00
3C1E00
7C3E00
FE7F80
ENDCHAR
STARTCHAR uni0145
ENCODING 325
SWIDTH 731 0
DWIDTH 22 0
BBX 20 28 1 -8
BITMAP
FC0FF0
FE0FF0
1F0080
1F0080
1F8080
17C080
13C080
13E080
11F080
10F880
107880
107C80
103E80
101F80
100F80
100F80
100780
100380
7E0380
FF0180
000000
000000
007000
007800
007000
003000
006000
008000
ENDCHAR
STARTCHAR uni0146
ENCODING 326
SWIDTH 611 0
DWIDTH 18 0
BBX 17 23 1 -8
BITMAP
087000
79FC00
FBFC00
3E1C00
3C1E00
3C1E00
3C1E00
3C1E00
3C1E00
3C1E00
3C1E00
3C1E00
3C1E00
7C3E00
FE7F80
000000
000000
01C000
03C000
01C000
00C000
038000
020000
ENDCHAR
STARTCHAR Ncaron
ENCODING 327
SWIDTH 731 0
DWIDTH 22 0
BBX 20 26 1 0
BITMAP
060600
039C00
01F800
00F000
000000
000000
FC0FF0
FE0FF0
1F0080
1F0080
1F8080
17C080
13C080
13E080
11F080
10F880
107880
107C80
103E80
101F80
100F80
100F80
100780
100380
7E0380
FF0180
ENDCHAR
STARTCHAR ncaron
ENCODING 328
SWIDTH 611 0
DWIDTH 18 0
BBX 17 23 1 0
BITMAP
080800
0C1800
063000
03E000
03E000
01C000
000000
000000
087000
79FC00
FBFC00
3E1C00
3C1E00
3C1E00
3C1E00
3C1E00
3C1E00
3C1E00
3C1E00
3C1E00
3C1E00
7C3E00
FE7F80
ENDCHAR
STARTCHAR napostrophe
ENCODING 329
SWIDTH 788 0
DWIDTH 24 0
BBX 22 22 1 0
BITMAP
F00000
F00000
F00000
700000
300000
300000
600000
C063C0
81EFE0
07FFF0
01F0F0
01E0F0
01E0F0
01E0F0
01E0F0
01E0F0
01E0F0
01E0F0
01E0F0
01E0F0
01F0F8
07FBFC
ENDCHAR
STARTCHAR Omacron
ENCODING 332
SWIDTH 704 0
DWIDTH 21 0
BBX 19 26 1 -1
BITMAP
07FC00
07FC00
07FC00
000000
000000
03FC00
0F1E00
1E0700
3C0780
3803C0
7803C0
7803C0
F803E0
F801E0
F001E0
F001E0
F801E0
F803E0
7803C0
7803C0
7803C0
3C0780
1E0700
0F1E00
07FC00
004000
ENDCHAR
STARTCHAR omacron
ENCODING 333
SWIDTH 557 0
DWIDTH 17 0
BBX 15 20 1 0
BITMAP
1FF0
1FF0
0000
0000
0000
0780
1FF0
3878
7838
703C
F01C
F01C
F01E
F01E
F01C
F03C
703C
7838
3C70
0FE0
ENDCHAR
STARTCHAR uni014E
ENCODING 334
SWIDTH 704 0
DWIDTH 21 0
BBX 19 27 1 -1
BITMAP
040400
060C00
03F800
01F800
000000
000000
03FC00
0F1E00
1E0700
3C0780
3803C0
7803C0
7803C0
F803E0
F801E0
F001E0
F001E0
F801E0
F803E0
7803C0
7803C0
7803C0
3C0780
1E0700
0F1E00
07FC00
004000
ENDCHAR
STARTCHAR uni014F
ENCODING 335
SWIDTH 557 0
DWIDTH 17 0
BBX 15 22 1 0
BITMAP
1010
1830
1CE0
0FE0
0780
0000
0000
0780
1FF0
3878
7838
703C
F01C
F01C
F01E
F01E
F01C
F03C
703C
7838
3C70
0FE0
ENDCHAR
STARTCHAR Ohungarumlaut
ENCODING 336
SWIDTH 704 0
DWIDTH 21 0
BBX 19 28 1 -1
BITMAP
004200
00E700
00CE00
01CC00
019800
031000
000000
03FC00
0F1E00
1E0700
3C0780
3803C0
7803C0
7803C0
F803E0
F801E0
F001E0
F001E0
F801E0
F803E0
7803C0
7803C0
7803C0
3C0780
1E0700
0F1E00
07FC00
004000
ENDCHAR
STARTCHAR ohungarumlaut
ENCODING 337
SWIDTH 557 0
DWIDTH 17 0
BBX 15 23 1 0
BITMAP
0198
03B8
03B8
0730
0660
0C60
0000
0000
0780
1FF0
3878
7838
703C
F01C
F01C
F01E
F01E
F01C
F03C
703C
7838
3C70
0FE0
ENDCHAR
STARTCHAR OE
ENCODING 338
SWIDTH 934 0
DWIDTH 28 0
BBX 26 21 1 -1
BITMAP
03FFFF80
0F87FF80
1E078180
3C078180
7C078180
78078040
78078400
F8078400
F8078400
F007FC00
F007FC00
F8078400
F8078400
78078000
78078000
7C0780C0
3C0780C0
1E0780C0
0F87FFC0
03FFFFC0
00200000
ENDCHAR
STARTCHAR oe
ENCODING 339
SWIDTH 863 0
DWIDTH 26 0
BBX 24 15 1 0
BITMAP
0780F0
1FE3FC
38770E
783E0E
703E0F
F03E0F
F01FFF
F01FFF
F01C00
F01E00
F03E00
703F02
783F87
3C77FE
0FE3F8
ENDCHAR
STARTCHAR Racute
ENCODING 340
SWIDTH 666 0
DWIDTH 20 0
BBX 19 26 1 0
BITMAP
001C00
003C00
007800
01E000
008000
000000
FFF000
FFFE00
1E0F00
1E0F00
1E0700
1E0780
1E0700
1E0F00
1E1E00
1FFC00
1FF800
1E3C00
1E1E00
1E1E00
1E0E00
1E0F00
1E0F00
1E0F00
7F0FC0
FF87E0
ENDCHAR
STARTCHAR racute
ENCODING 341
SWIDTH 443 0
DWIDTH 13 0
BBX 12 23 1 0
BITMAP
0060
00E0
01E0
01C0
0380
0300
0000
0000
0860
79F0
FBF0
3E70
3C00
3C00
3C00
3C00
3C00
3C00
3C00
3C00
3C00
7E00
FF00
ENDCHAR
STARTCHAR uni0156
ENCODING 342
SWIDTH 666 0
DWIDTH 20 0
BBX 19 28 1 -8
BITMAP
FFF000
FFFE00
1E0F00
1E0F00
1E0700
1E0780
1E0700
1E0F00
1E1E00
1FFC00
1FF800
1E3C00
1E1E00
1E1E00
1E0E00
1E0F00
1E0F00
1E0F00
7F0FC0
FF87E0
000000
000000
00F000
00F000
00F000
006000
00C000
010000
ENDCHAR
STARTCHAR uni0157
ENCODING 343
SWIDTH 443 0
DWIDTH 13 0
BBX 12 23 1 -8
BITMAP
0860
79F0
FBF0
3E70
3C00
3C00
3C00
3C00
3C00
3C00
3C00
3C00
3C00
7E00
FF00
0000
0000
3C00
3C00
3C00
1800
3000
4000
ENDCHAR
STARTCHAR Rcaron
ENCODING 344
SWIDTH 666 0
DWIDTH 20 0
BBX 19 26 1 0
BITMAP
0C1800
073800
03F000
01E000
000000
000000
FFF000
FFFE00
1E0F00
1E0F00
1E0700
1E0780
1E0700
1E0F00
1E1E00
1FFC00
1FF800
1E3C00
1E1E00
1E1E00
1E0E00
1E0F00
1E0F00
1E0F00
7F0FC0
FF87E0
ENDCHAR
STARTCHAR rcaron
ENCODING 345
SWIDTH 443 0
DWIDTH 13 0
BBX 12 23 1 0
BITMAP
2040
3060
19C0
1F80
0F00
0700
0000
0000
0860
79F0
FBF0
3E70
3C00
3C00
3C00
3C00
3C00
3C00
3C00
3C00
3C00
7E00
FF00
ENDCHAR
STARTCHAR Sacute
ENCODING 346
SWIDTH 526 0
DWIDTH 16 0
BBX 14 27 1 -1
BITMAP
0070
00F0
01E0
0380
0200
0000
1FF0
3C78
7038
7038
F038
F000
7800
7C00
7F80
3FE0
0FF0
03F8
00F8
007C
003C
E03C
E038
E038
F0F0
7FE0
0200
ENDCHAR
STARTCHAR sacute
ENCODING 347
SWIDTH 444 0
DWIDTH 13 0
BBX 11 23 1 0
BITMAP
00C0
01E0
01C0
0380
0700
0600
0000
0000
0F00
3FE0
70C0
60C0
F0C0
F800
7F00
7FC0
1FE0
07E0
01E0
C0E0
E0E0
E1C0
7F80
ENDCHAR
STARTCHAR Scircumflex
ENCODING 348
SWIDTH 526 0
DWIDTH 16 0
BBX 14 27 1 -1
BITMAP
0300
07C0
0FE0
1C70
3010
0000
1FF0
3C78
7038
7038
F038
F000
7800
7C00
7F80
3FE0
0FF0
03F8
00F8
007C
003C
E03C
E038
E038
F0F0
7FE0
0200
ENDCHAR
STARTCHAR scircumflex
ENCODING 349
SWIDTH 444 0
DWIDTH 13 0
BBX 11 22 1 0
BITMAP
0600
0F00
1F80
39C0
6060
2040
0000
0F00
3FE0
70C0
60C0
F0C0
F800
7F00
7FC0
1FE0
07E0
01E0
C0E0
E0E0
E1C0
7F80
ENDCHAR
STARTCHAR uni015E
ENCODING 350
SWIDTH 526 0
DWIDTH 16 0
BBX 14 27 1 -7
BITMAP
1FF0
3C78
7038
7038
F038
F000
7800
7C00
7F80
3FE0
0FF0
03F8
00F8
007C
003C
E03C
E038
E038
F0F0
7FE0
0300
0200
03C0
00C0
00C0
07C0
0F00
ENDCHAR
STARTCHAR uni015F
ENCODING 351
SWIDTH 444 0
DWIDTH 13 0
BBX 11 22 1 -7
BITMAP
0F00
3FE0
70C0
60C0
F0C0
F800
7F00
7FC0
1FE0
07E0
01E0
C0E0
E0E0
E1C0
7F80
0400
0400
0700
0380
0380
1F00
0E00
ENDCHAR
STARTCHAR Scaron
ENCODING 352
SWIDTH 526 0
DWIDTH 16 0
BBX 14 27 1 -1
BITMAP
1830
0C60
07C0
07C0
0000
0000
1FF0
3C78
7038
7038
F038
F000
7800
7C00
7F80
3FE0
0FF0
03F8
00F8
007C
003C
E03C
E038
E038
F0F0
7FE0
0200
ENDCHAR
STARTCHAR scaron
ENCODING 353
SWIDTH 444 0
DWIDTH 13 0
BBX 11 23 1 0
BITMAP
2040
70C0
39C0
1F80
0F00
0E00
0000
0000
0F00
3FE0
70C0
60C0
F0C0
F800
7F00
7FC0
1FE0
07E0
01E0
C0E0
E0E0
E1C0
7F80
ENDCHAR
STARTCHAR uni0162
ENCODING 354
SWIDTH 618 0
DWIDTH 19 0
BBX 17 27 1 -7
BITMAP
FFFF80
FFFF80
C3C380
C3C180
C3C180
C3C180
03C000
03C000
03C000
03C000
03C000
03C000
03C000
03C000
03C000
03C000
03C000
03C000
0FF000
1FF800
018000
018000
01E000
006000
007000
03E000
038000
ENDCHAR
STARTCHAR uni0163
ENCODING 355
SWIDTH 341 0
DWIDTH 10 0
BBX 10 26 0 -7
BITMAP
0C00
0C00
1C00
1C00
1C00
FFC0
1C00
1C00
1C00
1C00
1C00
1C00
1C00
3C00
3C00
3C00
1C00
1FC0
1F80
0600
0400
0780
0180
0180
0F80
1E00
ENDCHAR
STARTCHAR Tcaron
ENCODING 356
SWIDTH 618 0
DWIDTH 19 0
BBX 17 26 1 0
BITMAP
0C1800
0E7000
07E000
03C000
000000
000000
FFFF80
FFFF80
C3C380
C3C180
C3C180
C3C180
03C000
03C000
03C000
03C000
03C000
03C000
03C000
03C000
03C000
03C000
03C000
03C000
0FF000
1FF800
ENDCHAR
STARTCHAR tcaron
ENCODING 357
SWIDTH 341 0
DWIDTH 10 0
BBX 11 22 0 0
BITMAP
00E0
00E0
00E0
0CE0
0CC0
1CC0
1C00
1C00
FFC0
1C00
1C00
1C00
1C00
1C00
1C00
1C00
3C00
3C00
3C00
1C00
1FC0
1F80
ENDCHAR
STARTCHAR Utilde
ENCODING 360
SWIDTH 729 0
DWIDTH 22 0
BBX 20 27 1 -1
BITMAP
01C100
03F300
03FF00
063E00
020800
000000
FF87F0
FF87F0
3C0080
3C0080
3C0080
3C0080
3C0080
3C0080
3C0080
3C0080
3C0080
3C0080
3C0080
3C0080
1E0180
1E0180
1E0380
0F8700
0FFE00
03FC00
006000
ENDCHAR
STARTCHAR utilde
ENCODING 361
SWIDTH 595 0
DWIDTH 18 0
BBX 16 22 1 0
BITMAP
0608
0F08
1FF8
11F0
1060
0000
0000
0804
F87C
783C
381C
381C
381C
381C
381C
381C
781C
781C
383C
3C7C
3FDE
1F9F
ENDCHAR
STARTCHAR Umacron
ENCODING 362
SWIDTH 729 0
DWIDTH 22 0
BBX 20 26 1 -1
BITMAP
03FE00
03FE00
03FE00
000000
000000
FF87F0
FF87F0
3C0080
3C0080
3C0080
3C0080
3C0080
3C0080
3C0080
3C0080
3C0080
3C0080
3C0080
3C0080
1E0180
1E0180
1E0380
0F8700
0FFE00
03FC00
006000
ENDCHAR
STARTCHAR umacron
ENCODING 363
SWIDTH 595 0
DWIDTH 18 0
BBX 16 20 1 0
BITMAP
0FF0
0FF0
0000
0000
0000
0804
F87C
783C
381C
381C
381C
381C
381C
381C
781C
781C
383C
3C7C
3FDE
1F9F
ENDCHAR
STARTCHAR Ubreve
ENCODING 364
SWIDTH 729 0
DWIDTH 22 0
BBX 20 27 1 -1
BITMAP
030300
010600
01FE00
00FC00
000000
000000
FF87F0
FF87F0
3C0080
3C0080
3C0080
3C0080
3C0080
3C0080
3C0080
3C0080
3C0080
3C0080
3C0080
3C0080
1E0180
1E0180
1E0380
0F8700
0FFE00
03FC00
006000
ENDCHAR
STARTCHAR ubreve
ENCODING 365
SWIDTH 595 0
DWIDTH 18 0
BBX 16 22 1 0
BITMAP
1818
0810
0E70
07E0
03C0
0000
0000
0804
F87C
783C
381C
381C
381C
381C
381C
381C
781C
781C
383C
3C7C
3FDE
1F9F
ENDCHAR
STARTCHAR Uring
ENCODING 366
SWIDTH 729 0
DWIDTH 22 0
BBX 20 28 1 -1
BITMAP
007800
00CC00
008C00
00CC00
00F800
003000
000000
FF87F0
FF87F0
3C0080
3C0080
3C0080
3C0080
3C0080
3C0080
3C0080
3C0080
3C0080
3C0080
3C0080
3C0080
1E0180
1E0180
1E0380
0F8700
0FFE00
03FC00
006000
ENDCHAR
STARTCHAR uring
ENCODING 367
SWIDTH 595 0
DWIDTH 18 0
BBX 16 23 1 0
BITMAP
03C0
0660
0420
0420
0660
07C0
0000
0000
0804
F87C
783C
381C
381C
381C
381C
381C
381C
781C
781C
383C
3C7C
3FDE
1F9F
ENDCHAR
STARTCHAR Uhungarumlaut
ENCODING 368
SWIDTH 729 0
DWIDTH 22 0
BBX 20 28 1 -1
BITMAP
003100
007380
007300
00E600
00C600
008C00
000000
FF87F0
FF87F0
3C0080
3C0080
3C0080
3C0080
3C0080
3C0080
3C0080
3C0080
3C0080
3C0080
3C0080
3C0080
1E0180
1E0180
1E0380
0F8700
0FFE00
03FC00
006000
ENDCHAR
STARTCHAR uhungarumlaut
ENCODING 369
SWIDTH 595 0
DWIDTH 18 0
BBX 16 23 1 0
BITMAP
019C
039C
03B8
0338
0630
0660
0000
0000
0804
F87C
783C
381C
381C
381C
381C
381C
381C
781C
781C
383C
3C7C
3FDE
1F9F
ENDCHAR
STARTCHAR Uogonek
ENCODING 370
SWIDTH 729 0
DWIDTH 22 0
BBX 20 27 1 -7
BITMAP
FF87F0
FF87F0
3C0080
3C0080
3C0080
3C0080
3C0080
3C0080
3C0080
3C0080
3C0080
3C0080
3C0080
3C0080
1E0180
1E0180
1E0380
0F0700
0FFE00
03FC00
003800
003000
003000
007000
007B00
003F00
001C00
ENDCHAR
STARTCHAR uogonek
ENCODING 371
SWIDTH 595 0
DWIDTH 18 0
BBX 17 22 1 -7
BITMAP
080400
F87C00
783C00
381C00
381C00
381C00
381C00
381C00
381C00
781C00
781C00
383C00
3C7C00
3FDE00
1F9F00
000C00
001800
001800
003800
003D80
001F80
000C00
ENDCHAR
STARTCHAR Wcircumflex
ENCODING 372
SWIDTH 971 0
DWIDTH 29 0
BBX 29 26 0 0
BITMAP
00038000
0007C000
000FE000
001C7000
00101800
00000000
FF9FF3F8
FF9FF3F8
1E038040
1E03C0C0
1E07C0C0
0F07C0C0
0F05E080
0F0DE180
0F0DE180
0788F100
0798F300
0798F300
03907300
03F07A00
03F07E00
01E03E00
01E03C00
01E03C00
01E01C00
00C01C00
ENDCHAR
STARTCHAR wcircumflex
ENCODING 373
SWIDTH 776 0
DWIDTH 23 0
BBX 23 22 0 0
BITMAP
001C00
003E00
007600
006300
00C180
008080
000000
000000
FE7F3E
381C18
3C3C18
3C3E18
1C2E30
1E6E30
1E6F30
0E4720
0FC7E0
07C3E0
0783C0
0783C0
030180
030180
ENDCHAR
STARTCHAR Ycircumflex
ENCODING 374
SWIDTH 629 0
DWIDTH 19 0
BBX 19 26 0 0
BITMAP
007000
00F800
01FC00
038E00
020200
000000
FF8FE0
FF8FE0
1E0300
1F0200
0F0600
0F8600
078C00
078C00
03D800
03D800
01F000
01F000
00E000
00E000
00E000
00E000
00E000
01E000
03FC00
07FC00
ENDCHAR
STARTCHAR ycircumflex
ENCODING 375
SWIDTH 523 0
DWIDTH 16 0
BBX 16 29 0 -7
BITMAP
01C0
01E0
03F0
0738
0C1C
0408
0000
0000
FF3F
3C0C
3C08
1C18
1E18
1E10
0E30
0F30
0720
07E0
07C0
03C0
03C0
0180
0180
0100
0100
0300
F600
FC00
7800
ENDCHAR
STARTCHAR Ydieresis
ENCODING 376
SWIDTH 629 0
DWIDTH 19 0
BBX 19 26 0 0
BITMAP
010200
078F00
078F00
038700
000000
000000
FF8FE0
FF8FE0
1E0300
1F0200
0F0600
0F8600
078C00
078C00
03D800
03D800
01F000
01F000
00E000
00E000
00E000
00E000
00E000
01E000
03FC00
07FC00
ENDCHAR
STARTCHAR Zacute
ENCODING 377
SWIDTH 557 0
DWIDTH 17 0
BBX 15 26 1 0
BITMAP
0038
0078
00F0
03C0
0100
0000
FFFE
FFFC
E03C
C078
C0F8
C0F0
01E0
01E0
03C0
07C0
0780
0F00
1F00
1E00
3E00
3C06
7806
F80E
FFFE
FFFE
ENDCHAR
STARTCHAR zacute
ENCODING 378
SWIDTH 460 0
DWIDTH 14 0
BBX 12 23 1 0
BITMAP
00E0
00E0
01E0
03C0
0300
0600
0000
0000
0000
FFF0
E1E0
C1E0
C3C0
0780
0780
0F00
1E00
1E00
3C30
7830
7830
F070
FFF0
ENDCHAR
STARTCHAR Zdotaccent
ENCODING 379
SWIDTH 557 0
DWIDTH 17 0
BBX 15 26 1 0
BITMAP
0380
03C0
03C0
03C0
0000
0000
FFFE
FFFC
E03C
C078
C0F8
C0F0
01E0
01E0
03C0
07C0
0780
0F00
1F00
1E00
3E00
3C06
7806
F80E
FFFE
FFFE
ENDCHAR
STARTCHAR zdotaccent
ENCODING 380
SWIDTH 460 0
DWIDTH 14 0
BBX 12 22 1 0
BITMAP
0600
0F00
0F80
0F00
0200
0000
0000
0000
FFF0
E1E0
C1E0
C3C0
0780
0780
0F00
1E00
1E00
3C30
7830
7830
F070
FFF0
ENDCHAR
STARTCHAR Zcaron
ENCODING 381
SWIDTH 557 0
DWIDTH 17 0
BBX 15 26 1 0
BITMAP
1830
0E70
07E0
03C0
0000
0000
FFFE
FFFC
E03C
C078
C0F8
C0F0
01E0
01E0
03C0
07C0
0780
0F00
1F00
1E00
3E00
3C06
7806
F80E
FFFE
FFFE
ENDCHAR
STARTCHAR zcaron
ENCODING 382
SWIDTH 460 0
DWIDTH 14 0
BBX 12 23 1 0
BITMAP
2020
3060
18C0
0D80
0F80
0700
0000
0000
0000
FFF0
E1E0
C1E0
C3C0
0780
0780
0F00
1E00
1E00
3C30
7830
7830
F070
FFF0
ENDCHAR
STARTCHAR longs
ENCODING 383
SWIDTH 351 0
DWIDTH 11 0
BBX 12 22 1 0
BITMAP
03E0
0FF0
1CF0
1C00
3C00
3C00
3C00
3C00
3800
3800
3800
3800
3800
3800
3800
3800
3800
3800
3C00
3C00
7E00
FF00
ENDCHAR
STARTCHAR uni018F
ENCODING 399
SWIDTH 660 0
DWIDTH 20 0
BBX 18 21 1 -1
BITMAP
0FF000
1FFC00
701E00
200F00
000F00
000780
000780
000780
0007C0
FFFFC0
FFFFC0
F007C0
F00780
F00780
700780
780700
780F00
3C0E00
1E1C00
0FF800
008000
ENDCHAR
STARTCHAR uni0192
ENCODING 402
SWIDTH 520 0
DWIDTH 16 0
BBX 16 23 0 -3
BITMAP
000C
007F
00EF
00C7
01C0
01C0
01C0
01C0
1FF8
1FF8
03C0
0380
0380
0380
0380
0380
0380
0380
0380
0700
E700
FE00
7C00
ENDCHAR
STARTCHAR Ohorn
ENCODING 416
SWIDTH 704 0
DWIDTH 21 0
BBX 19 25 1 -1
BITMAP
0000E0
0000E0
0000E0
000060
03FCC0
0F1F80
1E0700
3C0780
3803C0
7803C0
7803C0
F803E0
F801E0
F001E0
F001E0
F801E0
F803E0
7803C0
7803C0
7803C0
3C0780
1E0700
0F1E00
07FC00
004000
ENDCHAR
STARTCHAR ohorn
ENCODING 417
SWIDTH 557 0
DWIDTH 17 0
BBX 16 18 1 0
BITMAP
0007
0007
0007
0782
1FF6
387C
7838
703C
F01C
F01C
F01E
F01E
F01C
F03C
703C
7838
3C70
0FE0
ENDCHAR
STARTCHAR Uhorn
ENCODING 431
SWIDTH 729 0
DWIDTH 22 0
BBX 22 25 1 -1
BITMAP
000018
00001C
00001C
000018
FF87F8
FF87C0
3C0080
3C0080
3C0080
3C0080
3C0080
3C0080
3C0080
3C0080
3C0080
3C0080
3C0080
3C0080
1E0180
1E0180
1E0380
0F8700
0FFE00
03FC00
006000
ENDCHAR
STARTCHAR uhorn
ENCODING 432
SWIDTH 595 0
DWIDTH 18 0
BBX 19 18 1 0
BITMAP
0001C0
0000E0
0000C0
0804C0
F87CC0
783F80
381C00
381C00
381C00
381C00
381C00
381C00
781C00
781C00
383C00
3C7C00
3FDE00
1F9F00
ENDCHAR
STARTCHAR uni01CD
ENCODING 461
SWIDTH 669 0
DWIDTH 20 0
BBX 20 26 0 0
BITMAP
060600
039C00
01F800
00F000
000000
000000
007000
00F000
00F000
00F800
01F800
01F800
013C00
033C00
033C00
021E00
061E00
061E00
07FF00
0FFF00
080F00
080780
180780
180780
7C0FE0
FE1FF0
ENDCHAR
STARTCHAR uni01CE
ENCODING 462
SWIDTH 520 0
DWIDTH 16 0
BBX 15 23 1 0
BITMAP
1020
3060
1CC0
0FC0
0F80
0700
0000
0000
0F80
3FE0
70E0
70F0
70F0
20F0
01F0
0FF0
38F0
70F0
F0F0
F0F0
F0F0
7F7E
7E7C
ENDCHAR
STARTCHAR uni01CF
ENCODING 463
SWIDTH 379 0
DWIDTH 11 0
BBX 9 26 1 0
BITMAP
C180
6300
3F00
1E00
0000
0000
FF80
FF80
1E00
1E00
1E00
1E00
1E00
1E00
1E00
1E00
1E00
1E00
1E00
1E00
1E00
1E00
1E00
1E00
7F00
FF80
ENDCHAR
STARTCHAR uni01D0
ENCODING 464
SWIDTH 307 0
DWIDTH 9 0
BBX 9 23 0 0
BITMAP
4080
C180
7300
3F00
3E00
1C00
0000
0000
0600
3E00
7E00
1E00
1E00
1E00
1E00
1E00
1E00
1E00
1E00
1E00
1E00
3E00
7F00
ENDCHAR
STARTCHAR uni01D1
ENCODING 465
SWIDTH 704 0
DWIDTH 21 0
BBX 19 27 1 -1
BITMAP
060C00
031800
01F800
00F000
000000
000000
03FC00
0F1E00
1E0700
3C0780
3803C0
7803C0
7803C0
F803E0
F801E0
F001E0
F001E0
F801E0
F803E0
7803C0
7803C0
7803C0
3C0780
1E0700
0F1E00
07FC00
004000
ENDCHAR
STARTCHAR uni01D2
ENCODING 466
SWIDTH 557 0
DWIDTH 17 0
BBX 15 23 1 0
BITMAP
1020
1830
0C60
0FC0
07C0
0380
0000
0000
0780
1FF0
3878
7838
703C
F01C
F01C
F01E
F01E
F01C
F03C
703C
7838
3C70
0FE0
ENDCHAR
STARTCHAR uni01D3
ENCODING 467
SWIDTH 729 0
DWIDTH 22 0
BBX 20 27 1 -1
BITMAP
030300
01CE00
00FC00
007800
000000
000000
FF87F0
FF87F0
3C0080
3C0080
3C0080
3C0080
3C0080
3C0080
3C0080
3C0080
3C0080
3C0080
3C0080
3C0080
1E0180
1E0180
1E0380
0F8700
0FFE00
03FC00
006000
ENDCHAR
STARTCHAR uni01D4
ENCODING 468
SWIDTH 595 0
DWIDTH 18 0
BBX 16 23 1 0
BITMAP
0810
1C30
0E70
07E0
03C0
0380
0000
0000
0804
F87C
783C
381C
381C
381C
381C
381C
381C
781C
781C
383C
3C7C
3FDE
1F9F
ENDCHAR
STARTCHAR uni01D5
ENCODING 469
SWIDTH 729 0
DWIDTH 22 0
BBX 20 31 1 -1
BITMAP
03FF00
03FF00
03FF00
000000
010200
038700
038780
038700
000000
000000
FF87F0
FF87F0
3C0080
3C0080
3C0080
3C0080
3C0080
3C0080
3C0080
3C0080
3C0080
3C0080
3C0080
3C0080
1E0180
1E0180
1E0380
0F8700
0FFE00
03FC00
006000
ENDCHAR
STARTCHAR uni01D6
ENCODING 470
SWIDTH 595 0
DWIDTH 18 0
BBX 16 24 1 0
BITMAP
0FF0
0FF0
0000
0000
1C38
1E78
1C38
0000
0000
0804
F87C
783C
381C
381C
381C
381C
381C
381C
781C
781C
383C
3C7C
3FDE
1F9F
ENDCHAR
STARTCHAR uni01D7
ENCODING 471
SWIDTH 729 0
DWIDTH 22 0
BBX 20 31 1 -1
BITMAP
000E00
000E00
001C00
003800
012200
038700
038780
038700
000000
000000
FF87F0
FF87F0
3C0080
3C0080
3C0080
3C0080
3C0080
3C0080
3C0080
3C0080
3C0080
3C0080
3C0080
3C0080
1E0180
1E0180
1E0380
0F8700
0FFE00
03FC00
006000
ENDCHAR
STARTCHAR uni01D8
ENCODING 472
SWIDTH 595 0
DWIDTH 18 0
BBX 16 26 1 0
BITMAP
0020
0070
00E0
00C0
0180
0080
1E38
1E78
1C38
0000
0000
0804
F87C
783C
381C
381C
381C
381C
381C
381C
781C
781C
383C
3C7C
3FDE
1F9F
ENDCHAR
STARTCHAR uni01D9
ENCODING 473
SWIDTH 729 0
DWIDTH 22 0
BBX 20 31 1 -1
BITMAP
030300
01CE00
00FC00
007800
010200
038700
038780
038700
000000
000000
FF87F0
FF87F0
3C0080
3C0080
3C0080
3C0080
3C0080
3C0080
3C0080
3C0080
3C0080
3C0080
3C0080
3C0080
1E0180
1E0180
1E0380
0F8700
0FFE00
03FC00
006000
ENDCHAR
STARTCHAR uni01DA
ENCODING 474
SWIDTH 595 0
DWIDTH 18 0
BBX 16 26 1 0
BITMAP
1818
0E70
07E0
03C0
0000
0000
1C38
1E78
1C38
0000
0000
0804
F87C
783C
381C
381C
381C
381C
381C
381C
781C
781C
383C
3C7C
3FDE
1F9F
ENDCHAR
STARTCHAR uni01DB
ENCODING 475
SWIDTH 729 0
DWIDTH 22 0
BBX 20 31 1 -1
BITMAP
01C000
01E000
00E000
003000
011200
038700
038780
038700
000000
000000
FF87F0
FF87F0
3C0080
3C0080
3C0080
3C0080
3C0080
3C0080
3C0080
3C0080
3C0080
3C0080
3C0080
3C0080
1E0180
1E0180
1E0380
0F8700
0FFE00
03FC00
006000
ENDCHAR
STARTCHAR uni01DC
ENCODING 476
SWIDTH 595 0
DWIDTH 18 0
BBX 16 26 1 0
BITMAP
0400
0E00
0700
0300
0180
0080
1E78
1E78
1C38
0000
0000
0804
F87C
783C
381C
381C
381C
381C
381C
381C
781C
781C
383C
3C7C
3FDE
1F9F
ENDCHAR
STARTCHAR Gcaron
ENCODING 486
SWIDTH 678 0
DWIDTH 20 0
BBX 19 27 1 -1
BITMAP
030600
018C00
00FC00
007800
000000
000000
03FF00
0F8780
1E0380
3C0380
3C0380
780180
780000
F80000
F80000
F80000
F03FE0
F03FE0
F80780
780780
780780
7C0780
3C0780
1E0780
0F8780
03FF00
006000
ENDCHAR
STARTCHAR gcaron
ENCODING 487
SWIDTH 530 0
DWIDTH 16 0
BBX 14 30 1 -7
BITMAP
2040
3060
18C0
1F80
0F80
0700
0000
0000
0F84
3FFC
70FC
7070
F070
F070
7070
70F0
3DE0
3F80
2000
6000
7800
7FF8
7FFC
3FFC
601C
C01C
E01C
E038
7FF0
3FC0
ENDCHAR
STARTCHAR uni01F8
ENCODING 504
SWIDTH 731 0
DWIDTH 22 0
BBX 20 26 1 0
BITMAP
070000
078000
03C000
00F000
002000
000000
FC0FF0
FE0FF0
1F0080
1F0080
1F8080
17C080
13C080
13E080
11F080
10F880
107880
107C80
103E80
101F80
100F80
100F80
100780
100380
7E0380
FF0180
ENDCHAR
STARTCHAR uni01F9
ENCODING 505
SWIDTH 611 0
DWIDTH 18 0
BBX 17 23 1 0
BITMAP
0C0000
0E0000
0F0000
070000
038000
00C000
000000
000000
087000
79FC00
FBFC00
3E1C00
3C1E00
3C1E00
3C1E00
3C1E00
3C1E00
3C1E00
3C1E00
3C1E00
3C1E00
7C3E00
FE7F80
ENDCHAR
STARTCHAR uni0218
ENCODING 536
SWIDTH 526 0
DWIDTH 16 0
BBX 14 28 1 -8
BITMAP
1FF0
3C78
7038
7038
F038
F000
7800
7C00
7F80
3FE0
0FF0
03F8
00F8
007C
003C
E03C
E038
E038
F0F0
7FE0
0200
0000
0780
0780
0380
0300
0600
0800
ENDCHAR
STARTCHAR uni0219
ENCODING 537
SWIDTH 444 0
DWIDTH 13 0
BBX 11 23 1 -8
BITMAP
0F00
3FE0
70C0
60C0
F0C0
F800
7F00
7FC0
1FE0
07E0
01E0
C0E0
E0E0
E1C0
7F80
0000
0000
0E00
0F00
0F00
0600
0C00
1000
ENDCHAR
STARTCHAR uni021A
ENCODING 538
SWIDTH 618 0
DWIDTH 19 0
BBX 17 28 1 -8
BITMAP
FFFF80
FFFF80
C3C380
C3C180
C3C180
C3C180
03C000
03C000
03C000
03C000
03C000
03C000
03C000
03C000
03C000
03C000
03C000
03C000
0FF000
1FF800
000000
000000
01C000
01C000
01C000
00C000
038000
020000
ENDCHAR
STARTCHAR uni021B
ENCODING 539
SWIDTH 341 0
DWIDTH 10 0
BBX 10 27 0 -8
BITMAP
0C00
0C00
1C00
1C00
1C00
FFC0
1C00
1C00
1C00
1C00
1C00
1C00
1C00
3C00
3C00
3C00
1C00
1FC0
1F80
0000
0000
0700
0F00
0700
0300
0E00
0800
ENDCHAR
STARTCHAR uni0237
ENCODING 567
SWIDTH 292 0
DWIDTH 9 0
BBX 10 22 -3 -7
BITMAP
00C0
07C0
0FC0
03C0
0380
0380
0380
0380
0380
0380
0380
0380
0380
0380
0380
0380
0380
0380
0380
F300
FF00
7C00
ENDCHAR
STARTCHAR uni0251
ENCODING 593
SWIDTH 569 0
DWIDTH 17 0
BBX 17 15 1 0
BITMAP
070400
1FDC00
3E7C00
783C00
783C00
F03C00
F03C00
F03C00
F03C00
F03C00
F03C00
783C00
783C00
3FDF80
1F9F00
ENDCHAR
STARTCHAR uni0259
ENCODING 601
SWIDTH 522 0
DWIDTH 16 0
BBX 14 15 1 0
BITMAP
0F00
3FE0
7FF0
60F8
0078
0078
0038
FFFC
F838
F038
F038
7078
7070
38E0
1FC0
ENDCHAR
STARTCHAR uni0261
ENCODING 609
SWIDTH 571 0
DWIDTH 17 0
BBX 14 22 1 -7
BITMAP
0704
1FDC
3E7C
783C
783C
F03C
F03C
F03C
F03C
F03C
F03C
783C
7C7C
3FFC
1FBC
003C
003C
703C
7038
7078
38F0
1FC0
ENDCHAR
STARTCHAR h.sups
ENCODING 688
SWIDTH 412 0
DWIDTH 12 0
BBX 12 14 0 13
BITMAP
1000
F000
3000
3000
3000
37C0
3DC0
38E0
30E0
30E0
30E0
30E0
30E0
7DF0
ENDCHAR
STARTCHAR j.sups
ENCODING 690
SWIDTH 196 0
DWIDTH 6 0
BBX 7 19 -2 8
BITMAP
0C
0E
0C
00
00
0C
3C
0C
0C
0C
0C
0C
0C
0C
0C
0C
0C
EC
F8
ENDCHAR
STARTCHAR r.sups
ENCODING 691
SWIDTH 300 0
DWIDTH 9 0
BBX 8 9 1 13
BITMAP
67
EF
70
70
70
70
70
70
F8
ENDCHAR
STARTCHAR w.sups
ENCODING 695
SWIDTH 529 0
DWIDTH 16 0
BBX 16 10 0 12
BITMAP
FBEF
71C4
31C4
31CC
3AE8
1A68
1E78
1C30
0C30
0830
ENDCHAR
STARTCHAR y.sups
ENCODING 696
SWIDTH 350 0
DWIDTH 11 0
BBX 10 14 0 8
BITMAP
F9C0
7080
3080
3900
3900
1900
1E00
0E00
0C00
0400
0400
0800
F800
F000
ENDCHAR
STARTCHAR quoteleft.dup5
ENCODING 699
SWIDTH 214 0
DWIDTH 6 0
BBX 5 9 1 13
BITMAP
18
30
60
C0
E0
F0
F0
F0
70
ENDCHAR
STARTCHAR quoteright.dup6
ENCODING 700
SWIDTH 214 0
DWIDTH 6 0
BBX 4 9 1 13
BITMAP
F0
F0
F0
70
30
30
60
C0
80
ENDCHAR
STARTCHAR uni02BE
ENCODING 702
SWIDTH 171 0
DWIDTH 5 0
BBX 3 7 1 16
BITMAP
C0
E0
60
20
60
E0
80
ENDCHAR
STARTCHAR uni02BF
ENCODING 703
SWIDTH 171 0
DWIDTH 5 0
BBX 3 7 1 16
BITMAP
60
E0
C0
C0
C0
E0
20
ENDCHAR
STARTCHAR circumflex
ENCODING 710
SWIDTH 338 0
DWIDTH 10 0
BBX 10 6 0 16
BITMAP
0E00
1E00
3F00
7380
E0C0
4080
ENDCHAR
STARTCHAR caron
ENCODING 711
SWIDTH 400 0
DWIDTH 12 0
BBX 10 6 1 17
BITMAP
4080
E1C0
7380
3F00
1E00
1E00
ENDCHAR
STARTCHAR uni02C8
ENCODING 712
SWIDTH 131 0
DWIDTH 4 0
BBX 2 6 1 17
BITMAP
C0
C0
C0
C0
C0
C0
ENDCHAR
STARTCHAR uni02C9
ENCODING 713
SWIDTH 289 0
DWIDTH 9 0
BBX 8 2 2 18
BITMAP
FF
FF
ENDCHAR
STARTCHAR uni02CA
ENCODING 714
SWIDTH 196 0
DWIDTH 6 0
BBX 6 6 0 17
BITMAP
1C
1C
38
70
60
C0
ENDCHAR
STARTCHAR uni02CB
ENCODING 715
SWIDTH 196 0
DWIDTH 6 0
BBX 6 6 0 17
BITMAP
E0
E0
F0
78
18
0C
ENDCHAR
STARTCHAR uni02CC
ENCODING 716
SWIDTH 131 0
DWIDTH 4 0
BBX 2 6 1 -8
BITMAP
C0
C0
C0
C0
C0
C0
ENDCHAR
STARTCHAR breve
ENCODING 728
SWIDTH 400 0
DWIDTH 12 0
BBX 10 5 1 17
BITMAP
C0C0
4080
7380
3F00
1E00
ENDCHAR
STARTCHAR dotaccent
ENCODING 729
SWIDTH 400 0
DWIDTH 12 0
BBX 4 5 4 17
BITMAP
60
F0
F0
F0
60
ENDCHAR
STARTCHAR ring
ENCODING 730
SWIDTH 400 0
DWIDTH 12 0
BBX 6 6 3 17
BITMAP
78
CC
84
84
CC
78
ENDCHAR
STARTCHAR ogonek
ENCODING 731
SWIDTH 400 0
DWIDTH 12 0
BBX 6 7 3 -7
BITMAP
30
C0
C0
C0
E4
FC
70
ENDCHAR
STARTCHAR tilde
ENCODING 732
SWIDTH 400 0
DWIDTH 12 0
BBX 10 5 1 17
BITMAP
1040
7C40
FFC0
CF80
8300
ENDCHAR
STARTCHAR hungarumlaut
ENCODING 733
SWIDTH 400 0
DWIDTH 12 0
BBX 9 6 2 17
BITMAP
3980
3B80
7380
6700
6600
CC00
ENDCHAR
STARTCHAR l.sups
ENCODING 737
SWIDTH 205 0
DWIDTH 6 0
BBX 6 14 0 13
BITMAP
10
F0
30
30
30
30
30
30
30
30
30
30
30
7C
ENDCHAR
STARTCHAR s.sups
ENCODING 738
SWIDTH 301 0
DWIDTH 9 0
BBX 7 10 1 12
BITMAP
7E
C6
C6
F0
7C
3E
06
86
CE
78
ENDCHAR
STARTCHAR x.sups
ENCODING 739
SWIDTH 359 0
DWIDTH 11 0
BBX 11 9 0 13
BITMAP
F9C0
3980
3900
1E00
0E00
0E00
1700
2380
F7E0
ENDCHAR
STARTCHAR uni0300
ENCODING 768
SWIDTH 0 0
DWIDTH 0 0
BBX 6 6 -4 17
BITMAP
C0
E0
F0
78
18
0C
ENDCHAR
STARTCHAR uni0301
ENCODING 769
SWIDTH 0 0
DWIDTH 0 0
BBX 6 6 -2 17
BITMAP
1C
1C
38
70
60
C0
ENDCHAR
STARTCHAR uni0302
ENCODING 770
SWIDTH 0 0
DWIDTH 0 0
BBX 10 6 -5 16
BITMAP
0C00
1E00
3F00
7380
C0C0
4080
ENDCHAR
STARTCHAR uni0303
ENCODING 771
SWIDTH 0 0
DWIDTH 0 0
BBX 10 5 -5 17
BITMAP
3040
7840
FFC0
8F80
8300
ENDCHAR
STARTCHAR uni0304
ENCODING 772
SWIDTH 0 0
DWIDTH 0 0
BBX 8 2 -4 18
BITMAP
FF
FF
ENDCHAR
STARTCHAR uni0306
ENCODING 774
SWIDTH 0 0
DWIDTH 0 0
BBX 10 5 -5 17
BITMAP
C0C0
4080
7380
3F00
1E00
ENDCHAR
STARTCHAR uni0307
ENCODING 775
SWIDTH 0 0
DWIDTH 0 0
BBX 4 5 -2 17
BITMAP
60
F0
F0
F0
60
ENDCHAR
STARTCHAR uni0308
ENCODING 776
SWIDTH 0 0
DWIDTH 0 0
BBX 10 3 -5 18
BITMAP
E1C0
F3C0
E1C0
ENDCHAR
STARTCHAR uni0309
ENCODING 777
SWIDTH 0 0
DWIDTH 0 0
BBX 4 6 -2 17
BITMAP
C0
F0
F0
30
30
60
ENDCHAR
STARTCHAR uni030A
ENCODING 778
SWIDTH 0 0
DWIDTH 0 0
BBX 6 6 -3 17
BITMAP
78
CC
84
84
CC
78
ENDCHAR
STARTCHAR uni030B
ENCODING 779
SWIDTH 0 0
DWIDTH 0 0
BBX 9 6 -3 17
BITMAP
3300
7380
7700
E600
CE00
8C00
ENDCHAR
STARTCHAR uni030C
ENCODING 780
SWIDTH 0 0
DWIDTH 0 0
BBX 10 6 -5 17
BITMAP
4080
E1C0
7380
3F00
1E00
1E00
ENDCHAR
STARTCHAR uni031B
ENCODING 795
SWIDTH 0 0
DWIDTH 0 0
BBX 5 7 0 11
BITMAP
30
38
38
30
30
E0
80
ENDCHAR
STARTCHAR uni0323
ENCODING 803
SWIDTH 0 0
DWIDTH 0 0
BBX 4 5 -2 -7
BITMAP
60
F0
F0
F0
60
ENDCHAR
STARTCHAR uni0324
ENCODING 804
SWIDTH 0 0
DWIDTH 0 0
BBX 10 3 -5 -6
BITMAP
E1C0
F3C0
E1C0
ENDCHAR
STARTCHAR uni0326
ENCODING 806
SWIDTH 0 0
DWIDTH 0 0
BBX 5 6 -3 -8
BITMAP
78
78
38
10
E0
40
ENDCHAR
STARTCHAR uni0327
ENCODING 807
SWIDTH 0 0
DWIDTH 0 0
BBX 5 7 -2 -7
BITMAP
60
60
78
18
18
F8
E0
ENDCHAR
STARTCHAR uni0328
ENCODING 808
SWIDTH 0 0
DWIDTH 0 0
BBX 6 7 -3 -7
BITMAP
30
C0
C0
C0
E4
FC
70
ENDCHAR
STARTCHAR uni0329
ENCODING 809
SWIDTH 0 0
DWIDTH 0 0
BBX 2 6 -1 -8
BITMAP
C0
C0
C0
C0
C0
C0
ENDCHAR
STARTCHAR uni032E
ENCODING 814
SWIDTH 0 0
DWIDTH 0 0
BBX 10 5 -5 -7
BITMAP
C0C0
4080
7380
3F00
1E00
ENDCHAR
STARTCHAR uni0331
ENCODING 817
SWIDTH 0 0
DWIDTH 0 0
BBX 8 2 -4 -5
BITMAP
FF
FF
ENDCHAR
STARTCHAR uni0374
ENCODING 884
SWIDTH 253 0
DWIDTH 8 0
BBX 4 10 2 12
BITMAP
E0
F0
F0
F0
E0
E0
E0
C0
C0
80
ENDCHAR
STARTCHAR uni0375
ENCODING 885
SWIDTH 253 0
DWIDTH 8 0
BBX 4 10 2 -4
BITMAP
20
30
30
70
70
70
F0
F0
E0
E0
ENDCHAR
STARTCHAR uni037E
ENCODING 894
SWIDTH 317 0
DWIDTH 10 0
BBX 6 21 1 -6
BITMAP
3C
7C
7C
3C
00
00
00
00
00
00
00
3C
7C
7C
3C
1C
18
18
30
60
C0
ENDCHAR
STARTCHAR tonos
ENCODING 900
SWIDTH 375 0
DWIDTH 11 0
BBX 5 7 4 16
BITMAP
38
38
70
70
60
C0
40
ENDCHAR
STARTCHAR dieresistonos
ENCODING 901
SWIDTH 400 0
DWIDTH 12 0
BBX 12 7 0 17
BITMAP
0300
0700
0700
6660
F6F0
6660
0400
ENDCHAR
STARTCHAR Alphatonos
ENCODING 902
SWIDTH 669 0
DWIDTH 20 0
BBX 20 20 0 0
BITMAP
1C7000
38F000
38F000
30F800
71F800
61F800
413C00
033C00
033C00
021E00
061E00
061E00
07FF00
0FFF00
080F00
080780
180780
180780
7C0FE0
FE1FF0
ENDCHAR
STARTCHAR anoteleia
ENCODING 903
SWIDTH 300 0
DWIDTH 9 0
BBX 5 4 2 10
BITMAP
70
F8
F8
70
ENDCHAR
STARTCHAR Epsilontonos
ENCODING 904
SWIDTH 737 0
DWIDTH 22 0
BBX 22 20 -1 0
BITMAP
3BFFF8
7BFFF8
70781C
60781C
60781C
C07800
407860
007860
007860
007FE0
007FE0
007860
007860
007800
007800
00780C
00780C
00780C
01FFFC
03FFFC
ENDCHAR
STARTCHAR Etatonos
ENCODING 905
SWIDTH 915 0
DWIDTH 27 0
BBX 27 20 -1 0
BITMAP
3BFE3FE0
7BFE3FE0
70780780
60780780
60780780
C0780780
40780780
00780780
00780780
007FFF80
007FFF80
00780780
00780780
00780780
00780780
00780780
00780780
00780780
01FE1FE0
03FE3FE0
ENDCHAR
STARTCHAR Iotatonos
ENCODING 906
SWIDTH 517 0
DWIDTH 16 0
BBX 15 20 -1 0
BITMAP
3BFE
7BFE
7078
6078
6078
C078
4078
0078
0078
0078
0078
0078
0078
0078
0078
0078
0078
0078
01FE
03FE
ENDCHAR
STARTCHAR Omicrontonos
ENCODING 908
SWIDTH 774 0
DWIDTH 23 0
BBX 23 21 -1 -1
BITMAP
383FC0
78F1E0
71E070
63C078
63803C
C7803C
47803E
0F801E
0F801E
0F801E
0F801E
0F801E
0F801E
07803E
07803C
07803C
03C078
01E070
00F1E0
007FC0
000400
ENDCHAR
STARTCHAR Upsilontonos
ENCODING 910
SWIDTH 780 0
DWIDTH 23 0
BBX 24 20 -1 0
BITMAP
3BFE3F
7BFE3F
70F80C
607818
607C18
C03C30
403C30
001E60
001E60
000FC0
000FC0
000780
000780
000780
000780
000780
000780
000780
001FE0
003FF0
ENDCHAR
STARTCHAR Omegatonos
ENCODING 911
SWIDTH 798 0
DWIDTH 24 0
BBX 24 20 -1 0
BITMAP
383FE0
78F1F0
71E078
63C03C
67801E
C7801E
47801E
07801E
07801E
07801E
07801E
07801E
03C03C
03C03C
01E078
0CF0E3
0C39C3
0FF9FF
0FF9FF
0FF0FF
ENDCHAR
STARTCHAR iotadieresistonos
ENCODING 912
SWIDTH 302 0
DWIDTH 9 0
BBX 11 24 0 0
BITMAP
0600
0700
0E00
EEE0
ECE0
ECE0
0C00
0000
0000
0400
3C00
1C00
1C00
1C00
1C00
1C00
1C00
1C00
1C00
1C00
1C00
1C00
1F80
0F00
ENDCHAR
STARTCHAR Alpha
ENCODING 913
SWIDTH 669 0
DWIDTH 20 0
BBX 20 20 0 0
BITMAP
007000
00F000
00F000
00F800
01F800
01F800
013C00
033C00
033C00
021E00
061E00
061E00
07FF00
0FFF00
080F00
080780
180780
180780
7C0FE0
FE1FF0
ENDCHAR
STARTCHAR Beta
ENCODING 914
SWIDTH 640 0
DWIDTH 19 0
BBX 17 20 1 0
BITMAP
FFF800
FFFC00
1E1E00
1E0F00
1E0F00
1E0F00
1E0F00
1E0E00
1E3C00
1FE000
1E7E00
1E0F00
1E0780
1E0780
1E0780
1E0780
1E0780
1E0F00
7FFE00
FFF800
ENDCHAR
STARTCHAR Gamma
ENCODING 915
SWIDTH 567 0
DWIDTH 17 0
BBX 15 20 1 0
BITMAP
FFFE
FFFE
1E06
1E06
1E06
1E06
1E00
1E00
1E00
1E00
1E00
1E00
1E00
1E00
1E00
1E00
1E00
1E00
7F80
FF80
ENDCHAR
STARTCHAR Delta.dup7
ENCODING 916
SWIDTH 603 0
DWIDTH 18 0
BBX 16 20 1 0
BITMAP
01C0
03C0
03C0
03E0
07E0
04E0
0CF0
0CF0
0878
1878
1078
103C
303C
201E
601E
601E
400F
FFFF
FFFF
FFFF
ENDCHAR
STARTCHAR Epsilon
ENCODING 917
SWIDTH 599 0
DWIDTH 18 0
BBX 16 20 1 0
BITMAP
FFFE
FFFE
1E06
1E06
1E06
1E01
1E10
1E10
1E10
1FF0
1FF0
1E10
1E10
1E00
1E00
1E03
1E03
1E03
7FFF
FFFF
ENDCHAR
STARTCHAR Zeta
ENCODING 918
SWIDTH 557 0
DWIDTH 17 0
BBX 15 20 1 0
BITMAP
FFFE
FFFC
E03C
C078
C0F8
C0F0
01E0
01E0
03C0
07C0
0780
0F00
1F00
1E00
3E00
3C06
7806
F80E
FFFE
FFFE
ENDCHAR
STARTCHAR Eta
ENCODING 919
SWIDTH 778 0
DWIDTH 23 0
BBX 21 20 1 0
BITMAP
FF8FF8
FF8FF8
1E01E0
1E01E0
1E01E0
1E01E0
1E01E0
1E01E0
1E01E0
1FFFE0
1FFFE0
1E01E0
1E01E0
1E01E0
1E01E0
1E01E0
1E01E0
1E01E0
7F07F0
FF8FF8
ENDCHAR
STARTCHAR Theta
ENCODING 920
SWIDTH 712 0
DWIDTH 21 0
BBX 19 21 1 -1
BITMAP
03FC00
0F1E00
1E0780
3C0380
7803C0
7803C0
7801E0
FA09E0
F309E0
F3F9E0
F3F9E0
F309E0
F209E0
7801E0
7803C0
7803C0
3C0380
1C0780
0F0E00
07FC00
004000
ENDCHAR
STARTCHAR Iota
ENCODING 921
SWIDTH 379 0
DWIDTH 11 0
BBX 9 20 1 0
BITMAP
FF80
FF80
1E00
1E00
1E00
1E00
1E00
1E00
1E00
1E00
1E00
1E00
1E00
1E00
1E00
1E00
1E00
1E00
7F00
FF80
ENDCHAR
STARTCHAR Kappa
ENCODING 922
SWIDTH 681 0
DWIDTH 20 0
BBX 19 20 1 0
BITMAP
FF8FE0
FF8FE0
1E0600
1E0C00
1C0C00
1C1800
1C3000
1C6000
1CF000
1CF000
1DF800
1F7800
1E3C00
1C1E00
1C1E00
1C0F00
1C0F00
1E0780
7F0FE0
FF9FE0
ENDCHAR
STARTCHAR Lambda
ENCODING 923
SWIDTH 660 0
DWIDTH 20 0
BBX 20 20 0 0
BITMAP
006000
00F000
00F000
00F000
01F800
017800
013C00
033C00
023C00
021E00
061E00
041E00
0C0F00
0C0F00
080F00
180780
180780
100780
7C0FE0
FE1FF0
ENDCHAR
STARTCHAR Mu
ENCODING 924
SWIDTH 899 0
DWIDTH 27 0
BBX 25 20 1 0
BITMAP
FE003F80
FE003F80
1F007C00
1F007C00
1F00FC00
1780FC00
1780BC00
13C1BC00
13C1BC00
13C13C00
11E33C00
11E33C00
10F63C00
10F63C00
10F63C00
107C3C00
107C3C00
10383C00
FC387F00
FE38FF80
ENDCHAR
STARTCHAR Nu
ENCODING 925
SWIDTH 731 0
DWIDTH 22 0
BBX 20 20 1 0
BITMAP
FC0FF0
FE0FF0
1F0080
1F0080
1F8080
17C080
13C080
13E080
11F080
10F880
107880
107C80
103E80
101F80
100F80
100F80
100780
100380
7E0380
FF0180
ENDCHAR
STARTCHAR Xi
ENCODING 926
SWIDTH 584 0
DWIDTH 18 0
BBX 16 20 1 0
BITMAP
FFFE
FFFE
FFFE
C006
C006
C006
0000
1818
1818
1FF8
1FF8
1818
1818
0000
C003
C007
C007
FFFE
FFFE
FFFE
ENDCHAR
STARTCHAR Omicron
ENCODING 927
SWIDTH 704 0
DWIDTH 21 0
BBX 19 21 1 -1
BITMAP
03FC00
0F1E00
1E0700
3C0780
3803C0
7803C0
7803C0
F803E0
F801E0
F001E0
F001E0
F801E0
F803E0
7803C0
7803C0
7803C0
3C0780
1E0700
0F1E00
07FC00
004000
ENDCHAR
STARTCHAR Pi
ENCODING 928
SWIDTH 767 0
DWIDTH 23 0
BBX 21 20 1 0
BITMAP
FFFFF8
FFFFF8
1E03C0
1E03C0
1E03C0
1E03C0
1E03C0
1E03C0
1E03C0
1E03C0
1E03C0
1E03C0
1E03C0
1E03C0
1E03C0
1E03C0
1E03C0
1E03C0
7F07F0
FF8FF8
ENDCHAR
STARTCHAR Rho
ENCODING 929
SWIDTH 600 0
DWIDTH 18 0
BBX 16 20 1 0
BITMAP
FFF0
FFFC
1E1E
1E0F
1E0F
1E07
1E07
1E0F
1E0F
1E1E
1E3C
1FF8
1E00
1E00
1E00
1E00
1E00
1E00
7F80
FF80
ENDCHAR
STARTCHAR Sigma
ENCODING 931
SWIDTH 562 0
DWIDTH 17 0
BBX 15 20 1 0
BITMAP
FFFC
FFFC
780C
780C
3C0C
1E0C
1E00
0F00
0780
0380
0300
0700
0E00
1C06
1806
3006
600E
FFFE
FFFE
FFFE
ENDCHAR
STARTCHAR Tau
ENCODING 932
SWIDTH 618 0
DWIDTH 19 0
BBX 17 20 1 0
BITMAP
FFFF80
FFFF80
C3C380
C3C180
C3C180
C3C180
03C000
03C000
03C000
03C000
03C000
03C000
03C000
03C000
03C000
03C000
03C000
03C000
0FF000
1FF800
ENDCHAR
STARTCHAR Upsilon
ENCODING 933
SWIDTH 629 0
DWIDTH 19 0
BBX 19 20 0 0
BITMAP
FF8FE0
FF8FE0
1E0300
1F0200
0F0600
0F8600
078C00
078C00
03D800
03D800
01F000
01F000
00E000
00E000
00E000
00E000
00E000
01E000
03FC00
07FC00
ENDCHAR
STARTCHAR Phi
ENCODING 934
SWIDTH 770 0
DWIDTH 23 0
BBX 21 20 1 0
BITMAP
03FE00
007000
007000
07FF00
1FFFC0
3C71E0
7870F0
707070
F07078
F07078
F07078
F07078
7870F0
7870F0
3E73E0
0FFF80
01F800
007000
01FC00
03FE00
ENDCHAR
STARTCHAR Chi
ENCODING 935
SWIDTH 651 0
DWIDTH 20 0
BBX 19 20 0 0
BITMAP
FF8FC0
FF8FC0
1F0300
0F0600
0F8C00
078C00
03D800
03D000
01F000
01F000
00F000
01F800
017800
033C00
063E00
061E00
0C0F00
180F00
7C1FE0
FE3FE0
ENDCHAR
STARTCHAR Psi
ENCODING 936
SWIDTH 798 0
DWIDTH 24 0
BBX 24 20 0 0
BITMAP
F0FF0F
F8FF1F
3C3C3C
3C3C3C
3C3C3C
1C3C38
1C3C38
1C3C38
1E3C78
0E3C70
0F3CF0
07FFE0
01FF80
003C00
003C00
003C00
003C00
003C00
00FF00
00FF00
ENDCHAR
STARTCHAR Omega.dup8
ENCODING 937
SWIDTH 729 0
DWIDTH 22 0
BBX 20 20 1 0
BITMAP
07FC00
0F1F00
1E0780
3C03C0
7801E0
7801E0
7801E0
7801E0
7801E0
7801E0
7801E0
7801E0
3803C0
3C03C0
1E0780
CF0E30
C39C30
FF9FF0
FF1FF0
FF1FF0
ENDCHAR
STARTCHAR Iotadieresis
ENCODING 938
SWIDTH 379 0
DWIDTH 11 0
BBX 9 26 1 0
BITMAP
4100
F380
F380
E380
0000
0000
FF80
FF80
1E00
1E00
1E00
1E00
1E00
1E00
1E00
1E00
1E00
1E00
1E00
1E00
1E00
1E00
1E00
1E00
7F00
FF80
ENDCHAR
STARTCHAR Upsilondieresis
ENCODING 939
SWIDTH 629 0
DWIDTH 19 0
BBX 19 26 0 0
BITMAP
010200
078F00
078F00
038700
000000
000000
FF8FE0
FF8FE0
1E0300
1F0200
0F0600
0F8600
078C00
078C00
03D800
03D800
01F000
01F000
00E000
00E000
00E000
00E000
00E000
01E000
03FC00
07FC00
ENDCHAR
STARTCHAR alphatonos
ENCODING 940
SWIDTH 569 0
DWIDTH 17 0
BBX 16 23 1 0
BITMAP
00E0
00E0
01C0
01C0
0180
0100
0300
0000
0F0C
1FBC
38FC
707C
703C
F038
F038
F038
F038
F038
F038
7078
7878
3FDF
1F9E
ENDCHAR
STARTCHAR epsilontonos
ENCODING 941
SWIDTH 471 0
DWIDTH 14 0
BBX 12 23 1 0
BITMAP
00C0
01E0
01C0
0180
0380
0300
0200
0000
0F80
3FE0
70F0
7020
7000
7800
3F80
0F80
3E00
7000
F000
F000
F830
7FF0
3FC0
ENDCHAR
STARTCHAR etatonos
ENCODING 942
SWIDTH 566 0
DWIDTH 17 0
BBX 14 29 1 -6
BITMAP
00C0
01C0
01C0
0180
0300
0300
0200
0000
60E0
F9F8
FBF8
3E3C
3C1C
381C
381C
381C
381C
381C
381C
381C
381C
381C
781C
001C
001C
003C
003C
003C
0030
ENDCHAR
STARTCHAR iotatonos
ENCODING 943
SWIDTH 302 0
DWIDTH 9 0
BBX 7 23 2 0
BITMAP
0C
1C
1C
18
30
30
20
00
10
F0
70
70
70
70
70
70
70
70
70
70
70
7E
3C
ENDCHAR
STARTCHAR upsilondieresistonos
ENCODING 944
SWIDTH 535 0
DWIDTH 16 0
BBX 15 24 0 0
BITMAP
00C0
00E0
01C0
1DDC
1D9C
1D9C
0180
0000
0000
180C
FC1C
7C1C
1C1E
1C1E
1C0E
1C06
1C06
1C06
1C06
1C04
1C0C
1E0C
0FF8
07F0
ENDCHAR
STARTCHAR alpha
ENCODING 945
SWIDTH 569 0
DWIDTH 17 0
BBX 16 15 1 0
BITMAP
0F0C
1FBC
38FC
707C
703C
F038
F038
F038
F038
F038
F038
7078
7878
3FDF
1F9E
ENDCHAR
STARTCHAR beta
ENCODING 946
SWIDTH 576 0
DWIDTH 17 0
BBX 14 28 2 -6
BITMAP
0FC0
1FE0
3870
7078
7038
7038
F078
F070
F0E0
F3C0
F780
F7F0
F078
F03C
F03C
F01C
F01C
F01C
F03C
F078
FFF0
FFE0
F000
F000
F000
F000
F000
C000
ENDCHAR
STARTCHAR gamma
ENCODING 947
SWIDTH 513 0
DWIDTH 15 0
BBX 14 21 0 -6
BITMAP
300C
F81C
FC1C
3C1C
1E1C
1E1C
0E18
0F18
0F18
0730
0730
0760
03C0
03C0
0380
0380
0380
0380
0380
0380
0200
ENDCHAR
STARTCHAR delta
ENCODING 948
SWIDTH 536 0
DWIDTH 16 0
BBX 14 22 1 0
BITMAP
07C0
1CF0
3878
3038
3810
3C00
3E00
1F80
0FC0
0FE0
3DF0
7878
7078
F03C
F03C
E03C
E03C
F03C
F038
7038
7870
1FC0
ENDCHAR
STARTCHAR epsilon
ENCODING 949
SWIDTH 471 0
DWIDTH 14 0
BBX 12 15 1 0
BITMAP
0F80
3FE0
70F0
7020
7000
7800
3F80
0F80
3E00
7000
F000
F000
F830
7FF0
3FC0
ENDCHAR
STARTCHAR zeta
ENCODING 950
SWIDTH 441 0
DWIDTH 13 0
BBX 12 28 1 -6
BITMAP
7FF0
7FF0
7FF0
00E0
01C0
0380
0300
0700
0E00
1C00
3800
3800
7000
7000
E000
E000
E000
F000
F800
7E00
3FC0
0FE0
01E0
00E0
0060
0060
00C0
00C0
ENDCHAR
STARTCHAR eta
ENCODING 951
SWIDTH 566 0
DWIDTH 17 0
BBX 14 21 1 -6
BITMAP
60E0
F9F8
FBF8
3E3C
3C1C
381C
381C
381C
381C
381C
381C
381C
381C
381C
781C
001C
001C
003C
003C
003C
0030
ENDCHAR
STARTCHAR theta
ENCODING 952
SWIDTH 517 0
DWIDTH 16 0
BBX 13 22 1 0
BITMAP
0780
1FE0
38E0
3070
7070
7078
7038
F038
F038
F038
FFF8
FFF8
F038
F038
F038
7038
7038
7038
7870
3870
3CE0
0FC0
ENDCHAR
STARTCHAR iota
ENCODING 953
SWIDTH 302 0
DWIDTH 9 0
BBX 7 15 2 0
BITMAP
10
F0
70
70
70
70
70
70
70
70
70
70
70
7E
3C
ENDCHAR
STARTCHAR kappa
ENCODING 954
SWIDTH 546 0
DWIDTH 16 0
BBX 15 15 1 0
BITMAP
300C
F83E
F87C
38F8
3980
3900
3B00
3F00
3D80
39C0
38C0
38E0
387E
387C
783C
ENDCHAR
STARTCHAR lambda
ENCODING 955
SWIDTH 559 0
DWIDTH 17 0
BBX 16 22 1 0
BITMAP
7800
FC00
FE00
8600
0300
0300
0100
0180
0380
0380
07C0
07C0
0FC0
0E60
1E60
1C60
3C70
3C30
7838
783F
F01F
F01E
ENDCHAR
STARTCHAR mu
ENCODING 956
SWIDTH 578 0
DWIDTH 17 0
BBX 15 21 2 -6
BITMAP
3018
F078
F078
F078
F078
F078
7078
7070
7070
7070
6070
7070
7DB8
7FBE
6F3C
E000
E000
F000
F000
F000
C000
ENDCHAR
STARTCHAR nu
ENCODING 957
SWIDTH 514 0
DWIDTH 15 0
BBX 14 15 0 0
BITMAP
100C
F81C
FC1C
3C1C
1E1C
1E1C
0E18
0F18
0F18
0730
0730
0760
03C0
03C0
0380
ENDCHAR
STARTCHAR xi
ENCODING 958
SWIDTH 458 0
DWIDTH 14 0
BBX 12 28 1 -6
BITMAP
FFF0
FFF0
FFF0
0E00
3800
3800
7000
7800
3800
3F80
1FE0
07E0
1E00
7000
7000
E000
E000
F000
F800
7F00
3FC0
0FE0
01E0
0070
0060
0060
0060
00C0
ENDCHAR
STARTCHAR omicron
ENCODING 959
SWIDTH 533 0
DWIDTH 16 0
BBX 14 15 1 0
BITMAP
0780
1FE0
38F0
7078
7038
F03C
F03C
F03C
F03C
F03C
F03C
7038
7838
3C70
1FC0
ENDCHAR
STARTCHAR pi
ENCODING 960
SWIDTH 603 0
DWIDTH 18 0
BBX 17 14 0 0
BITMAP
3FFF80
FFFF80
761C00
061C00
061C00
061C00
061C00
061C00
061C00
061C00
0E1C00
7C1C00
7C1F80
7C0F80
ENDCHAR
STARTCHAR rho
ENCODING 961
SWIDTH 564 0
DWIDTH 17 0
BBX 14 21 2 -6
BITMAP
0780
1FE0
38F0
7078
7038
E038
E038
E03C
E03C
E038
E038
E078
F070
FDE0
EFC0
E000
F000
F000
F000
F000
C000
ENDCHAR
STARTCHAR uni03C2
ENCODING 962
SWIDTH 460 0
DWIDTH 14 0
BBX 12 21 1 -6
BITMAP
0780
1FE0
38F0
7060
7000
E000
E000
E000
E000
F000
F000
7800
7F00
3FC0
0FE0
01E0
0060
0060
0060
0060
00C0
ENDCHAR
STARTCHAR sigma
ENCODING 963
SWIDTH 608 0
DWIDTH 18 0
BBX 17 15 1 0
BITMAP
007F80
0FFF80
3CFF80
787000
703800
F03800
F03C00
F03C00
F01C00
F03C00
F03C00
703800
783800
3C7000
1FE000
ENDCHAR
STARTCHAR tau
ENCODING 964
SWIDTH 489 0
DWIDTH 15 0
BBX 14 14 0 0
BITMAP
3FFC
FFFC
7B00
0300
0300
0300
0300
0300
0780
0780
0780
0780
03F0
03E0
ENDCHAR
STARTCHAR upsilon
ENCODING 965
SWIDTH 535 0
DWIDTH 16 0
BBX 15 15 0 0
BITMAP
180C
FC1C
7C1C
1C1E
1C1E
1C0E
1C06
1C06
1C06
1C06
1C04
1C0C
1E0C
0FF8
07F0
ENDCHAR
STARTCHAR phi
ENCODING 966
SWIDTH 738 0
DWIDTH 22 0
BBX 20 25 1 -6
BITMAP
006000
006000
006000
006000
03FC00
0FFF80
3C63C0
7861E0
7060E0
F060F0
F060F0
F07070
F07070
F070F0
F070F0
7070E0
7871E0
3E73C0
0FFF00
007000
00F000
00F000
00F000
00F000
00C000
ENDCHAR
STARTCHAR chi
ENCODING 967
SWIDTH 516 0
DWIDTH 15 0
BBX 16 21 0 -6
BITMAP
301C
F81E
FC3C
0C38
0678
0670
02F0
03E0
01E0
01C0
0380
0380
07C0
07C0
0E40
1E60
1C60
3C30
383F
781F
700E
ENDCHAR
STARTCHAR psi
ENCODING 968
SWIDTH 741 0
DWIDTH 22 0
BBX 21 25 0 -6
BITMAP
001800
001800
001800
001800
181830
FC1878
7C1878
1C1878
1C1838
1C1838
1C1838
1C1818
1C1818
1C1830
1C1830
1E1830
0E1860
0FDBC0
03FF00
003800
003C00
003C00
003C00
003C00
003000
ENDCHAR
STARTCHAR omega
ENCODING 969
SWIDTH 762 0
DWIDTH 23 0
BBX 21 15 1 0
BITMAP
020200
0E0380
1C01C0
3800E0
7870F0
707070
707070
F07070
F07078
F07078
F07070
707070
78D8F0
3FDFE0
1F8FC0
ENDCHAR
STARTCHAR iotadieresis
ENCODING 970
SWIDTH 302 0
DWIDTH 9 0
BBX 10 21 0 0
BITMAP
F380
F7C0
F380
0000
0000
0000
0400
3C00
1C00
1C00
1C00
1C00
1C00
1C00
1C00
1C00
1C00
1C00
1C00
1F80
0F00
ENDCHAR
STARTCHAR upsilondieresis
ENCODING 971
SWIDTH 535 0
DWIDTH 16 0
BBX 15 21 0 0
BITMAP
1E38
1E3C
1E38
0000
0000
0000
180C
FC1C
7C1C
1C1E
1C1E
1C0E
1C06
1C06
1C06
1C06
1C04
1C0C
1E0C
0FF8
07F0
ENDCHAR
STARTCHAR omicrontonos
ENCODING 972
SWIDTH 533 0
DWIDTH 16 0
BBX 14 23 1 0
BITMAP
00E0
00E0
01C0
01C0
0180
0300
0100
0000
0780
1FE0
38F0
7078
7038
F03C
F03C
F03C
F03C
F03C
F03C
7038
7838
3C70
1FC0
ENDCHAR
STARTCHAR upsilontonos
ENCODING 973
SWIDTH 535 0
DWIDTH 16 0
BBX 15 23 0 0
BITMAP
0070
0070
0070
00E0
00C0
00C0
0180
0000
180C
FC1C
7C1C
1C1E
1C1E
1C0E
1C06
1C06
1C06
1C06
1C04
1C0C
1E0C
0FF8
07F0
ENDCHAR
STARTCHAR omegatonos
ENCODING 974
SWIDTH 762 0
DWIDTH 23 0
BBX 21 23 1 0
BITMAP
000C00
001C00
001C00
003800
003000
003000
002000
000000
020200
0E0380
1C01C0
3800E0
7870F0
707070
707070
F07070
F07078
F07078
F07070
707070
78D8F0
3FDFE0
1F8FC0
ENDCHAR
STARTCHAR uni03D7
ENCODING 983
SWIDTH 670 0
DWIDTH 20 0
BBX 19 22 0 -7
BITMAP
040180
3F0780
1F0F80
071F00
073000
072000
076000
07E000
07B000
073800
071C00
071E00
070FA0
0707C0
CF03C0
C000C0
600180
700300
3C1E00
3FFC00
0FF800
01C000
ENDCHAR
STARTCHAR uni03D9
ENCODING 985
SWIDTH 529 0
DWIDTH 16 0
BBX 14 21 1 -6
BITMAP
0780
1FE0
38F0
7078
7038
F03C
F03C
F03C
F03C
F03C
F03C
7038
7838
3C70
1FC0
0380
0380
0380
0380
0780
0200
ENDCHAR
STARTCHAR uni03DB
ENCODING 987
SWIDTH 463 0
DWIDTH 14 0
BBX 13 24 1 -6
BITMAP
0010
0018
0030
0070
0FF0
3FE0
7FC0
7000
E000
C000
C000
C000
C000
E000
7800
7F00
3FC0
0FE0
03E0
00E0
0060
0060
0060
00C0
ENDCHAR
STARTCHAR uni03DD
ENCODING 989
SWIDTH 437 0
DWIDTH 13 0
BBX 11 21 2 -6
BITMAP
0020
FFE0
F0E0
F000
F000
F000
7000
7000
7000
7FC0
73C0
7000
7000
7000
7000
F000
F000
F000
F000
F000
C000
ENDCHAR
STARTCHAR uni03E1
ENCODING 993
SWIDTH 590 0
DWIDTH 18 0
BBX 15 27 1 -5
BITMAP
6000
FC00
1F00
0F80
03C0
01E0
00F0
00F0
01F8
0FF8
FE3C
F83C
601C
001C
001E
00FE
07FE
3F1E
1C1E
101C
001C
001C
001C
0018
0018
0030
0030
ENDCHAR
STARTCHAR uni0400
ENCODING 1024
SWIDTH 599 0
DWIDTH 18 0
BBX 16 26 1 0
BITMAP
0E00
0F00
0780
01C0
0040
0000
FFFE
FFFE
1E06
1E06
1E06
1E01
1E10
1E10
1E10
1FF0
1FF0
1E10
1E10
1E00
1E00
1E03
1E03
1E03
7FFF
FFFF
ENDCHAR
STARTCHAR uni0401
ENCODING 1025
SWIDTH 599 0
DWIDTH 18 0
BBX 16 26 1 0
BITMAP
0C08
1E3C
1E3C
0C1C
0000
0000
FFFE
FFFE
1E06
1E06
1E06
1E01
1E10
1E10
1E10
1FF0
1FF0
1E10
1E10
1E00
1E00
1E03
1E03
1E03
7FFF
FFFF
ENDCHAR
STARTCHAR uni0402
ENCODING 1026
SWIDTH 715 0
DWIDTH 21 0
BBX 20 22 1 -2
BITMAP
FFFF80
FFFF80
C3C380
C3C380
C3C180
C3C000
03C000
03C000
03FF00
03FFC0
03C1E0
03C0E0
03C0F0
03C0F0
03C0F0
03C0F0
03C0F0
03C1E0
0FC1E0
1FC3C0
000F80
000E00
ENDCHAR
STARTCHAR uni0403
ENCODING 1027
SWIDTH 567 0
DWIDTH 17 0
BBX 15 26 1 0
BITMAP
0038
0078
00F0
01C0
0100
0000
FFFE
FFFE
1E06
1E06
1E06
1E06
1E00
1E00
1E00
1E00
1E00
1E00
1E00
1E00
1E00
1E00
1E00
1E00
7F80
FF80
ENDCHAR
STARTCHAR uni0404
ENCODING 1028
SWIDTH 611 0
DWIDTH 18 0
BBX 16 21 1 -1
BITMAP
03FE
0F0F
1C07
3C03
7803
7803
7030
F030
F030
FFF0
FFF0
F030
F030
7000
7800
7803
3803
1C03
0F07
07FE
0020
ENDCHAR
STARTCHAR uni0405
ENCODING 1029
SWIDTH 526 0
DWIDTH 16 0
BBX 14 21 1 -1
BITMAP
1FF0
3C78
7038
7038
F038
F000
7800
7C00
7F80
3FE0
0FF0
03F8
00F8
007C
003C
E03C
E038
E038
F0F0
7FE0
0200
ENDCHAR
STARTCHAR uni0406
ENCODING 1030
SWIDTH 379 0
DWIDTH 11 0
BBX 9 20 1 0
BITMAP
FF80
FF80
1E00
1E00
1E00
1E00
1E00
1E00
1E00
1E00
1E00
1E00
1E00
1E00
1E00
1E00
1E00
1E00
7F00
FF80
ENDCHAR
STARTCHAR uni0407
ENCODING 1031
SWIDTH 379 0
DWIDTH 11 0
BBX 9 26 1 0
BITMAP
4100
F380
F380
E380
0000
0000
FF80
FF80
1E00
1E00
1E00
1E00
1E00
1E00
1E00
1E00
1E00
1E00
1E00
1E00
1E00
1E00
1E00
1E00
7F00
FF80
ENDCHAR
STARTCHAR uni0408
ENCODING 1032
SWIDTH 384 0
DWIDTH 12 0
BBX 13 25 -2 -5
BITMAP
1FF8
1FF8
03C0
03C0
03C0
03C0
03C0
03C0
03C0
03C0
03C0
03C0
03C0
03C0
03C0
03C0
03C0
03C0
03C0
03C0
0380
0380
F300
FE00
7C00
ENDCHAR
STARTCHAR uni0409
ENCODING 1033
SWIDTH 911 0
DWIDTH 27 0
BBX 27 20 0 0
BITMAP
07FFF000
07FFF000
01878000
01878000
01878000
01878000
01878000
01878000
0187FE00
0107FF80
010787C0
030783C0
030781E0
030781E0
030781E0
060781E0
260783C0
FC0787C0
FC0FFF80
781FFC00
ENDCHAR
STARTCHAR uni040A
ENCODING 1034
SWIDTH 998 0
DWIDTH 30 0
BBX 28 20 1 0
BITMAP
FF8FF800
FF8FF800
1E03C000
1E03C000
1E03C000
1E03C000
1E03C000
1E03C000
1E03FE00
1FFFFFC0
1E03C1E0
1E03C0F0
1E03C0F0
1E03C0F0
1E03C0F0
1E03C0F0
1E03C0F0
1E03C1E0
7F0FFFC0
FF8FFF00
ENDCHAR
STARTCHAR uni040B
ENCODING 1035
SWIDTH 767 0
DWIDTH 23 0
BBX 21 20 1 0
BITMAP
FFFF80
FFFF80
C3C380
C3C380
C3C180
C3C000
03C000
03C000
03FF80
03FFC0
03C1E0
03C0E0
03C0E0
03C0F0
03C0F0
03C0F0
03C0F0
03C0F0
0FF3F8
1FF3F8
ENDCHAR
STARTCHAR uni040C
ENCODING 1036
SWIDTH 674 0
DWIDTH 20 0
BBX 19 26 1 0
BITMAP
000E00
001E00
003C00
00F000
004000
000000
FF83C0
FF87C0
1E07C0
1E0D00
1E0C00
1E0800
1E1800
1E1000
1E3000
1FE000
1FF800
1E3C00
1E1E00
1E1E00
1E1E00
1E0F00
1E0F00
1E0F00
7F07C0
FF87E0
ENDCHAR
STARTCHAR uni040D
ENCODING 1037
SWIDTH 788 0
DWIDTH 24 0
BBX 22 26 1 0
BITMAP
038000
03C000
01E000
007000
001000
000000
FF87FC
FF87FC
1E01E0
1E01E0
1E03E0
1E07E0
1E07E0
1E0DE0
1E19E0
1E31E0
1E21E0
1E61E0
1EC1E0
1F81E0
1F01E0
1F01E0
1E01E0
1C01E0
7F07F8
FF87FC
ENDCHAR
STARTCHAR uni040E
ENCODING 1038
SWIDTH 667 0
DWIDTH 20 0
BBX 20 28 0 -2
BITMAP
038700
038780
038300
01FF00
007800
000000
FF87F0
FF87F0
1E0180
1E0180
1F0100
0F0300
0F0200
078600
078600
038C00
03CC00
03C800
01F800
01F000
00F000
00E000
006000
004000
1EC000
1F8000
1F8000
0E0000
ENDCHAR
STARTCHAR uni040F
ENCODING 1039
SWIDTH 760 0
DWIDTH 23 0
BBX 21 26 1 -6
BITMAP
FF8FF8
FF8FF8
1E03C0
1E03C0
1E03C0
1E03C0
1E03C0
1E03C0
1E03C0
1E03C0
1E03C0
1E03C0
1E03C0
1E03C0
1E03C0
1E03C0
1E03C0
1E03C0
7FFFF0
FFFFF8
007000
007000
007000
007000
007000
007000
ENDCHAR
STARTCHAR uni0410
ENCODING 1040
SWIDTH 669 0
DWIDTH 20 0
BBX 20 20 0 0
BITMAP
007000
00F000
00F000
00F800
01F800
01F800
013C00
033C00
033C00
021E00
061E00
061E00
07FF00
0FFF00
080F00
080780
180780
180780
7C0FE0
FE1FF0
ENDCHAR
STARTCHAR uni0411
ENCODING 1041
SWIDTH 621 0
DWIDTH 19 0
BBX 17 20 1 0
BITMAP
FFFE00
3FFE00
1E0600
1E0600
1E0600
1E0600
1E0000
1E0000
1FF000
1FFC00
1E1F00
1E0F00
1E0780
1E0780
1E0780
1E0780
1E0F00
1E1F00
7FFE00
FFF000
ENDCHAR
STARTCHAR uni0412
ENCODING 1042
SWIDTH 640 0
DWIDTH 19 0
BBX 17 20 1 0
BITMAP
FFF800
FFFC00
1E1E00
1E0F00
1E0F00
1E0F00
1E0F00
1E0E00
1E3C00
1FE000
1E7E00
1E0F00
1E0780
1E0780
1E0780
1E0780
1E0780
1E0F00
7FFE00
FFF800
ENDCHAR
STARTCHAR uni0413
ENCODING 1043
SWIDTH 567 0
DWIDTH 17 0
BBX 15 20 1 0
BITMAP
FFFE
FFFE
1E06
1E06
1E06
1E06
1E00
1E00
1E00
1E00
1E00
1E00
1E00
1E00
1E00
1E00
1E00
1E00
7F80
FF80
ENDCHAR
STARTCHAR uni0414
ENCODING 1044
SWIDTH 702 0
DWIDTH 21 0
BBX 20 26 0 -6
BITMAP
07FFF0
07FFF0
018780
018780
018780
018780
018780
018780
010780
030780
030780
030780
060780
060780
0E0780
0C0780
1C0780
180780
FFFFF0
FFFFF0
E00070
E00030
E00030
E00030
C00030
C00030
ENDCHAR
STARTCHAR uni0415
ENCODING 1045
SWIDTH 599 0
DWIDTH 18 0
BBX 16 20 1 0
BITMAP
FFFE
FFFE
1E06
1E06
1E06
1E01
1E10
1E10
1E10
1FF0
1FF0
1E10
1E10
1E00
1E00
1E03
1E03
1E03
7FFF
FFFF
ENDCHAR
STARTCHAR uni0416
ENCODING 1046
SWIDTH 946 0
DWIDTH 28 0
BBX 28 20 0 0
BITMAP
783FE1E0
7C3FE1E0
7C0F03E0
160F0680
060F0600
030F0400
030F0C00
018F0C00
01CF1800
007FF000
01FFFC00
078F1E00
070F0F00
0F0F0F00
0F0F0700
0F0F0780
1E0F0780
1E0F0780
7E1FC3E0
FC3FE3F0
ENDCHAR
STARTCHAR uni0417
ENCODING 1047
SWIDTH 555 0
DWIDTH 17 0
BBX 15 21 1 -1
BITMAP
3FE0
70F8
7078
703C
703C
003C
003C
0038
00F0
0780
07F0
007C
003C
003E
003E
E03E
E03C
F03C
70F8
3FE0
0300
ENDCHAR
STARTCHAR uni0418
ENCODING 1048
SWIDTH 788 0
DWIDTH 24 0
BBX 22 20 1 0
BITMAP
FF87FC
FF87FC
1E01E0
1E01E0
1E03E0
1E07E0
1E07E0
1E0DE0
1E19E0
1E31E0
1E21E0
1E61E0
1EC1E0
1F81E0
1F01E0
1F01E0
1E01E0
1C01E0
7F07F8
FF87FC
ENDCHAR
STARTCHAR uni0419
ENCODING 1049
SWIDTH 788 0
DWIDTH 24 0
BBX 22 26 1 0
BITMAP
038700
078700
030700
03FE00
007800
000000
FF87FC
FF87FC
1E01E0
1E01E0
1E03E0
1E07E0
1E07E0
1E0DE0
1E19E0
1E31E0
1E21E0
1E61E0
1EC1E0
1F81E0
1F01E0
1F01E0
1E01E0
1C01E0
7F07F8
FF87FC
ENDCHAR
STARTCHAR uni041A
ENCODING 1050
SWIDTH 674 0
DWIDTH 20 0
BBX 19 20 1 0
BITMAP
FF83C0
FF87C0
1E07C0
1E0D00
1E0C00
1E0800
1E1800
1E1000
1E3000
1FE000
1FF800
1E3C00
1E1E00
1E1E00
1E1E00
1E0F00
1E0F00
1E0F00
7F07C0
FF87E0
ENDCHAR
STARTCHAR uni041B
ENCODING 1051
SWIDTH 699 0
DWIDTH 21 0
BBX 20 20 0 0
BITMAP
07FFF0
07FFF0
018780
018780
018780
018780
018780
018780
018780
010780
010780
030780
030780
030780
030780
060780
260780
FC0780
FC0FE0
781FF0
ENDCHAR
STARTCHAR uni041C
ENCODING 1052
SWIDTH 899 0
DWIDTH 27 0
BBX 25 20 1 0
BITMAP
FE003F80
FE003F80
1F007C00
1F007C00
1F00FC00
1780FC00
1780BC00
13C1BC00
13C1BC00
13C13C00
11E33C00
11E33C00
10F63C00
10F63C00
10F63C00
107C3C00
107C3C00
10383C00
FC387F00
FE38FF80
ENDCHAR
STARTCHAR uni041D
ENCODING 1053
SWIDTH 778 0
DWIDTH 23 0
BBX 21 20 1 0
BITMAP
FF8FF8
FF8FF8
1E01E0
1E01E0
1E01E0
1E01E0
1E01E0
1E01E0
1E01E0
1FFFE0
1FFFE0
1E01E0
1E01E0
1E01E0
1E01E0
1E01E0
1E01E0
1E01E0
7F07F0
FF8FF8
ENDCHAR
STARTCHAR uni041E
ENCODING 1054
SWIDTH 704 0
DWIDTH 21 0
BBX 19 21 1 -1
BITMAP
03FC00
0F1E00
1E0700
3C0780
3803C0
7803C0
7803C0
F803E0
F801E0
F001E0
F001E0
F801E0
F803E0
7803C0
7803C0
7803C0
3C0780
1E0700
0F1E00
07FC00
004000
ENDCHAR
STARTCHAR uni041F
ENCODING 1055
SWIDTH 765 0
DWIDTH 23 0
BBX 21 20 1 0
BITMAP
FFFFF8
FFFFF8
1E03C0
1E03C0
1E03C0
1E03C0
1E03C0
1E03C0
1E03C0
1E03C0
1E03C0
1E03C0
1E03C0
1E03C0
1E03C0
1E03C0
1E03C0
1E03C0
7F07F0
FF8FF8
ENDCHAR
STARTCHAR uni0420
ENCODING 1056
SWIDTH 600 0
DWIDTH 18 0
BBX 16 20 1 0
BITMAP
FFF0
FFFC
1E1E
1E0F
1E0F
1E07
1E07
1E0F
1E0F
1E1E
1E3C
1FF8
1E00
1E00
1E00
1E00
1E00
1E00
7F80
FF80
ENDCHAR
STARTCHAR uni0421
ENCODING 1057
SWIDTH 627 0
DWIDTH 19 0
BBX 17 21 1 -1
BITMAP
03FE00
0F8700
1E0300
3C0380
3C0380
780380
780000
F80000
F80000
F00000
F00000
F80000
F80000
780000
780000
7C0180
3C0380
1E0380
0F8780
03FF00
006000
ENDCHAR
STARTCHAR uni0422
ENCODING 1058
SWIDTH 618 0
DWIDTH 19 0
BBX 17 20 1 0
BITMAP
FFFF80
FFFF80
C3C380
C3C180
C3C180
C3C180
03C000
03C000
03C000
03C000
03C000
03C000
03C000
03C000
03C000
03C000
03C000
03C000
0FF000
1FF800
ENDCHAR
STARTCHAR uni0423
ENCODING 1059
SWIDTH 667 0
DWIDTH 20 0
BBX 20 22 0 -2
BITMAP
FF87F0
FF87F0
1E0180
1E0180
1F0100
0F0300
0F0200
078600
078600
038C00
03CC00
03C800
01F800
01F000
00F000
00E000
006000
004000
1EC000
1F8000
1F8000
0E0000
ENDCHAR
STARTCHAR uni0424
ENCODING 1060
SWIDTH 742 0
DWIDTH 22 0
BBX 20 20 1 0
BITMAP
03FE00
00F000
00F000
0FFF00
3FFFC0
78F1E0
70F0F0
F0F0F0
F0F070
F0F070
F0F070
F0F0F0
F0F0F0
78F0E0
3CF3E0
1FFF80
07FE00
00F000
00F000
03FE00
ENDCHAR
STARTCHAR uni0425
ENCODING 1061
SWIDTH 651 0
DWIDTH 20 0
BBX 19 20 0 0
BITMAP
FF8FC0
FF8FC0
1F0300
0F0600
0F8C00
078C00
03D800
03D000
01F000
01F000
00F000
01F800
017800
033C00
063E00
061E00
0C0F00
180F00
7C1FE0
FE3FE0
ENDCHAR
STARTCHAR uni0426
ENCODING 1062
SWIDTH 767 0
DWIDTH 23 0
BBX 21 26 1 -6
BITMAP
FF8FF8
FF8FF8
1E03C0
1E03C0
1E03C0
1E03C0
1E03C0
1E03C0
1E03C0
1E03C0
1E03C0
1E03C0
1E03C0
1E03C0
1E03C0
1E03C0
1E03C0
1E03C0
7FFFF8
FFFFF8
000038
000038
000038
000018
000018
000018
ENDCHAR
STARTCHAR uni0427
ENCODING 1063
SWIDTH 708 0
DWIDTH 21 0
BBX 19 20 1 0
BITMAP
FF3FE0
FF3FE0
3C0780
3C0780
3C0780
3C0780
3C0700
3C0700
3C0700
3E0700
1FFF00
0FFF00
000700
000700
000780
000780
000780
000780
001FC0
003FE0
ENDCHAR
STARTCHAR uni0428
ENCODING 1064
SWIDTH 1052 0
DWIDTH 32 0
BBX 29 20 1 0
BITMAP
FF9FE7F8
FF9FE7F8
1E0781E0
1E0781E0
1E0781E0
1E0781E0
1E0781E0
1E0781E0
1E0781E0
1E0781E0
1E0781E0
1E0781E0
1E0781E0
1E0781E0
1E0781E0
1E0781E0
1E0781E0
1E0781E0
7FFFFFF8
FFFFFFF8
ENDCHAR
STARTCHAR uni0429
ENCODING 1065
SWIDTH 1060 0
DWIDTH 32 0
BBX 30 26 1 -6
BITMAP
FF9FE7F8
FF9FE7F8
1E0781E0
1E0781E0
1E0781E0
1E0781E0
1E0781E0
1E0781E0
1E0781E0
1E0781E0
1E0781E0
1E0781E0
1E0781E0
1E0781E0
1E0781E0
1E0781E0
1E0781E0
1E0781E0
7FFFFFFC
FFFFFFFC
0000001C
0000001C
0000001C
0000001C
0000000C
0000000C
ENDCHAR
STARTCHAR uni042A
ENCODING 1066
SWIDTH 713 0
DWIDTH 21 0
BBX 20 20 1 0
BITMAP
FFF000
FFF000
C3C000
C3C000
C3C000
C3C000
03C000
03C000
03FF00
03FFC0
03C3E0
03C1E0
03C0F0
03C0F0
03C0F0
03C0F0
03C1E0
03C3E0
0FFFC0
1FFF00
ENDCHAR
STARTCHAR uni042B
ENCODING 1067
SWIDTH 938 0
DWIDTH 28 0
BBX 26 20 1 0
BITMAP
FF807FC0
FF807FC0
1E001E00
1E001E00
1E001E00
1E001E00
1E001E00
1E001E00
1FF01E00
1FFC1E00
1E1E1E00
1E0F1E00
1E0F1E00
1E0F1E00
1E0F1E00
1E0F1E00
1E0F1E00
1E1E1E00
7FFC3F80
FFF07FC0
ENDCHAR
STARTCHAR uni042C
ENCODING 1068
SWIDTH 616 0
DWIDTH 18 0
BBX 17 20 1 0
BITMAP
FF8000
FF8000
1E0000
1E0000
1E0000
1E0000
1E0000
1E0000
1FF800
1FFE00
1E0F00
1E0F00
1E0780
1E0780
1E0780
1E0780
1E0F00
1E0F00
7FFE00
FFF000
ENDCHAR
STARTCHAR uni042D
ENCODING 1069
SWIDTH 609 0
DWIDTH 18 0
BBX 16 21 1 -1
BITMAP
7FE0
F0F8
E03C
E01C
C01E
C00E
040F
040F
060F
07FF
07FF
040F
040F
000F
000E
C01E
E01C
E03C
F0F8
7FE0
0200
ENDCHAR
STARTCHAR uni042E
ENCODING 1070
SWIDTH 1005 0
DWIDTH 30 0
BBX 28 21 1 -1
BITMAP
FF81FE00
FF83C780
1C0703C0
1C0F01C0
1C1E01E0
1C1E01E0
1C1E00F0
1C1E00F0
1C3E00F0
1FFC00F0
1FFC00F0
1C3C00F0
1C1E00F0
1C1E00F0
1C1E01E0
1C1E01E0
1C0F01C0
1C0703C0
7F03C780
FF81FE00
00003000
ENDCHAR
STARTCHAR uni042F
ENCODING 1071
SWIDTH 656 0
DWIDTH 20 0
BBX 19 20 0 0
BITMAP
01FFE0
0FFFE0
1F0F00
1E0F00
1C0F00
3C0F00
1C0F00
1E0F00
0F0F00
07CF00
01FF00
078F00
070F00
0F0F00
0E0F00
1E0F00
1E0F00
1C0F00
7C1FC0
F83FE0
ENDCHAR
STARTCHAR uni0430
ENCODING 1072
SWIDTH 520 0
DWIDTH 16 0
BBX 15 15 1 0
BITMAP
0F80
3FE0
70E0
70F0
70F0
20F0
01F0
0FF0
38F0
70F0
F0F0
F0F0
F0F0
7F7E
7E7C
ENDCHAR
STARTCHAR uni0431
ENCODING 1073
SWIDTH 557 0
DWIDTH 17 0
BBX 15 23 1 0
BITMAP
0004
000C
03FC
0FFC
1FF8
3F00
7000
6000
6000
67E0
4EF8
D838
F83C
F01C
F01E
F01E
701E
701C
701C
783C
3838
1C70
0FE0
ENDCHAR
STARTCHAR uni0432
ENCODING 1074
SWIDTH 531 0
DWIDTH 16 0
BBX 14 14 1 0
BITMAP
FFF0
3C78
3C38
3C38
3C38
3C70
3FC0
3C78
3C3C
3C1C
3C3C
3C3C
7CF8
FFE0
ENDCHAR
STARTCHAR uni0433
ENCODING 1075
SWIDTH 453 0
DWIDTH 14 0
BBX 12 14 1 0
BITMAP
FFF0
3C70
3C30
3C30
3C30
3C00
3C00
3C00
3C00
3C00
3C00
3C00
7C00
FF00
ENDCHAR
STARTCHAR uni0434
ENCODING 1076
SWIDTH 593 0
DWIDTH 18 0
BBX 17 19 0 -5
BITMAP
0FFF80
031C00
031C00
031C00
021C00
061C00
061C00
061C00
0C1C00
0C1C00
181C00
181C00
301C00
FFFF80
E00380
E00380
600180
400180
400180
ENDCHAR
STARTCHAR uni0435
ENCODING 1077
SWIDTH 515 0
DWIDTH 15 0
BBX 13 15 1 0
BITMAP
0780
1FE0
3870
7838
7038
F038
FFF8
FFF8
F000
F000
F000
7808
7C18
3FF0
1FE0
ENDCHAR
STARTCHAR uni0436
ENCODING 1078
SWIDTH 793 0
DWIDTH 24 0
BBX 23 15 0 0
BITMAP
30000C
78FF1E
7C3C3E
3C3C3C
063C60
063C40
033CC0
01FF80
07BDE0
0E3C70
1C3C78
1C3C38
1C3C38
3C3C3C
F8FF1E
ENDCHAR
STARTCHAR uni0437
ENCODING 1079
SWIDTH 449 0
DWIDTH 13 0
BBX 12 15 1 0
BITMAP
1F00
7FC0
60E0
60E0
60E0
00E0
03C0
0F80
01E0
00E0
00F0
E0F0
E0E0
71E0
3F80
ENDCHAR
STARTCHAR uni0438
ENCODING 1080
SWIDTH 650 0
DWIDTH 20 0
BBX 17 14 1 0
BITMAP
FF3F80
380F00
380E00
381E00
383E00
386E00
38CE00
398E00
3B0E00
3E0E00
3C0E00
380E00
7C1F00
FF3F80
ENDCHAR
STARTCHAR uni0439
ENCODING 1081
SWIDTH 650 0
DWIDTH 20 0
BBX 17 22 1 0
BITMAP
0E1C00
0E1C00
0E1C00
0C0C00
07F800
000000
000000
000000
FF3F80
380F00
380E00
381E00
383E00
386E00
38CE00
398E00
3B0E00
3E0E00
3C0E00
380E00
7C1F00
FF3F80
ENDCHAR
STARTCHAR uni043A
ENCODING 1082
SWIDTH 569 0
DWIDTH 17 0
BBX 16 15 1 0
BITMAP
0004
FF1E
3C1E
3C3C
3C20
3C60
3C40
3F80
3DE0
3C70
3C38
3C38
3C3C
7C3C
FF1F
ENDCHAR
STARTCHAR uni043B
ENCODING 1083
SWIDTH 588 0
DWIDTH 18 0
BBX 17 14 0 0
BITMAP
0FFF80
031E00
031E00
031E00
031E00
021E00
021E00
021E00
061E00
061E00
041E00
7C1E00
F83E00
787F80
ENDCHAR
STARTCHAR uni043C
ENCODING 1084
SWIDTH 741 0
DWIDTH 22 0
BBX 20 14 1 0
BITMAP
FE03F0
3E07C0
2E05C0
2F0DC0
270DC0
3789C0
3399C0
33D1C0
33F1C0
31E1C0
31E1C0
30E1C0
70C3E0
F807F0
ENDCHAR
STARTCHAR uni043D
ENCODING 1085
SWIDTH 639 0
DWIDTH 19 0
BBX 17 14 1 0
BITMAP
FF3F80
3C0E00
3C0E00
3C0E00
3C0E00
3C0E00
3FFE00
3C0E00
3C0E00
3C0E00
3C0E00
3C0E00
7C1F00
FF3F80
ENDCHAR
STARTCHAR uni043E
ENCODING 1086
SWIDTH 557 0
DWIDTH 17 0
BBX 15 15 1 0
BITMAP
0780
1FF0
3878
7838
703C
F01C
F01C
F01E
F01E
F01C
F03C
703C
7838
3C70
0FE0
ENDCHAR
STARTCHAR uni043F
ENCODING 1087
SWIDTH 630 0
DWIDTH 19 0
BBX 17 14 1 0
BITMAP
FFFF80
3C1E00
3C1E00
3C1E00
3C1E00
3C1E00
3C1E00
3C1E00
3C1E00
3C1E00
3C1E00
3C1E00
7C1F00
FF7F80
ENDCHAR
STARTCHAR uni0440
ENCODING 1088
SWIDTH 596 0
DWIDTH 18 0
BBX 16 22 1 -7
BITMAP
08F0
7BF8
FF7C
3C1E
3C1E
3C0F
3C0F
3C0F
3C0F
3C0F
3C0E
3C1E
3C3E
3FFC
3DF8
3C00
3C00
3C00
3C00
3C00
7E00
FF00
ENDCHAR
STARTCHAR uni0441
ENCODING 1089
SWIDTH 500 0
DWIDTH 15 0
BBX 13 15 1 0
BITMAP
07C0
1FE0
3C70
7878
7038
F030
F000
F000
F000
F000
F000
7808
7C38
3FF0
1FE0
ENDCHAR
STARTCHAR uni0442
ENCODING 1090
SWIDTH 542 0
DWIDTH 16 0
BBX 15 14 1 0
BITMAP
FFFC
C78C
C78C
C786
8786
0780
0780
0780
0780
0780
0780
0780
07C0
1FE0
ENDCHAR
STARTCHAR uni0443
ENCODING 1091
SWIDTH 523 0
DWIDTH 16 0
BBX 16 21 0 -7
BITMAP
FF3F
3C0C
3C08
1C18
1E18
1E10
0E30
0F30
0720
07E0
07C0
03C0
03C0
0180
0180
0100
0100
0300
F600
FC00
7800
ENDCHAR
STARTCHAR uni0444
ENCODING 1092
SWIDTH 770 0
DWIDTH 23 0
BBX 21 29 1 -7
BITMAP
001000
00F000
01F000
007000
007000
007000
007000
077700
1FFFE0
3870F0
707070
F07078
F07078
F07038
F07038
F07038
F07078
F07078
707070
7870F0
3E79E0
1FFFC0
007000
007000
007000
007000
007000
00F800
03FE00
ENDCHAR
STARTCHAR uni0445
ENCODING 1093
SWIDTH 538 0
DWIDTH 16 0
BBX 16 14 0 0
BITMAP
FF3E
1E18
1E18
0F30
0FE0
07C0
03C0
03E0
07E0
04F0
0CF8
1878
383C
FCFF
ENDCHAR
STARTCHAR uni0446
ENCODING 1094
SWIDTH 633 0
DWIDTH 19 0
BBX 17 19 1 -5
BITMAP
FE7F80
3C1E00
3C1E00
3C1E00
3C1E00
3C1E00
3C1E00
3C1E00
3C1E00
3C1E00
3C1E00
3C1E00
7C1E00
FFFF80
000180
000180
000180
000180
000180
ENDCHAR
STARTCHAR uni0447
ENCODING 1095
SWIDTH 568 0
DWIDTH 17 0
BBX 16 14 0 0
BITMAP
FE7F
383C
383C
383C
383C
3C3C
3E3C
1FFC
033C
003C
003C
003C
003E
007F
ENDCHAR
STARTCHAR uni0448
ENCODING 1096
SWIDTH 860 0
DWIDTH 26 0
BBX 24 14 1 0
BITMAP
FE7E7F
383C3C
383C3C
383C3C
383C3C
383C3C
383C3C
383C3C
383C3C
383C3C
383C3C
383C3C
7C3C3C
FFFFFF
ENDCHAR
STARTCHAR uni0449
ENCODING 1097
SWIDTH 869 0
DWIDTH 26 0
BBX 24 19 1 -5
BITMAP
FE7E7F
383C3C
383C3C
383C3C
383C3C
383C3C
383C3C
383C3C
383C3C
383C3C
383C3C
383C3C
7C3C3C
FFFFFF
000003
000003
000003
000003
000003
ENDCHAR
STARTCHAR uni044A
ENCODING 1098
SWIDTH 631 0
DWIDTH 19 0
BBX 17 14 1 0
BITMAP
FFE000
C78000
C78000
C78000
C78000
07FE00
078F00
078780
078380
078380
078380
078780
079F00
1FFC00
ENDCHAR
STARTCHAR uni044B
ENCODING 1099
SWIDTH 779 0
DWIDTH 23 0
BBX 21 14 1 0
BITMAP
FF03F8
3C00E0
3C00E0
3C00E0
3C00E0
3FE0E0
3CF8E0
3C38E0
3C3CE0
3C3CE0
3C3CE0
3C38E0
7CF1F0
FFE3F8
ENDCHAR
STARTCHAR uni044C
ENCODING 1100
SWIDTH 517 0
DWIDTH 16 0
BBX 14 14 1 0
BITMAP
FF00
3C00
3C00
3C00
3C00
3FE0
3CF8
3C38
3C3C
3C3C
3C3C
3C38
7CF8
FFE0
ENDCHAR
STARTCHAR uni044D
ENCODING 1101
SWIDTH 488 0
DWIDTH 15 0
BBX 13 15 1 0
BITMAP
1F00
FFC0
61E0
60F0
60F0
0070
0070
1FF8
1078
0070
0070
E0F0
E0E0
61E0
3F80
ENDCHAR
STARTCHAR uni044E
ENCODING 1102
SWIDTH 814 0
DWIDTH 24 0
BBX 22 15 1 0
BITMAP
000780
FF1FE0
3C3870
3C7838
3C703C
3CF03C
3CF03C
3FF03C
3CF03C
3CF03C
3CF03C
3C703C
3C7838
7C3C70
FF0FE0
ENDCHAR
STARTCHAR uni044F
ENCODING 1103
SWIDTH 552 0
DWIDTH 17 0
BBX 15 14 0 0
BITMAP
0FFE
1E3C
3C3C
383C
3C3C
1C3C
0F3C
03FC
0F3C
0E3C
1C3C
1C3C
3C7C
F8FE
ENDCHAR
STARTCHAR uni0450
ENCODING 1104
SWIDTH 515 0
DWIDTH 15 0
BBX 13 23 1 0
BITMAP
1800
1C00
1E00
0E00
0300
0180
0000
0000
0780
1FE0
3870
7838
7038
F038
FFF8
FFF8
F000
F000
F000
7808
7C18
3FF0
1FE0
ENDCHAR
STARTCHAR uni0451
ENCODING 1105
SWIDTH 515 0
DWIDTH 15 0
BBX 13 21 1 0
BITMAP
3C70
3C78
3C70
0000
0000
0000
0780
1FE0
3870
7838
7038
F038
FFF8
FFF8
F000
F000
F000
7808
7C18
3FF0
1FE0
ENDCHAR
STARTCHAR uni0452
ENCODING 1106
SWIDTH 559 0
DWIDTH 17 0
BBX 15 27 1 -5
BITMAP
1C00
FC00
FC00
3C00
3C00
FFE0
3800
3800
38F8
3BFC
3F7C
3C1E
3C1E
3C1E
3C1E
3C1E
3C1E
3C1E
3C1C
3C1C
7C1C
FE3C
0038
0038
0030
0070
0060
ENDCHAR
STARTCHAR uni0453
ENCODING 1107
SWIDTH 453 0
DWIDTH 14 0
BBX 12 23 1 0
BITMAP
00E0
00E0
01C0
0380
0300
0600
0000
0000
0000
FFF0
3C70
3C30
3C30
3C30
3C00
3C00
3C00
3C00
3C00
3C00
3C00
7C00
FF00
ENDCHAR
STARTCHAR uni0454
ENCODING 1108
SWIDTH 500 0
DWIDTH 15 0
BBX 13 15 1 0
BITMAP
03C0
1FF0
3830
7830
7030
F000
F000
FFE0
F000
F000
F000
7808
7C18
3FF0
1FE0
ENDCHAR
STARTCHAR uni0455
ENCODING 1109
SWIDTH 444 0
DWIDTH 13 0
BBX 11 15 1 0
BITMAP
0F00
3FE0
70C0
60C0
F0C0
F800
7F00
7FC0
1FE0
07E0
01E0
C0E0
E0E0
E1C0
7F80
ENDCHAR
STARTCHAR uni0456
ENCODING 1110
SWIDTH 307 0
DWIDTH 9 0
BBX 7 22 1 0
BITMAP
38
3C
7C
3C
00
00
00
0C
7C
FC
3C
3C
3C
3C
3C
3C
3C
3C
3C
3C
7C
FE
ENDCHAR
STARTCHAR uni0457
ENCODING 1111
SWIDTH 307 0
DWIDTH 9 0
BBX 10 21 0 0
BITMAP
F380
F7C0
F380
0000
0000
0000
0600
3E00
7E00
1E00
1E00
1E00
1E00
1E00
1E00
1E00
1E00
1E00
1E00
3E00
7F00
ENDCHAR
STARTCHAR uni0458
ENCODING 1112
SWIDTH 292 0
DWIDTH 9 0
BBX 10 29 -3 -7
BITMAP
0380
03C0
07C0
03C0
0000
0000
0000
00C0
07C0
0FC0
03C0
0380
0380
0380
0380
0380
0380
0380
0380
0380
0380
0380
0380
0380
0380
0380
F300
FF00
7C00
ENDCHAR
STARTCHAR uni0459
ENCODING 1113
SWIDTH 771 0
DWIDTH 23 0
BBX 22 14 0 0
BITMAP
0FFF80
031E00
031E00
031E00
031E00
021FE0
021FF8
021E3C
061E1C
061E1C
041E1C
7C1E3C
F83E78
787FE0
ENDCHAR
STARTCHAR uni045A
ENCODING 1114
SWIDTH 830 0
DWIDTH 25 0
BBX 23 14 1 0
BITMAP
FF7F80
3C1E00
3C1E00
3C1E00
3C1E00
3FFFF0
3FFFFC
3C1E1E
3C1E0E
3C1E0E
3C1E0E
3C1E1E
7C1E3C
FF7FF0
ENDCHAR
STARTCHAR uni045B
ENCODING 1115
SWIDTH 609 0
DWIDTH 18 0
BBX 16 22 1 0
BITMAP
1C00
FC00
F800
3800
3800
FFC0
3800
3800
38F8
3BFC
3FFC
3C1C
381E
381E
381E
381E
381E
381E
381E
381E
7C3E
FE7F
ENDCHAR
STARTCHAR uni045C
ENCODING 1116
SWIDTH 569 0
DWIDTH 17 0
BBX 16 23 1 0
BITMAP
0030
0078
0070
00E0
01C0
0180
0000
0000
0004
FF1E
3C1E
3C3C
3C20
3C60
3C40
3F80
3DE0
3C70
3C38
3C38
3C3C
7C3C
FF1F
ENDCHAR
STARTCHAR uni045D
ENCODING 1117
SWIDTH 650 0
DWIDTH 20 0
BBX 17 23 1 0
BITMAP
060000
0F0000
070000
038000
018000
00C000
000000
000000
000000
FF3F80
380F00
380E00
381E00
383E00
386E00
38CE00
398E00
3B0E00
3E0E00
3C0E00
380E00
7C1F00
FF3F80
ENDCHAR
STARTCHAR uni045E
ENCODING 1118
SWIDTH 523 0
DWIDTH 16 0
BBX 16 29 0 -7
BITMAP
0E1C
0E1C
0E1C
0C0C
07F8
0000
0000
0000
FF3F
3C0C
3C08
1C18
1E18
1E10
0E30
0F30
0720
07E0
07C0
03C0
03C0
0180
0180
0100
0100
0300
F600
FC00
7800
ENDCHAR
STARTCHAR uni045F
ENCODING 1119
SWIDTH 633 0
DWIDTH 19 0
BBX 17 19 1 -5
BITMAP
FE7F80
3C1E00
3C1E00
3C1E00
3C1E00
3C1E00
3C1E00
3C1E00
3C1E00
3C1E00
3C1E00
3C1E00
7C1F00
FFFF80
01C000
01C000
01C000
01C000
008000
ENDCHAR
STARTCHAR uni0462
ENCODING 1122
SWIDTH 725 0
DWIDTH 22 0
BBX 20 22 1 0
BITMAP
1FF800
1FF800
03C000
03C000
03C000
FFFF80
C3C180
C3C180
C3C180
C3C040
03C000
03FF80
03FFC0
03C1E0
03C0F0
03C0F0
03C0F0
03C0F0
03C0F0
03C1E0
0FFFC0
1FFF00
ENDCHAR
STARTCHAR uni0463
ENCODING 1123
SWIDTH 618 0
DWIDTH 19 0
BBX 17 21 1 0
BITMAP
008000
0F8000
1F8000
078000
078000
078000
FFFE00
FFFE00
C78600
C78600
878600
078000
07F800
07FE00
078700
078780
078780
078780
078700
0F9F00
1FFC00
ENDCHAR
STARTCHAR uni0472
ENCODING 1138
SWIDTH 704 0
DWIDTH 21 0
BBX 19 21 1 -1
BITMAP
07FC00
0F1F00
1C0780
3C0380
7803C0
7803C0
7801E0
F001E0
F001E0
FFFFE0
FFFFE0
F001E0
F001E0
7801E0
7803C0
7803C0
380380
1C0780
0F0F00
07FC00
004000
ENDCHAR
STARTCHAR uni0473
ENCODING 1139
SWIDTH 557 0
DWIDTH 17 0
BBX 15 15 1 0
BITMAP
07C0
1FF0
3878
783C
703C
F01C
F01E
FFFE
F01E
F01C
F01C
703C
7838
3C78
1FE0
ENDCHAR
STARTCHAR uni0474
ENCODING 1140
SWIDTH 686 0
DWIDTH 21 0
BBX 21 20 0 0
BITMAP
FF80F8
FF80F8
1E01F8
1E01A0
1E0300
0F0300
0F0200
0F0600
078600
078600
03CC00
03CC00
03CC00
01E800
01F800
01F800
00F000
00F000
00F000
006000
ENDCHAR
STARTCHAR uni0475
ENCODING 1141
SWIDTH 549 0
DWIDTH 16 0
BBX 17 15 0 0
BITMAP
000300
FF0780
3C0F80
3C1A00
3C1800
1E1000
1E3000
0E2000
0F2000
076000
07C000
07C000
03C000
038000
018000
ENDCHAR
STARTCHAR uni0490
ENCODING 1168
SWIDTH 567 0
DWIDTH 17 0
BBX 15 24 1 0
BITMAP
0006
0006
0006
000E
FFFE
FFFE
1E00
1E00
1E00
1E00
1E00
1E00
1E00
1E00
1E00
1E00
1E00
1E00
1E00
1E00
1E00
1E00
7F80
FF80
ENDCHAR
STARTCHAR uni0491
ENCODING 1169
SWIDTH 456 0
DWIDTH 14 0
BBX 12 18 1 0
BITMAP
0030
0030
0030
0070
FFF0
3C00
3C00
3C00
3C00
3C00
3C00
3C00
3C00
3C00
3C00
3C00
7C00
FF00
ENDCHAR
STARTCHAR uni0492
ENCODING 1170
SWIDTH 567 0
DWIDTH 17 0
BBX 15 20 1 0
BITMAP
FFFE
FFFE
1E06
1E06
1E06
1E06
1E00
1E00
1E00
FFE0
FFE0
1E00
1E00
1E00
1E00
1E00
1E00
1E00
7F80
FF80
ENDCHAR
STARTCHAR uni0493
ENCODING 1171
SWIDTH 459 0
DWIDTH 14 0
BBX 12 14 1 0
BITMAP
FFF0
3C70
3C30
3C30
3C30
3C00
FF80
3C00
3C00
3C00
3C00
3C00
7C00
FF00
ENDCHAR
STARTCHAR uni0496
ENCODING 1174
SWIDTH 977 0
DWIDTH 29 0
BBX 29 26 0 -6
BITMAP
783FE1E0
7C3FE1E0
7C0F03E0
160F0680
060F0600
030F0400
030F0C00
018F0C00
01CF1800
007FF000
01FFFC00
078F1E00
070F0F00
0F0F0F00
0F0F0700
0F0F0780
1E0F0780
1E0F0780
7E1FC3F0
FC3FE3F8
00000038
00000038
00000038
00000038
00000038
00000018
ENDCHAR
STARTCHAR uni0497
ENCODING 1175
SWIDTH 824 0
DWIDTH 25 0
BBX 24 20 0 -5
BITMAP
30000C
78FF1E
7C3C3E
3C3C3C
063C60
063C40
033CC0
01FF80
07BDE0
0E3C70
1C3C78
1C3C38
1C3C38
3C3C3C
F8FF1F
000007
000003
000003
000003
000003
ENDCHAR
STARTCHAR uni0498
ENCODING 1176
SWIDTH 555 0
DWIDTH 17 0
BBX 15 27 1 -7
BITMAP
3FE0
70F8
7078
703C
703C
003C
003C
0038
00F0
0780
07F0
007C
003C
003E
003E
E03E
E03C
F03C
70F8
3FE0
0100
0180
00C0
00C0
00C0
07C0
0700
ENDCHAR
STARTCHAR uni0499
ENCODING 1177
SWIDTH 449 0
DWIDTH 13 0
BBX 12 22 1 -7
BITMAP
1F00
7FC0
60E0
60E0
60E0
00E0
03C0
0F80
01E0
00E0
00F0
E0F0
E0E0
71E0
3F80
0600
0300
0300
0180
0380
1F00
0E00
ENDCHAR
STARTCHAR uni049A
ENCODING 1178
SWIDTH 709 0
DWIDTH 21 0
BBX 20 26 1 -6
BITMAP
FF83C0
FF87C0
1E07C0
1E0D00
1E0C00
1E0800
1E1800
1E1000
1E3000
1FE000
1FF800
1E3C00
1E1E00
1E1E00
1E1E00
1E0F00
1E0F00
1E0F00
7F07E0
FF87F0
000070
000070
000070
000070
000070
000030
ENDCHAR
STARTCHAR uni049B
ENCODING 1179
SWIDTH 600 0
DWIDTH 18 0
BBX 16 20 1 -5
BITMAP
0004
FF1E
3C1E
3C3C
3C20
3C60
3C40
3F80
3DE0
3C70
3C38
3C38
3C3C
7C3C
FF1F
0003
0003
0003
0003
0003
ENDCHAR
STARTCHAR uni04A0
ENCODING 1184
SWIDTH 777 0
DWIDTH 23 0
BBX 22 20 1 0
BITMAP
FFF078
FFF078
C3C0F8
C3C1A0
C3C180
C3C100
03C300
03C200
03C600
03FC00
03FF00
03C780
03C3C0
03C3C0
03C1C0
03C1E0
03C1E0
03C1E0
0FF0F8
1FF0FC
ENDCHAR
STARTCHAR uni04A1
ENCODING 1185
SWIDTH 678 0
DWIDTH 20 0
BBX 19 15 1 0
BITMAP
0000C0
FFE1E0
C383E0
C383C0
C38600
C38600
038C00
03F800
039E00
038700
038700
038780
038380
07C3C0
0FE1E0
ENDCHAR
STARTCHAR uni04A2
ENCODING 1186
SWIDTH 786 0
DWIDTH 24 0
BBX 22 26 1 -6
BITMAP
FF8FF8
FF8FF8
1E01E0
1E01E0
1E01E0
1E01E0
1E01E0
1E01E0
1E01E0
1FFFE0
1FFFE0
1E01E0
1E01E0
1E01E0
1E01E0
1E01E0
1E01E0
1E01E0
7F07F8
FF8FFC
00001C
00001C
00001C
00001C
00001C
00000C
ENDCHAR
STARTCHAR uni04A3
ENCODING 1187
SWIDTH 652 0
DWIDTH 20 0
BBX 18 19 1 -5
BITMAP
FF3F80
3C0E00
3C0E00
3C0E00
3C0E00
3C0E00
3FFE00
3C0E00
3C0E00
3C0E00
3C0E00
3C0E00
7C1F00
FF3FC0
0001C0
0001C0
0001C0
0000C0
000080
ENDCHAR
STARTCHAR uni04AA
ENCODING 1194
SWIDTH 627 0
DWIDTH 19 0
BBX 17 27 1 -7
BITMAP
03FE00
0F8700
1E0300
3C0380
3C0380
780380
780000
F80000
F80000
F00000
F00000
F80000
F80000
780000
780000
7C0180
3C0380
1E0380
0F8780
03FF00
00E000
006000
006000
003000
007000
03E000
01C000
ENDCHAR
STARTCHAR uni04AB
ENCODING 1195
SWIDTH 500 0
DWIDTH 15 0
BBX 13 22 1 -7
BITMAP
07C0
1FE0
3C70
7878
7038
F030
F000
F000
F000
F000
F000
7808
7C38
3FF0
1FE0
0300
0180
0180
01C0
01C0
0F80
0700
ENDCHAR
STARTCHAR uni04AE
ENCODING 1198
SWIDTH 629 0
DWIDTH 19 0
BBX 19 20 0 0
BITMAP
FF8FE0
FF8FE0
1E0300
1F0200
0F0600
0F8600
078C00
078C00
03D800
03D800
01F000
01F000
00E000
00E000
00E000
00E000
00E000
01E000
03FC00
07FC00
ENDCHAR
STARTCHAR uni04AF
ENCODING 1199
SWIDTH 522 0
DWIDTH 16 0
BBX 15 21 0 -7
BITMAP
FF3E
780C
3C08
3C18
1C18
1E10
1E30
0E30
0F20
0F60
0760
07C0
03C0
03C0
0380
0380
0380
03C0
03C0
07E0
0FF0
ENDCHAR
STARTCHAR uni04B0
ENCODING 1200
SWIDTH 629 0
DWIDTH 19 0
BBX 19 20 0 0
BITMAP
FF8FE0
FF8FE0
1E0300
1F0200
0F0600
0F8600
078C00
078C00
03D800
03D800
01F000
1FFF00
1FFF00
00E000
00E000
00E000
00E000
01E000
03FC00
07FC00
ENDCHAR
STARTCHAR uni04B1
ENCODING 1201
SWIDTH 522 0
DWIDTH 16 0
BBX 15 21 0 -7
BITMAP
FF3E
780C
3C08
3C18
1C18
1E10
1E30
0E30
0F20
0F60
0760
07C0
03C0
3FFC
0380
0380
0380
03C0
03C0
07E0
0FF0
ENDCHAR
STARTCHAR uni04B2
ENCODING 1202
SWIDTH 680 0
DWIDTH 20 0
BBX 20 26 0 -6
BITMAP
FF8FC0
FF8FC0
1F0300
0F0600
0F8C00
078C00
03D800
03D000
01F000
01F000
00F000
01F800
017800
033C00
063E00
061E00
0C0F00
180F00
7C1FE0
FE3FF0
000070
000070
000070
000070
000030
000030
ENDCHAR
STARTCHAR uni04B3
ENCODING 1203
SWIDTH 569 0
DWIDTH 17 0
BBX 16 19 0 -5
BITMAP
FF3E
1E18
1E18
0F30
0FE0
07C0
03C0
03E0
07E0
04F0
0CF8
1878
383E
FCFF
0003
0003
0003
0003
0001
ENDCHAR
STARTCHAR uni04B6
ENCODING 1206
SWIDTH 716 0
DWIDTH 21 0
BBX 20 26 1 -6
BITMAP
FF3FE0
FF3FE0
3C0780
3C0780
3C0780
3C0780
3C0700
3C0700
3C0700
3E0700
1FFF00
0FFF00
000700
000700
000780
000780
000780
000780
001FE0
003FF0
000070
000070
000070
000070
000070
000070
ENDCHAR
STARTCHAR uni04B7
ENCODING 1207
SWIDTH 582 0
DWIDTH 17 0
BBX 17 19 0 -5
BITMAP
FE7F00
383C00
383C00
383C00
383C00
3C3C00
3E3C00
1FFC00
033C00
003C00
003C00
003C00
003E00
007F80
000380
000300
000300
000300
000100
ENDCHAR
STARTCHAR uni04BA
ENCODING 1210
SWIDTH 712 0
DWIDTH 21 0
BBX 20 20 1 0
BITMAP
FF8000
FF8000
1E0000
1E0000
1E0000
1E0000
1E0000
1E0000
1FFC00
1FFF00
1E0F80
1E0780
1E0780
1E0380
1E0380
1E0380
1E0380
1E0780
7F0FE0
FF9FF0
ENDCHAR
STARTCHAR uni04BB
ENCODING 1211
SWIDTH 609 0
DWIDTH 18 0
BBX 16 22 1 0
BITMAP
1C00
FC00
F800
3800
3800
3800
3800
3870
39FC
3BFC
3E1C
381E
381E
381E
381E
381E
381E
381E
381E
381E
7C3E
FE7F
ENDCHAR
STARTCHAR uni04C0
ENCODING 1216
SWIDTH 379 0
DWIDTH 11 0
BBX 9 20 1 0
BITMAP
FF80
FF80
1E00
1E00
1E00
1E00
1E00
1E00
1E00
1E00
1E00
1E00
1E00
1E00
1E00
1E00
1E00
1E00
7F00
FF80
ENDCHAR
STARTCHAR uni04C1
ENCODING 1217
SWIDTH 946 0
DWIDTH 28 0
BBX 28 26 0 0
BITMAP
0070E000
0070F000
00706000
003FE000
000F0000
00000000
783FE1E0
7C3FE1E0
7C0F03E0
160F0680
060F0600
030F0400
030F0C00
018F0C00
01CF1800
007FF000
01FFFC00
078F1E00
070F0F00
0F0F0F00
0F0F0700
0F0F0780
1E0F0780
1E0F0780
7E1FC3E0
FC3FE3F0
ENDCHAR
STARTCHAR uni04C2
ENCODING 1218
SWIDTH 793 0
DWIDTH 24 0
BBX 23 22 0 0
BITMAP
01C380
01C380
01C380
018180
00FF00
000000
000000
30000C
78FF1E
7C3C3E
3C3C3C
063C60
063C40
033CC0
01FF80
07BDE0
0E3C70
1C3C78
1C3C38
1C3C38
3C3C3C
F8FF1E
ENDCHAR
STARTCHAR uni04CF
ENCODING 1231
SWIDTH 310 0
DWIDTH 9 0
BBX 8 22 1 0
BITMAP
FF
FF
3C
38
38
38
38
38
38
38
38
38
38
38
38
38
38
38
38
3C
7C
FF
ENDCHAR
STARTCHAR uni04D0
ENCODING 1232
SWIDTH 669 0
DWIDTH 20 0
BBX 20 26 0 0
BITMAP
070E00
070F00
060600
03FC00
00F000
000000
007000
00F000
00F000
00F800
01F800
01F800
013C00
033C00
033C00
021E00
061E00
061E00
07FF00
0FFF00
080F00
080780
180780
180780
7C0FE0
FE1FF0
ENDCHAR
STARTCHAR uni04D1
ENCODING 1233
SWIDTH 520 0
DWIDTH 16 0
BBX 15 22 1 0
BITMAP
3870
3870
3870
3030
1FE0
0000
0000
0F80
3FE0
70E0
70F0
70F0
20F0
01F0
0FF0
38F0
70F0
F0F0
F0F0
F0F0
7F7E
7E7C
ENDCHAR
STARTCHAR uni04D4
ENCODING 1236
SWIDTH 907 0
DWIDTH 27 0
BBX 26 20 0 0
BITMAP
00FFFFC0
00FFFFC0
001781C0
003781C0
002781C0
00678000
00478600
00C78600
01878600
0187FE00
0307FE00
03FF8600
07FF8600
06078000
0C078000
0C0780C0
180780C0
180780C0
7C1FFFC0
FE1FFFC0
ENDCHAR
STARTCHAR uni04D5
ENCODING 1237
SWIDTH 786 0
DWIDTH 24 0
BBX 21 15 1 0
BITMAP
0F0380
3FEFE0
70F870
70F838
70F038
20F038
01FFF8
0FFFF8
38F000
70F000
F07800
F07808
F0FC18
7FBFF0
7E0FE0
ENDCHAR
STARTCHAR uni04D6
ENCODING 1238
SWIDTH 599 0
DWIDTH 18 0
BBX 16 26 1 0
BITMAP
1C1C
1E1C
1C1C
0FF8
01E0
0000
FFFE
FFFE
1E06
1E06
1E06
1E01
1E10
1E10
1E10
1FF0
1FF0
1E10
1E10
1E00
1E00
1E03
1E03
1E03
7FFF
FFFF
ENDCHAR
STARTCHAR uni04D7
ENCODING 1239
SWIDTH 515 0
DWIDTH 15 0
BBX 13 22 1 0
BITMAP
3870
3C78
3870
1030
0FE0
0000
0000
0780
1FE0
3870
7838
7038
F038
FFF8
FFF8
F000
F000
F000
7808
7C18
3FF0
1FE0
ENDCHAR
STARTCHAR uni04D8
ENCODING 1240
SWIDTH 666 0
DWIDTH 20 0
BBX 18 21 1 -1
BITMAP
1FF800
3C3C00
301E00
300F00
300780
700780
000780
0007C0
0007C0
FFFFC0
FFFFC0
F003C0
F007C0
F00780
F00780
780780
780F00
3C0E00
1E3C00
0FF800
008000
ENDCHAR
STARTCHAR uni04D9
ENCODING 1241
SWIDTH 522 0
DWIDTH 16 0
BBX 14 15 1 0
BITMAP
0F00
3FE0
7FF0
60F8
0078
0078
0038
FFFC
F838
F038
F038
7078
7070
38E0
1FC0
ENDCHAR
STARTCHAR uni04E2
ENCODING 1250
SWIDTH 788 0
DWIDTH 24 0
BBX 22 25 1 0
BITMAP
03FF00
03FF00
03FF00
000000
000000
FF87FC
FF87FC
1E01E0
1E01E0
1E03E0
1E07E0
1E07E0
1E0DE0
1E19E0
1E31E0
1E21E0
1E61E0
1EC1E0
1F81E0
1F01E0
1F01E0
1E01E0
1C01E0
7F07F8
FF87FC
ENDCHAR
STARTCHAR uni04E3
ENCODING 1251
SWIDTH 650 0
DWIDTH 20 0
BBX 17 20 1 0
BITMAP
07F800
07F800
000000
000000
000000
000000
FF3F80
380F00
380E00
381E00
383E00
386E00
38CE00
398E00
3B0E00
3E0E00
3C0E00
380E00
7C1F00
FF3F80
ENDCHAR
STARTCHAR uni04E6
ENCODING 1254
SWIDTH 704 0
DWIDTH 21 0
BBX 19 27 1 -1
BITMAP
060400
0F1E00
0F1E00
060E00
000000
000000
03FC00
0F1E00
1E0700
3C0780
3803C0
7803C0
7803C0
F803E0
F801E0
F001E0
F001E0
F801E0
F803E0
7803C0
7803C0
7803C0
3C0780
1E0700
0F1E00
07FC00
004000
ENDCHAR
STARTCHAR uni04E7
ENCODING 1255
SWIDTH 557 0
DWIDTH 17 0
BBX 15 21 1 0
BITMAP
3C70
3C78
3C70
0000
0000
0000
0780
1FF0
3878
7838
703C
F01C
F01C
F01E
F01E
F01C
F03C
703C
7838
3C70
0FE0
ENDCHAR
STARTCHAR uni04E8
ENCODING 1256
SWIDTH 704 0
DWIDTH 21 0
BBX 19 21 1 -1
BITMAP
07FC00
0F1F00
1C0780
3C0380
7803C0
7803C0
7801E0
F001E0
F001E0
FFFFE0
FFFFE0
F001E0
F001E0
7801E0
7803C0
7803C0
380380
1C0780
0F0F00
07FC00
004000
ENDCHAR
STARTCHAR uni04E9
ENCODING 1257
SWIDTH 557 0
DWIDTH 17 0
BBX 15 15 1 0
BITMAP
07C0
1FF0
3878
783C
703C
F01C
F01E
FFFE
F01E
F01C
F01C
703C
7838
3C78
1FE0
ENDCHAR
STARTCHAR uni04EE
ENCODING 1262
SWIDTH 667 0
DWIDTH 20 0
BBX 20 27 0 -2
BITMAP
01FF00
01FF00
01FF00
000000
000000
FF87F0
FF87F0
1E0180
1E0180
1F0100
0F0300
0F0200
078600
078600
038C00
03CC00
03C800
01F800
01F000
00F000
00E000
006000
004000
1EC000
1F8000
1F8000
0E0000
ENDCHAR
STARTCHAR uni04EF
ENCODING 1263
SWIDTH 523 0
DWIDTH 16 0
BBX 16 27 0 -7
BITMAP
0FF8
0FF8
0000
0000
0000
0000
FF3F
3C0C
3C08
1C18
1E18
1E10
0E30
0F30
0720
07E0
07C0
03C0
03C0
0180
0180
0100
0100
0300
F600
FC00
7800
ENDCHAR
STARTCHAR uni04F2
ENCODING 1266
SWIDTH 667 0
DWIDTH 20 0
BBX 20 29 0 -2
BITMAP
003100
007380
007300
00E700
00C600
008C00
000000
FF87F0
FF87F0
1E0180
1E0180
1F0100
0F0300
0F0200
078600
078600
038C00
03CC00
03C800
01F800
01F000
00F000
00E000
006000
004000
1EC000
1F8000
1F8000
0E0000
ENDCHAR
STARTCHAR uni04F3
ENCODING 1267
SWIDTH 523 0
DWIDTH 16 0
BBX 16 30 0 -7
BITMAP
00CE
01CE
01DC
0198
0318
0330
0000
0000
0000
FF3F
3C0C
3C08
1C18
1E18
1E10
0E30
0F30
0720
07E0
07C0
03C0
03C0
0180
0180
0100
0100
0300
F600
FC00
7800
ENDCHAR
STARTCHAR a.sups
ENCODING 7491
SWIDTH 353 0
DWIDTH 11 0
BBX 10 10 1 12
BITMAP
7E00
E700
C700
0700
3F00
E700
C700
C700
FFC0
6100
ENDCHAR
STARTCHAR b.sups
ENCODING 7495
SWIDTH 401 0
DWIDTH 12 0
BBX 11 15 0 12
BITMAP
1000
F000
3000
3000
3000
37C0
39E0
30E0
3060
3060
3060
30E0
30E0
7FC0
7300
ENDCHAR
STARTCHAR d.sups
ENCODING 7496
SWIDTH 389 0
DWIDTH 12 0
BBX 10 15 1 12
BITMAP
0080
0780
0180
0180
0180
3D80
7380
E180
C180
C180
C180
E180
E180
7FC0
3980
ENDCHAR
STARTCHAR e.sups
ENCODING 7497
SWIDTH 350 0
DWIDTH 11 0
BBX 9 10 1 12
BITMAP
3E00
6300
E380
C380
FF80
C000
E000
E180
7F00
1C00
ENDCHAR
STARTCHAR g.sups
ENCODING 7501
SWIDTH 360 0
DWIDTH 11 0
BBX 10 14 0 8
BITMAP
3FC0
7380
6180
6180
7300
3E00
2000
6000
7F80
3FC0
40C0
C0C0
6180
3F00
ENDCHAR
STARTCHAR k.sups
ENCODING 7503
SWIDTH 384 0
DWIDTH 12 0
BBX 11 14 0 13
BITMAP
1000
F000
3000
3000
3000
33E0
3180
3300
3600
3F00
3B00
3380
31C0
7CE0
ENDCHAR
STARTCHAR m.sups
ENCODING 7504
SWIDTH 613 0
DWIDTH 18 0
BBX 17 9 1 13
BITMAP
679E00
FFFE00
71C700
71C700
71C700
71C700
71C700
71C700
FBEF80
ENDCHAR
STARTCHAR o.sups
ENCODING 7506
SWIDTH 378 0
DWIDTH 11 0
BBX 10 10 1 12
BITMAP
3E00
6380
E180
C180
C1C0
C1C0
C180
E180
7300
1C00
ENDCHAR
STARTCHAR p.sups
ENCODING 7510
SWIDTH 402 0
DWIDTH 12 0
BBX 10 14 1 8
BITMAP
6F80
F1C0
71C0
70C0
70C0
70C0
70C0
71C0
7F80
7600
7000
7000
7000
F800
ENDCHAR
STARTCHAR t.sups
ENCODING 7511
SWIDTH 230 0
DWIDTH 7 0
BBX 7 13 0 12
BITMAP
30
30
30
FE
30
30
30
30
30
30
30
3E
18
ENDCHAR
STARTCHAR u.sups
ENCODING 7512
SWIDTH 401 0
DWIDTH 12 0
BBX 11 10 0 12
BITMAP
F1C0
30C0
30C0
30C0
30C0
30C0
30C0
31C0
3EE0
18E0
ENDCHAR
STARTCHAR v.sups
ENCODING 7515
SWIDTH 352 0
DWIDTH 11 0
BBX 10 10 0 12
BITMAP
F9C0
7080
3080
3900
1900
1F00
1E00
0E00
0C00
0400
ENDCHAR
STARTCHAR c.sups
ENCODING 7580
SWIDTH 333 0
DWIDTH 10 0
BBX 9 10 1 12
BITMAP
3E00
6300
E380
C000
C000
C000
E000
F180
7F00
1C00
ENDCHAR
STARTCHAR f.sups
ENCODING 7584
SWIDTH 232 0
DWIDTH 7 0
BBX 8 14 1 13
BITMAP
0F
37
30
60
60
FC
60
60
60
60
60
60
60
F8
ENDCHAR
STARTCHAR z.sups
ENCODING 7611
SWIDTH 313 0
DWIDTH 9 0
BBX 9 9 0 13
BITMAP
7F80
4300
4700
0E00
1C00
1800
3880
7180
FF80
ENDCHAR
STARTCHAR uni1E0C
ENCODING 7692
SWIDTH 707 0
DWIDTH 21 0
BBX 19 27 1 -7
BITMAP
FFF000
FFFE00
1E0F00
1E0780
1E03C0
1E03C0
1E03E0
1E01E0
1E01E0
1E01E0
1E01E0
1E01E0
1E01E0
1E03E0
1E03C0
1E03C0
1E0780
1E0F00
7FFE00
FFF000
000000
000000
00C000
01E000
01E000
01E000
004000
ENDCHAR
STARTCHAR uni1E0D
ENCODING 7693
SWIDTH 580 0
DWIDTH 17 0
BBX 16 29 1 -7
BITMAP
000C
00FC
00FC
003C
003C
003C
003C
073C
1FFC
3EFC
783C
783C
F03C
F03C
F03C
F03C
F03C
F03C
783C
783C
3FFC
1FBF
0000
0000
0080
03E0
03E0
03C0
0080
ENDCHAR
STARTCHAR uni1E0E
ENCODING 7694
SWIDTH 707 0
DWIDTH 21 0
BBX 19 25 1 -5
BITMAP
FFF000
FFFE00
1E0F00
1E0780
1E03C0
1E03C0
1E03E0
1E01E0
1E01E0
1E01E0
1E01E0
1E01E0
1E01E0
1E03E0
1E03C0
1E03C0
1E0780
1E0F00
7FFE00
FFF000
000000
000000
000000
07FC00
07FC00
ENDCHAR
STARTCHAR uni1E0F
ENCODING 7695
SWIDTH 580 0
DWIDTH 17 0
BBX 16 27 1 -5
BITMAP
000C
00FC
00FC
003C
003C
003C
003C
073C
1FFC
3EFC
783C
783C
F03C
F03C
F03C
F03C
F03C
F03C
783C
783C
3FFC
1FBF
0000
0000
0000
0FF8
0FF8
ENDCHAR
STARTCHAR uni1E20
ENCODING 7712
SWIDTH 678 0
DWIDTH 20 0
BBX 19 26 1 -1
BITMAP
03FE00
03FE00
03FE00
000000
000000
03FF00
0F8780
1E0380
3C0380
3C0380
780180
780000
F80000
F80000
F80000
F03FE0
F03FE0
F80780
780780
780780
7C0780
3C0780
1E0780
0F8780
03FF00
006000
ENDCHAR
STARTCHAR uni1E21
ENCODING 7713
SWIDTH 530 0
DWIDTH 16 0
BBX 14 27 1 -7
BITMAP
3FE0
3FE0
0000
0000
0000
0F84
3FFC
70FC
7070
F070
F070
7070
70F0
3DE0
3F80
2000
6000
7800
7FF8
7FFC
3FFC
601C
C01C
E01C
E038
7FF0
3FC0
ENDCHAR
STARTCHAR uni1E24
ENCODING 7716
SWIDTH 778 0
DWIDTH 23 0
BBX 21 27 1 -7
BITMAP
FF8FF8
FF8FF8
1E01E0
1E01E0
1E01E0
1E01E0
1E01E0
1E01E0
1E01E0
1FFFE0
1FFFE0
1E01E0
1E01E0
1E01E0
1E01E0
1E01E0
1E01E0
1E01E0
7F07F0
FF8FF8
000000
000000
003000
007800
00F800
007800
002000
ENDCHAR
STARTCHAR uni1E25
ENCODING 7717
SWIDTH 609 0
DWIDTH 18 0
BBX 16 29 1 -7
BITMAP
1C00
FC00
F800
3800
3800
3800
3800
3870
39FC
3BFC
3E1C
381E
381E
381E
381E
381E
381E
381E
381E
381E
7C3E
FE7F
0000
0000
0180
03C0
03C0
03C0
0080
ENDCHAR
STARTCHAR uni1E2A
ENCODING 7722
SWIDTH 778 0
DWIDTH 23 0
BBX 21 27 1 -7
BITMAP
FF8FF8
FF8FF8
1E01E0
1E01E0
1E01E0
1E01E0
1E01E0
1E01E0
1E01E0
1FFFE0
1FFFE0
1E01E0
1E01E0
1E01E0
1E01E0
1E01E0
1E01E0
1E01E0
7F07F0
FF8FF8
000000
000000
020200
030600
01CE00
01FC00
007800
ENDCHAR
STARTCHAR uni1E2B
ENCODING 7723
SWIDTH 609 0
DWIDTH 18 0
BBX 16 29 1 -7
BITMAP
1C00
FC00
F800
3800
3800
3800
3800
3870
39FC
3BFC
3E1C
381E
381E
381E
381E
381E
381E
381E
381E
381E
7C3E
FE7F
0000
0000
0818
0C18
0E70
07F0
03C0
ENDCHAR
STARTCHAR uni1E36
ENCODING 7734
SWIDTH 589 0
DWIDTH 18 0
BBX 16 27 1 -7
BITMAP
FF80
FF80
1E00
1E00
1E00
1E00
1E00
1E00
1E00
1E00
1E00
1E00
1E00
1E00
1E03
1E07
1E07
1E07
7FFE
FFFE
0000
0000
00C0
01E0
01E0
01E0
0080
ENDCHAR
STARTCHAR uni1E37
ENCODING 7735
SWIDTH 310 0
DWIDTH 9 0
BBX 8 29 1 -7
BITMAP
1C
FC
FC
3C
3C
38
38
38
38
38
38
38
38
38
38
38
38
38
3C
3C
7C
FF
00
00
18
3C
7C
3C
10
ENDCHAR
STARTCHAR uni1E38
ENCODING 7736
SWIDTH 589 0
DWIDTH 18 0
BBX 16 32 1 -7
BITMAP
FF80
FF80
FF80
0000
0000
FF80
FF80
1E00
1E00
1E00
1E00
1E00
1E00
1E00
1E00
1E00
1E00
1E00
1E00
1E03
1E07
1E07
1E07
7FFE
FFFE
0000
0000
00C0
01E0
01E0
01E0
0080
ENDCHAR
STARTCHAR uni1E39
ENCODING 7737
SWIDTH 310 0
DWIDTH 9 0
BBX 9 33 0 -7
BITMAP
FF80
FF80
0000
0000
0E00
7E00
7E00
1E00
1E00
1C00
1C00
1C00
1C00
1C00
1C00
1C00
1C00
1C00
1C00
1C00
1C00
1C00
1E00
1E00
3E00
7F80
0000
0000
0C00
1E00
3E00
1E00
0800
ENDCHAR
STARTCHAR uni1E3A
ENCODING 7738
SWIDTH 589 0
DWIDTH 18 0
BBX 16 25 1 -5
BITMAP
FF80
FF80
1E00
1E00
1E00
1E00
1E00
1E00
1E00
1E00
1E00
1E00
1E00
1E00
1E03
1E07
1E07
1E07
7FFE
FFFE
0000
0000
0000
0FF8
0FF8
ENDCHAR
STARTCHAR uni1E3B
ENCODING 7739
SWIDTH 310 0
DWIDTH 9 0
BBX 9 27 0 -5
BITMAP
0E00
7E00
7E00
1E00
1E00
1C00
1C00
1C00
1C00
1C00
1C00
1C00
1C00
1C00
1C00
1C00
1C00
1C00
1E00
1E00
3E00
7F80
0000
0000
0000
FF80
FF80
ENDCHAR
STARTCHAR uni1E3E
ENCODING 7742
SWIDTH 899 0
DWIDTH 27 0
BBX 25 26 1 0
BITMAP
00038000
00078000
000F0000
001C0000
00100000
00000000
FE003F80
FE003F80
1F007C00
1F007C00
1F00FC00
1780FC00
1780BC00
13C1BC00
13C1BC00
13C13C00
11E33C00
11E33C00
10F63C00
10F63C00
10F63C00
107C3C00
107C3C00
10383C00
FC387F00
FE38FF80
ENDCHAR
STARTCHAR uni1E3F
ENCODING 7743
SWIDTH 904 0
DWIDTH 27 0
BBX 25 23 1 0
BITMAP
00038000
00038000
00078000
000F0000
000C0000
00180000
00000000
00000000
08703800
79FCFE00
FBFDFE00
3E1F1E00
3C1E0E00
3C1E0F00
3C1E0F00
3C1E0F00
3C1E0F00
3C1E0F00
3C1E0F00
3C1E0F00
3C1E0F00
7C3E1F00
FE7F3F80
ENDCHAR
STARTCHAR uni1E42
ENCODING 7746
SWIDTH 899 0
DWIDTH 27 0
BBX 25 27 1 -7
BITMAP
FE003F80
FE003F80
1F007C00
1F007C00
1F00FC00
1780FC00
1780BC00
13C1BC00
13C1BC00
13C13C00
11E33C00
11E33C00
10F63C00
10F63C00
10F63C00
107C3C00
107C3C00
10383C00
FC387F00
FE38FF80
00000000
00000000
00100000
007C0000
007C0000
007C0000
00100000
ENDCHAR
STARTCHAR uni1E43
ENCODING 7747
SWIDTH 904 0
DWIDTH 27 0
BBX 25 22 1 -7
BITMAP
08703800
79FCFE00
FBFDFE00
3E1F1E00
3C1E0E00
3C1E0F00
3C1E0F00
3C1E0F00
3C1E0F00
3C1E0F00
3C1E0F00
3C1E0F00
3C1E0F00
7C3E1F00
FE7F3F80
00000000
00000000
000C0000
001E0000
001E0000
001E0000
00080000
ENDCHAR
STARTCHAR uni1E44
ENCODING 7748
SWIDTH 731 0
DWIDTH 22 0
BBX 20 26 1 0
BITMAP
00E000
00F000
00F000
00F000
000000
000000
FC0FF0
FE0FF0
1F0080
1F0080
1F8080
17C080
13C080
13E080
11F080
10F880
107880
107C80
103E80
101F80
100F80
100F80
100780
100380
7E0380
FF0180
ENDCHAR
STARTCHAR uni1E45
ENCODING 7749
SWIDTH 611 0
DWIDTH 18 0
BBX 17 22 1 0
BITMAP
008000
03E000
03E000
03C000
008000
000000
000000
087000
79FC00
FBFC00
3E1C00
3C1E00
3C1E00
3C1E00
3C1E00
3C1E00
3C1E00
3C1E00
3C1E00
3C1E00
7C3E00
FE7F80
ENDCHAR
STARTCHAR uni1E46
ENCODING 7750
SWIDTH 731 0
DWIDTH 22 0
BBX 20 27 1 -7
BITMAP
FC0FF0
FE0FF0
1F0080
1F0080
1F8080
17C080
13C080
13E080
11F080
10F880
107880
107C80
103E80
101F80
100F80
100F80
100780
100380
7E0380
FF0180
000000
000000
006000
00F000
00F800
00F000
002000
ENDCHAR
STARTCHAR uni1E47
ENCODING 7751
SWIDTH 611 0
DWIDTH 18 0
BBX 17 22 1 -7
BITMAP
087000
79FC00
FBFC00
3E1C00
3C1E00
3C1E00
3C1E00
3C1E00
3C1E00
3C1E00
3C1E00
3C1E00
3C1E00
7C3E00
FE7F80
000000
000000
018000
03C000
03E000
03C000
008000
ENDCHAR
STARTCHAR uni1E48
ENCODING 7752
SWIDTH 731 0
DWIDTH 22 0
BBX 20 25 1 -5
BITMAP
FC0FF0
FE0FF0
1F0080
1F0080
1F8080
17C080
13C080
13E080
11F080
10F880
107880
107C80
103E80
101F80
100F80
100F80
100780
100380
7E0380
FF0180
000000
000000
000000
03FC00
03FC00
ENDCHAR
STARTCHAR uni1E49
ENCODING 7753
SWIDTH 611 0
DWIDTH 18 0
BBX 17 20 1 -5
BITMAP
087000
79FC00
FBFC00
3E1C00
3C1E00
3C1E00
3C1E00
3C1E00
3C1E00
3C1E00
3C1E00
3C1E00
3C1E00
7C3E00
FE7F80
000000
000000
000000
0FF800
0FF800
ENDCHAR
STARTCHAR uni1E5A
ENCODING 7770
SWIDTH 666 0
DWIDTH 20 0
BBX 19 27 1 -7
BITMAP
FFF000
FFFE00
1E0F00
1E0F00
1E0700
1E0780
1E0700
1E0F00
1E1E00
1FFC00
1FF800
1E3C00
1E1E00
1E1E00
1E0E00
1E0F00
1E0F00
1E0F00
7F0FC0
FF87E0
000000
000000
006000
00F000
00F000
00F000
004000
ENDCHAR
STARTCHAR uni1E5B
ENCODING 7771
SWIDTH 443 0
DWIDTH 13 0
BBX 12 22 1 -7
BITMAP
0860
79F0
FBF0
3E70
3C00
3C00
3C00
3C00
3C00
3C00
3C00
3C00
3C00
7E00
FF00
0000
0000
1800
3C00
3C00
3C00
1800
ENDCHAR
STARTCHAR uni1E5C
ENCODING 7772
SWIDTH 666 0
DWIDTH 20 0
BBX 19 32 1 -7
BITMAP
0FFC00
0FFC00
0FFC00
000000
000000
FFF000
FFFE00
1E0F00
1E0F00
1E0700
1E0780
1E0700
1E0F00
1E1E00
1FFC00
1FF800
1E3C00
1E1E00
1E1E00
1E0E00
1E0F00
1E0F00
1E0F00
7F0FC0
FF87E0
000000
000000
006000
00F000
00F000
00F000
004000
ENDCHAR
STARTCHAR uni1E5D
ENCODING 7773
SWIDTH 443 0
DWIDTH 13 0
BBX 12 27 1 -7
BITMAP
3FE0
3FE0
0000
0000
0000
0860
79F0
FBF0
3E70
3C00
3C00
3C00
3C00
3C00
3C00
3C00
3C00
3C00
7E00
FF00
0000
0000
1800
3C00
3C00
3C00
1800
ENDCHAR
STARTCHAR uni1E5E
ENCODING 7774
SWIDTH 666 0
DWIDTH 20 0
BBX 19 25 1 -5
BITMAP
FFF000
FFFE00
1E0F00
1E0F00
1E0700
1E0780
1E0700
1E0F00
1E1E00
1FFC00
1FF800
1E3C00
1E1E00
1E1E00
1E0E00
1E0F00
1E0F00
1E0F00
7F0FC0
FF87E0
000000
000000
000000
07FC00
07FC00
ENDCHAR
STARTCHAR uni1E5F
ENCODING 7775
SWIDTH 443 0
DWIDTH 13 0
BBX 12 20 1 -5
BITMAP
0860
79F0
FBF0
3E70
3C00
3C00
3C00
3C00
3C00
3C00
3C00
3C00
3C00
7E00
FF00
0000
0000
0000
FF00
FF00
ENDCHAR
STARTCHAR uni1E60
ENCODING 7776
SWIDTH 526 0
DWIDTH 16 0
BBX 14 27 1 -1
BITMAP
0380
07C0
07C0
0380
0000
0000
1FF0
3C78
7038
7038
F038
F000
7800
7C00
7F80
3FE0
0FF0
03F8
00F8
007C
003C
E03C
E038
E038
F0F0
7FE0
0200
ENDCHAR
STARTCHAR uni1E61
ENCODING 7777
SWIDTH 444 0
DWIDTH 13 0
BBX 11 22 1 0
BITMAP
0600
0F00
0F00
0F00
0600
0000
0000
0F00
3FE0
70C0
60C0
F0C0
F800
7F00
7FC0
1FE0
07E0
01E0
C0E0
E0E0
E1C0
7F80
ENDCHAR
STARTCHAR uni1E62
ENCODING 7778
SWIDTH 526 0
DWIDTH 16 0
BBX 14 27 1 -7
BITMAP
1FF0
3C78
7038
7038
F038
F000
7800
7C00
7F80
3FE0
0FF0
03F8
00F8
007C
003C
E03C
E038
E038
F0F0
7FE0
0200
0000
0300
0780
0780
0780
0300
ENDCHAR
STARTCHAR uni1E63
ENCODING 7779
SWIDTH 444 0
DWIDTH 13 0
BBX 11 22 1 -7
BITMAP
0F00
3FE0
70C0
60C0
F0C0
F800
7F00
7FC0
1FE0
07E0
01E0
C0E0
E0E0
E1C0
7F80
0000
0000
0600
0F00
0F00
0F00
0400
ENDCHAR
STARTCHAR uni1E6C
ENCODING 7788
SWIDTH 618 0
DWIDTH 19 0
BBX 17 27 1 -7
BITMAP
FFFF80
FFFF80
C3C380
C3C180
C3C180
C3C180
03C000
03C000
03C000
03C000
03C000
03C000
03C000
03C000
03C000
03C000
03C000
03C000
0FF000
1FF800
000000
000000
018000
03C000
03E000
03C000
008000
ENDCHAR
STARTCHAR uni1E6D
ENCODING 7789
SWIDTH 341 0
DWIDTH 10 0
BBX 10 26 0 -7
BITMAP
0C00
0C00
1C00
1C00
1C00
FFC0
1C00
1C00
1C00
1C00
1C00
1C00
1C00
3C00
3C00
3C00
1C00
1FC0
1F80
0000
0000
0200
0F80
0F80
0F00
0200
ENDCHAR
STARTCHAR uni1E6E
ENCODING 7790
SWIDTH 618 0
DWIDTH 19 0
BBX 17 25 1 -5
BITMAP
FFFF80
FFFF80
C3C380
C3C180
C3C180
C3C180
03C000
03C000
03C000
03C000
03C000
03C000
03C000
03C000
03C000
03C000
03C000
03C000
0FF000
1FF800
000000
000000
000000
0FF800
0FF800
ENDCHAR
STARTCHAR uni1E6F
ENCODING 7791
SWIDTH 341 0
DWIDTH 10 0
BBX 11 24 0 -5
BITMAP
0C00
0C00
1C00
1C00
1C00
FFC0
1C00
1C00
1C00
1C00
1C00
1C00
1C00
3C00
3C00
3C00
1C00
1FC0
1F80
0000
0000
0000
3FE0
3FE0
ENDCHAR
STARTCHAR Wgrave
ENCODING 7808
SWIDTH 971 0
DWIDTH 29 0
BBX 29 26 0 0
BITMAP
001C0000
001E0000
000F0000
00038000
00008000
00000000
FF9FF3F8
FF9FF3F8
1E038040
1E03C0C0
1E07C0C0
0F07C0C0
0F05E080
0F0DE180
0F0DE180
0788F100
0798F300
0798F300
03907300
03F07A00
03F07E00
01E03E00
01E03C00
01E03C00
01E01C00
00C01C00
ENDCHAR
STARTCHAR wgrave
ENCODING 7809
SWIDTH 776 0
DWIDTH 23 0
BBX 23 23 0 0
BITMAP
00C000
00E000
00F000
007000
003800
000C00
000000
000000
000000
FE7F3E
381C18
3C3C18
3C3E18
1C2E30
1E6E30
1E6F30
0E4720
0FC7E0
07C3E0
0783C0
0783C0
030180
030180
ENDCHAR
STARTCHAR Wacute
ENCODING 7810
SWIDTH 971 0
DWIDTH 29 0
BBX 29 26 0 0
BITMAP
00007800
0000F000
0001E000
00038000
00020000
00000000
FF9FF3F8
FF9FF3F8
1E038040
1E03C0C0
1E07C0C0
0F07C0C0
0F05E080
0F0DE180
0F0DE180
0788F100
0798F300
0798F300
03907300
03F07A00
03F07E00
01E03E00
01E03C00
01E03C00
01E01C00
00C01C00
ENDCHAR
STARTCHAR wacute
ENCODING 7811
SWIDTH 776 0
DWIDTH 23 0
BBX 23 23 0 0
BITMAP
000300
000780
000700
000E00
001C00
001800
000000
000000
000000
FE7F3E
381C18
3C3C18
3C3E18
1C2E30
1E6E30
1E6F30
0E4720
0FC7E0
07C3E0
0783C0
0783C0
030180
030180
ENDCHAR
STARTCHAR Wdieresis
ENCODING 7812
SWIDTH 971 0
DWIDTH 29 0
BBX 29 26 0 0
BITMAP
00081000
003C7800
003C7800
001C3800
00000000
00000000
FF9FF3F8
FF9FF3F8
1E038040
1E03C0C0
1E07C0C0
0F07C0C0
0F05E080
0F0DE180
0F0DE180
0788F100
0798F300
0798F300
03907300
03F07A00
03F07E00
01E03E00
01E03C00
01E03C00
01E01C00
00C01C00
ENDCHAR
STARTCHAR wdieresis
ENCODING 7813
SWIDTH 776 0
DWIDTH 23 0
BBX 23 21 0 0
BITMAP
01E3C0
01E3C0
01E3C0
000000
000000
000000
000000
FE7F3E
381C18
3C3C18
3C3E18
1C2E30
1E6E30
1E6F30
0E4720
0FC7E0
07C3E0
0783C0
0783C0
030180
030180
ENDCHAR
STARTCHAR uni1E8E
ENCODING 7822
SWIDTH 629 0
DWIDTH 19 0
BBX 19 26 0 0
BITMAP
007000
007800
00F800
007800
000000
000000
FF8FE0
FF8FE0
1E0300
1F0200
0F0600
0F8600
078C00
078C00
03D800
03D800
01F000
01F000
00E000
00E000
00E000
00E000
00E000
01E000
03FC00
07FC00
ENDCHAR
STARTCHAR uni1E8F
ENCODING 7823
SWIDTH 523 0
DWIDTH 16 0
BBX 16 29 0 -7
BITMAP
00C0
01E0
01E0
01E0
00C0
0000
0000
0000
FF3F
3C0C
3C08
1C18
1E18
1E10
0E30
0F30
0720
07E0
07C0
03C0
03C0
0180
0180
0100
0100
0300
F600
FC00
7800
ENDCHAR
STARTCHAR uni1E92
ENCODING 7826
SWIDTH 557 0
DWIDTH 17 0
BBX 15 27 1 -7
BITMAP
FFFE
FFFC
E03C
C078
C0F8
C0F0
01E0
01E0
03C0
07C0
0780
0F00
1F00
1E00
3E00
3C06
7806
F80E
FFFE
FFFE
0000
0000
0180
03C0
07C0
03C0
0100
ENDCHAR
STARTCHAR uni1E93
ENCODING 7827
SWIDTH 460 0
DWIDTH 14 0
BBX 12 21 1 -7
BITMAP
FFF0
E1E0
C1E0
C3C0
0780
0780
0F00
1E00
1E00
3C30
7830
7830
F070
FFF0
0000
0000
0600
0F00
0F80
0F00
0200
ENDCHAR
STARTCHAR uni1E97
ENCODING 7831
SWIDTH 341 0
DWIDTH 10 0
BBX 10 25 0 0
BITMAP
E1C0
F3C0
E1C0
0000
0000
0000
0C00
0C00
1C00
1C00
1C00
FFC0
1C00
1C00
1C00
1C00
1C00
1C00
1C00
3C00
3C00
3C00
1C00
1FC0
1F80
ENDCHAR
STARTCHAR uni1E9E
ENCODING 7838
SWIDTH 714 0
DWIDTH 21 0
BBX 20 21 1 -1
BITMAP
03FF00
07C380
0F0700
1E0E00
1E0E00
1E1C00
1E1C00
1E1E00
1E1E00
1E1F00
1E0FC0
1E07E0
1E03E0
1E01F0
1E00F0
1E30F0
1E30F0
1E30E0
7E31E0
FE7F80
000600
ENDCHAR
STARTCHAR uni1EA0
ENCODING 7840
SWIDTH 669 0
DWIDTH 20 0
BBX 20 27 0 -7
BITMAP
007000
00F000
00F000
00F800
01F800
01F800
013C00
033C00
033C00
021E00
061E00
061E00
07FF00
0FFF00
080F00
080780
180780
180780
7C0FE0
FE1FF0
000000
000000
006000
00F000
01F000
00F000
004000
ENDCHAR
STARTCHAR uni1EA1
ENCODING 7841
SWIDTH 520 0
DWIDTH 16 0
BBX 15 22 1 -7
BITMAP
0F80
3FE0
70E0
70F0
70F0
20F0
01F0
0FF0
38F0
70F0
F0F0
F0F0
F0F0
7F7E
7E7C
0000
0000
0300
0780
0F80
0780
0200
ENDCHAR
STARTCHAR uni1EA2
ENCODING 7842
SWIDTH 669 0
DWIDTH 20 0
BBX 20 27 0 0
BITMAP
00C000
00F000
00F000
003000
007000
004000
000000
007000
00F000
00F000
00F800
01F800
01F800
013C00
033C00
033C00
021E00
061E00
061E00
07FF00
0FFF00
080F00
080780
180780
180780
7C0FE0
FE1FF0
ENDCHAR
STARTCHAR uni1EA3
ENCODING 7843
SWIDTH 520 0
DWIDTH 16 0
BBX 15 23 1 0
BITMAP
0700
0780
0780
00C0
0180
0380
0000
0000
0F80
3FE0
70E0
70F0
70F0
20F0
01F0
0FF0
38F0
70F0
F0F0
F0F0
F0F0
7F7E
7E7C
ENDCHAR
STARTCHAR uni1EA4
ENCODING 7844
SWIDTH 669 0
DWIDTH 20 0
BBX 20 28 0 0
BITMAP
000080
0001C0
006380
00F300
01F800
030C00
060200
000000
007000
00F000
00F000
00F800
01F800
01F800
013C00
033C00
033C00
021E00
061E00
061E00
07FF00
0FFF00
080F00
080780
180780
180780
7C0FE0
FE1FF0
ENDCHAR
STARTCHAR uni1EA5
ENCODING 7845
SWIDTH 520 0
DWIDTH 16 0
BBX 15 24 1 0
BITMAP
000C
001C
001C
0338
0790
1FC0
3860
2010
0000
0F80
3FE0
70E0
70F0
70F0
20F0
01F0
0FF0
38F0
70F0
F0F0
F0F0
F0F0
7F7E
7E7C
ENDCHAR
STARTCHAR uni1EA6
ENCODING 7846
SWIDTH 669 0
DWIDTH 20 0
BBX 20 28 0 0
BITMAP
100000
380000
1C6000
0CF000
01F800
030C00
060600
000000
007000
00F000
00F000
00F800
01F800
01F800
013C00
033C00
033C00
021E00
061E00
061E00
07FF00
0FFF00
080F00
080780
180780
180780
7C0FE0
FE1FF0
ENDCHAR
STARTCHAR uni1EA7
ENCODING 7847
SWIDTH 520 0
DWIDTH 16 0
BBX 15 24 1 0
BITMAP
C000
E000
E000
7300
1780
0FC0
3860
2010
0000
0F80
3FE0
70E0
70F0
70F0
20F0
01F0
0FF0
38F0
70F0
F0F0
F0F0
F0F0
7F7E
7E7C
ENDCHAR
STARTCHAR uni1EA8
ENCODING 7848
SWIDTH 669 0
DWIDTH 20 0
BBX 20 29 0 0
BITMAP
000700
000780
000380
006180
00F300
01F800
030C00
060600
000000
007000
00F000
00F000
00F800
01F800
01F800
013C00
033C00
033C00
021E00
061E00
061E00
07FF00
0FFF00
080F00
080780
180780
180780
7C0FE0
FE1FF0
ENDCHAR
STARTCHAR uni1EA9
ENCODING 7849
SWIDTH 520 0
DWIDTH 16 0
BBX 15 25 1 0
BITMAP
0038
003C
001C
000C
030C
0798
1FC0
3860
2010
0000
0F80
3FE0
70E0
70F0
70F0
20F0
01F0
0FF0
38F0
70F0
F0F0
F0F0
F0F0
7F7E
7E7C
ENDCHAR
STARTCHAR uni1EAA
ENCODING 7850
SWIDTH 669 0
DWIDTH 20 0
BBX 20 29 0 0
BITMAP
03C200
07FE00
043C00
000000
007000
01F800
039C00
060600
000000
007000
00F000
00F000
00F800
01F800
01F800
013C00
033C00
033C00
021E00
061E00
061E00
07FF00
0FFF00
080F00
080780
180780
180780
7C0FE0
FE1FF0
ENDCHAR
STARTCHAR uni1EAB
ENCODING 7851
SWIDTH 520 0
DWIDTH 16 0
BBX 15 25 1 0
BITMAP
0C10
1FF0
37E0
20C0
0300
0780
0FC0
3860
2010
0000
0F80
3FE0
70E0
70F0
70F0
20F0
01F0
0FF0
38F0
70F0
F0F0
F0F0
F0F0
7F7E
7E7C
ENDCHAR
STARTCHAR uni1EAC
ENCODING 7852
SWIDTH 669 0
DWIDTH 20 0
BBX 20 33 0 -7
BITMAP
006000
00F000
01F800
030C00
060200
000000
007000
00F000
00F000
00F800
01F800
01F800
013C00
033C00
033C00
021E00
061E00
061E00
07FF00
0FFF00
080F00
080780
180780
180780
7C0FE0
FE1FF0
000000
000000
006000
00F000
01F000
00F000
004000
ENDCHAR
STARTCHAR uni1EAD
ENCODING 7853
SWIDTH 520 0
DWIDTH 16 0
BBX 15 29 1 -7
BITMAP
0700
0780
0FC0
1CE0
3070
2020
0000
0F80
3FE0
70E0
70F0
70F0
20F0
01F0
0FF0
38F0
70F0
F0F0
F0F0
F0F0
7F7E
7E7C
0000
0000
0300
0780
0F80
0780
0200
ENDCHAR
STARTCHAR uni1EAE
ENCODING 7854
SWIDTH 669 0
DWIDTH 20 0
BBX 20 30 0 0
BITMAP
001C00
003C00
003800
007000
066600
030400
03FC00
01F800
000000
000000
007000
00F000
00F000
00F800
01F800
01F800
013C00
033C00
033C00
021E00
061E00
061E00
07FF00
0FFF00
080F00
080780
180780
180780
7C0FE0
FE1FF0
ENDCHAR
STARTCHAR uni1EAF
ENCODING 7855
SWIDTH 520 0
DWIDTH 16 0
BBX 15 26 1 0
BITMAP
0040
00C0
01C0
0180
0300
3230
1860
1FE0
0780
0000
0000
0F80
3FE0
70E0
70F0
70F0
20F0
01F0
0FF0
38F0
70F0
F0F0
F0F0
F0F0
7F7E
7E7C
ENDCHAR
STARTCHAR uni1EB0
ENCODING 7856
SWIDTH 669 0
DWIDTH 20 0
BBX 20 30 0 0
BITMAP
038000
01C000
01C000
00E000
062600
030C00
03FC00
01F800
000000
000000
007000
00F000
00F000
00F800
01F800
01F800
013C00
033C00
033C00
021E00
061E00
061E00
07FF00
0FFF00
080F00
080780
180780
180780
7C0FE0
FE1FF0
ENDCHAR
STARTCHAR uni1EB1
ENCODING 7857
SWIDTH 520 0
DWIDTH 16 0
BBX 15 26 1 0
BITMAP
0800
1C00
0E00
0600
0300
3220
1860
1FC0
0780
0000
0000
0F80
3FE0
70E0
70F0
70F0
20F0
01F0
0FF0
38F0
70F0
F0F0
F0F0
F0F0
7F7E
7E7C
ENDCHAR
STARTCHAR uni1EB2
ENCODING 7858
SWIDTH 669 0
DWIDTH 20 0
BBX 20 30 0 0
BITMAP
00C000
00F000
00F000
001000
067600
034C00
03FC00
01F800
000000
000000
007000
00F000
00F000
00F800
01F800
01F800
013C00
033C00
033C00
021E00
061E00
061E00
07FF00
0FFF00
080F00
080780
180780
180780
7C0FE0
FE1FF0
ENDCHAR
STARTCHAR uni1EB3
ENCODING 7859
SWIDTH 520 0
DWIDTH 16 0
BBX 15 26 1 0
BITMAP
0600
0780
0780
0180
0380
3220
3060
1FE0
0FC0
0000
0000
0F80
3FE0
70E0
70F0
70F0
20F0
01F0
0FF0
38F0
70F0
F0F0
F0F0
F0F0
7F7E
7E7C
ENDCHAR
STARTCHAR uni1EB4
ENCODING 7860
SWIDTH 669 0
DWIDTH 20 0
BBX 20 30 0 0
BITMAP
000200
03E600
07FE00
043C00
060600
020400
03FC00
01F800
000000
000000
007000
00F000
00F000
00F800
01F800
01F800
013C00
033C00
033C00
021E00
061E00
061E00
07FF00
0FFF00
080F00
080780
180780
180780
7C0FE0
FE1FF0
ENDCHAR
STARTCHAR uni1EB5
ENCODING 7861
SWIDTH 520 0
DWIDTH 16 0
BBX 15 25 1 0
BITMAP
1E30
3FE0
21E0
0000
3020
1860
1FC0
0780
0000
0000
0F80
3FE0
70E0
70F0
70F0
20F0
01F0
0FF0
38F0
70F0
F0F0
F0F0
F0F0
7F7E
7E7C
ENDCHAR
STARTCHAR uni1EB6
ENCODING 7862
SWIDTH 669 0
DWIDTH 20 0
BBX 20 33 0 -7
BITMAP
020600
030600
03FC00
01F800
000000
000000
007000
00F000
00F000
00F800
01F800
01F800
013C00
033C00
033C00
021E00
061E00
061E00
07FF00
0FFF00
080F00
080780
180780
180780
7C0FE0
FE1FF0
000000
000000
006000
00F000
00F000
00F000
006000
ENDCHAR
STARTCHAR uni1EB7
ENCODING 7863
SWIDTH 520 0
DWIDTH 16 0
BBX 15 29 1 -7
BITMAP
3030
3060
1CE0
1FC0
0780
0000
0000
0F80
3FE0
70E0
70F0
70F0
20F0
01F0
0FF0
38F0
70F0
F0F0
F0F0
F0F0
7F7E
7E7C
0000
0000
0300
0780
0F80
0780
0200
ENDCHAR
STARTCHAR uni1EB8
ENCODING 7864
SWIDTH 599 0
DWIDTH 18 0
BBX 16 27 1 -7
BITMAP
FFFE
FFFE
1E06
1E06
1E06
1E01
1E10
1E10
1E10
1FF0
1FF0
1E10
1E10
1E00
1E00
1E03
1E03
1E03
7FFF
FFFF
0000
0000
00C0
01E0
03E0
01E0
0080
ENDCHAR
STARTCHAR uni1EB9
ENCODING 7865
SWIDTH 515 0
DWIDTH 15 0
BBX 13 22 1 -7
BITMAP
0780
1FE0
3870
7838
7038
F038
FFF8
FFF8
F000
F000
F000
7808
7C18
3FF0
1FE0
0000
0000
0300
0780
0780
0780
0100
ENDCHAR
STARTCHAR uni1EBA
ENCODING 7866
SWIDTH 599 0
DWIDTH 18 0
BBX 16 27 1 0
BITMAP
0180
01C0
01E0
0060
00C0
0100
0000
FFFE
FFFE
1E06
1E06
1E06
1E01
1E10
1E10
1E10
1FF0
1FF0
1E10
1E10
1E00
1E00
1E03
1E03
1E03
7FFF
FFFF
ENDCHAR
STARTCHAR uni1EBB
ENCODING 7867
SWIDTH 515 0
DWIDTH 15 0
BBX 13 23 1 0
BITMAP
0300
0780
07C0
00C0
0180
0380
0000
0000
0780
1FE0
3870
7838
7038
F038
FFF8
FFF8
F000
F000
F000
7808
7C18
3FF0
1FE0
ENDCHAR
STARTCHAR uni1EBC
ENCODING 7868
SWIDTH 599 0
DWIDTH 18 0
BBX 16 26 1 0
BITMAP
0704
0F8C
1FF8
18F8
0830
0000
FFFE
FFFE
1E06
1E06
1E06
1E01
1E10
1E10
1E10
1FF0
1FF0
1E10
1E10
1E00
1E00
1E03
1E03
1E03
7FFF
FFFF
ENDCHAR
STARTCHAR uni1EBD
ENCODING 7869
SWIDTH 515 0
DWIDTH 15 0
BBX 13 22 1 0
BITMAP
0410
1F10
3FF0
33E0
20C0
0000
0000
0780
1FE0
3870
7838
7038
F038
FFF8
FFF8
F000
F000
F000
7808
7C18
3FF0
1FE0
ENDCHAR
STARTCHAR uni1EBE
ENCODING 7870
SWIDTH 599 0
DWIDTH 18 0
BBX 16 28 1 0
BITMAP
0001
0003
00C7
03EC
07F0
0E38
080C
0000
FFFE
FFFE
1E06
1E06
1E06
1E01
1E10
1E10
1E10
1FF0
1FF0
1E10
1E10
1E00
1E00
1E03
1E03
1E03
7FFF
FFFF
ENDCHAR
STARTCHAR uni1EBF
ENCODING 7871
SWIDTH 515 0
DWIDTH 15 0
BBX 15 24 1 0
BITMAP
000C
000E
001C
03B8
07D0
0FE0
3870
1010
0000
0780
1FE0
3870
7838
7038
F038
FFF8
FFF8
F000
F000
F000
7808
7C18
3FF0
1FE0
ENDCHAR
STARTCHAR uni1EC0
ENCODING 7872
SWIDTH 599 0
DWIDTH 18 0
BBX 16 28 1 0
BITMAP
4000
7000
71C0
1BE0
07F0
0E38
0808
0000
FFFE
FFFE
1E06
1E06
1E06
1E01
1E10
1E10
1E10
1FF0
1FF0
1E10
1E10
1E00
1E00
1E03
1E03
1E03
7FFF
FFFF
ENDCHAR
STARTCHAR uni1EC1
ENCODING 7873
SWIDTH 515 0
DWIDTH 15 0
BBX 13 24 1 0
BITMAP
C000
E000
E000
3300
17C0
0FE0
3870
1010
0000
0780
1FE0
3870
7838
7038
F038
FFF8
FFF8
F000
F000
F000
7808
7C18
3FF0
1FE0
ENDCHAR
STARTCHAR uni1EC2
ENCODING 7874
SWIDTH 599 0
DWIDTH 18 0
BBX 16 29 1 0
BITMAP
001C
001E
000F
01C3
03EE
07F0
0E38
0808
0000
FFFE
FFFE
1E06
1E06
1E06
1E01
1E10
1E10
1E10
1FF0
1FF0
1E10
1E10
1E00
1E00
1E03
1E03
1E03
7FFF
FFFF
ENDCHAR
STARTCHAR uni1EC3
ENCODING 7875
SWIDTH 515 0
DWIDTH 15 0
BBX 15 25 1 0
BITMAP
0038
003C
001C
0006
030C
07D8
0FE0
3870
1010
0000
0780
1FE0
3870
7838
7038
F038
FFF8
FFF8
F000
F000
F000
7808
7C18
3FF0
1FE0
ENDCHAR
STARTCHAR uni1EC4
ENCODING 7876
SWIDTH 599 0
DWIDTH 18 0
BBX 16 29 1 0
BITMAP
078C
0FF8
18F0
0000
01C0
03E0
0F78
0C18
0000
FFFE
FFFE
1E06
1E06
1E06
1E01
1E10
1E10
1E10
1FF0
1FF0
1E10
1E10
1E00
1E00
1E03
1E03
1E03
7FFF
FFFF
ENDCHAR
STARTCHAR uni1EC5
ENCODING 7877
SWIDTH 515 0
DWIDTH 15 0
BBX 13 25 1 0
BITMAP
0C10
1FB0
3FF0
20C0
0300
0780
0FC0
1870
3010
0000
0780
1FE0
3870
7838
7038
F038
FFF8
FFF8
F000
F000
F000
7808
7C18
3FF0
1FE0
ENDCHAR
STARTCHAR uni1EC6
ENCODING 7878
SWIDTH 599 0
DWIDTH 18 0
BBX 16 33 1 -7
BITMAP
00C0
01E0
03F0
0618
0C0C
0000
FFFE
FFFE
1E06
1E06
1E06
1E01
1E10
1E10
1E10
1FF0
1FF0
1E10
1E10
1E00
1E00
1E03
1E03
1E03
7FFF
FFFF
0000
0000
00C0
01E0
03E0
01E0
0080
ENDCHAR
STARTCHAR uni1EC7
ENCODING 7879
SWIDTH 515 0
DWIDTH 15 0
BBX 13 29 1 -7
BITMAP
0380
0780
0FC0
1C60
3830
1010
0000
0780
1FE0
3870
7838
7038
F038
FFF8
FFF8
F000
F000
F000
7808
7C18
3FF0
1FE0
0000
0000
0300
0780
0780
0780
0300
ENDCHAR
STARTCHAR uni1EC8
ENCODING 7880
SWIDTH 379 0
DWIDTH 11 0
BBX 9 27 1 0
BITMAP
1800
1E00
1E00
0600
0E00
0800
0000
FF80
FF80
1E00
1E00
1E00
1E00
1E00
1E00
1E00
1E00
1E00
1E00
1E00
1E00
1E00
1E00
1E00
1E00
7F00
FF80
ENDCHAR
STARTCHAR uni1EC9
ENCODING 7881
SWIDTH 307 0
DWIDTH 9 0
BBX 7 23 1 0
BITMAP
30
38
3C
0C
0C
38
00
00
0C
7C
FC
3C
3C
3C
3C
3C
3C
3C
3C
3C
3C
7C
FE
ENDCHAR
STARTCHAR uni1ECA
ENCODING 7882
SWIDTH 379 0
DWIDTH 11 0
BBX 9 27 1 -7
BITMAP
FF80
FF80
1E00
1E00
1E00
1E00
1E00
1E00
1E00
1E00
1E00
1E00
1E00
1E00
1E00
1E00
1E00
1E00
7F00
FF80
0000
0000
0C00
1E00
3E00
1E00
0800
ENDCHAR
STARTCHAR uni1ECB
ENCODING 7883
SWIDTH 307 0
DWIDTH 9 0
BBX 7 29 1 -7
BITMAP
38
3C
7C
3C
00
00
00
0C
7C
FC
3C
3C
3C
3C
3C
3C
3C
3C
3C
3C
7C
FE
00
00
18
3C
7C
3C
10
ENDCHAR
STARTCHAR uni1ECC
ENCODING 7884
SWIDTH 704 0
DWIDTH 21 0
BBX 19 27 1 -7
BITMAP
03FC00
0F1E00
1E0700
3C0780
3803C0
7803C0
7803C0
F803E0
F801E0
F001E0
F001E0
F801E0
F803E0
7803C0
7803C0
7803C0
3C0780
1E0700
0F1E00
07FC00
004000
000000
006000
01F000
01F000
00F000
004000
ENDCHAR
STARTCHAR uni1ECD
ENCODING 7885
SWIDTH 557 0
DWIDTH 17 0
BBX 15 22 1 -7
BITMAP
0780
1FF0
3878
7838
703C
F01C
F01C
F01E
F01E
F01C
F03C
703C
7838
3C70
0FE0
0000
0000
0300
0780
07C0
0780
0100
ENDCHAR
STARTCHAR uni1ECE
ENCODING 7886
SWIDTH 704 0
DWIDTH 21 0
BBX 19 28 1 -1
BITMAP
00C000
00F000
00F000
003000
007000
004000
000000
03FC00
0F1E00
1E0700
3C0780
3803C0
7803C0
7803C0
F803E0
F801E0
F001E0
F001E0
F801E0
F803E0
7803C0
7803C0
7803C0
3C0780
1E0700
0F1E00
07FC00
004000
ENDCHAR
STARTCHAR uni1ECF
ENCODING 7887
SWIDTH 557 0
DWIDTH 17 0
BBX 15 23 1 0
BITMAP
0300
0380
03C0
00C0
00C0
0380
0000
0000
0780
1FF0
3878
7838
703C
F01C
F01C
F01E
F01E
F01C
F03C
703C
7838
3C70
0FE0
ENDCHAR
STARTCHAR uni1ED0
ENCODING 7888
SWIDTH 704 0
DWIDTH 21 0
BBX 19 29 1 -1
BITMAP
000080
000380
00E380
01F600
03F800
071C00
040600
000000
03FC00
0F1E00
1E0700
3C0780
3803C0
7803C0
7803C0
F803E0
F801E0
F001E0
F001E0
F801E0
F803E0
7803C0
7803C0
7803C0
3C0780
1E0700
0F1E00
07FC00
004000
ENDCHAR
STARTCHAR uni1ED1
ENCODING 7889
SWIDTH 557 0
DWIDTH 17 0
BBX 15 24 1 0
BITMAP
0004
000E
001C
0398
07D0
0FE0
3870
1010
0000
0780
1FF0
3878
7838
703C
F01C
F01C
F01E
F01E
F01C
F03C
703C
7838
3C70
0FE0
ENDCHAR
STARTCHAR uni1ED2
ENCODING 7890
SWIDTH 704 0
DWIDTH 21 0
BBX 19 29 1 -1
BITMAP
300000
380000
38E000
0DF000
03F800
071C00
040600
000000
03FC00
0F1E00
1E0700
3C0780
3803C0
7803C0
7803C0
F803E0
F801E0
F001E0
F001E0
F801E0
F803E0
7803C0
7803C0
7803C0
3C0780
1E0700
0F1E00
07FC00
004000
ENDCHAR
STARTCHAR uni1ED3
ENCODING 7891
SWIDTH 557 0
DWIDTH 17 0
BBX 15 24 1 0
BITMAP
C000
E000
7000
3380
17C0
0FE0
3870
1010
0000
0780
1FF0
3878
7838
703C
F01C
F01C
F01E
F01E
F01C
F03C
703C
7838
3C70
0FE0
ENDCHAR
STARTCHAR uni1ED4
ENCODING 7892
SWIDTH 704 0
DWIDTH 21 0
BBX 19 30 1 -1
BITMAP
000600
000F00
000780
00E180
01F700
03F800
071C00
040600
000000
03FC00
0F1E00
1E0700
3C0780
3803C0
7803C0
7803C0
F803E0
F801E0
F001E0
F001E0
F801E0
F803E0
7803C0
7803C0
7803C0
3C0780
1E0700
0F1E00
07FC00
004000
ENDCHAR
STARTCHAR uni1ED5
ENCODING 7893
SWIDTH 557 0
DWIDTH 17 0
BBX 15 25 1 0
BITMAP
0018
003C
001E
0006
038C
07D8
0FE0
3870
1010
0000
0780
1FF0
3878
7838
703C
F01C
F01C
F01E
F01E
F01C
F03C
703C
7838
3C70
0FE0
ENDCHAR
STARTCHAR uni1ED6
ENCODING 7894
SWIDTH 704 0
DWIDTH 21 0
BBX 19 30 1 -1
BITMAP
03C600
07FC00
0C7C00
000000
00E000
01F000
07BC00
060600
000000
03FC00
0F1E00
1E0700
3C0780
3803C0
7803C0
7803C0
F803E0
F801E0
F001E0
F001E0
F801E0
F803E0
7803C0
7803C0
7803C0
3C0780
1E0700
0F1E00
07FC00
004000
ENDCHAR
STARTCHAR uni1ED7
ENCODING 7895
SWIDTH 557 0
DWIDTH 17 0
BBX 15 25 1 0
BITMAP
0C10
1FB0
3FF0
20C0
0300
07C0
0FE0
3C70
1010
0000
0780
1FF0
3878
7838
703C
F01C
F01C
F01E
F01E
F01C
F03C
703C
7838
3C70
0FE0
ENDCHAR
STARTCHAR uni1ED8
ENCODING 7896
SWIDTH 704 0
DWIDTH 21 0
BBX 19 33 1 -7
BITMAP
00E000
01F000
03F800
071C00
040600
000000
03FC00
0F1E00
1E0700
3C0780
3803C0
7803C0
7803C0
F803E0
F801E0
F001E0
F001E0
F801E0
F803E0
7803C0
7803C0
7803C0
3C0780
1E0700
0F1E00
07FC00
004000
000000
006000
01F000
01F000
00F000
004000
ENDCHAR
STARTCHAR uni1ED9
ENCODING 7897
SWIDTH 557 0
DWIDTH 17 0
BBX 15 29 1 -7
BITMAP
0380
07C0
0FC0
0C60
1830
1010
0000
0780
1FF0
3878
7838
703C
F01C
F01C
F01E
F01E
F01C
F03C
703C
7838
3C70
0FE0
0000
0000
0300
0780
07C0
0780
0100
ENDCHAR
STARTCHAR uni1EDA
ENCODING 7898
SWIDTH 704 0
DWIDTH 21 0
BBX 19 27 1 -1
BITMAP
001C00
003C00
0078E0
01E0E0
0080E0
000060
03FCC0
0F1F80
1E0700
3C0780
3803C0
7803C0
7803C0
F803E0
F801E0
F001E0
F001E0
F801E0
F803E0
7803C0
7803C0
7803C0
3C0780
1E0700
0F1E00
07FC00
004000
ENDCHAR
STARTCHAR uni1EDB
ENCODING 7899
SWIDTH 557 0
DWIDTH 17 0
BBX 16 23 1 0
BITMAP
0060
00F0
00E0
01C0
0380
0307
0007
0007
0782
1FF6
387C
7838
703C
F01C
F01C
F01E
F01E
F01C
F03C
703C
7838
3C70
0FE0
ENDCHAR
STARTCHAR uni1EDC
ENCODING 7900
SWIDTH 704 0
DWIDTH 21 0
BBX 19 27 1 -1
BITMAP
038000
03C000
01E0E0
0070E0
0010E0
000060
03FCC0
0F1F80
1E0700
3C0780
3803C0
7803C0
7803C0
F803E0
F801E0
F001E0
F001E0
F801E0
F803E0
7803C0
7803C0
7803C0
3C0780
1E0700
0F1E00
07FC00
004000
ENDCHAR
STARTCHAR uni1EDD
ENCODING 7901
SWIDTH 557 0
DWIDTH 17 0
BBX 16 23 1 0
BITMAP
0C00
1E00
0E00
0700
0300
0187
0007
0007
0782
1FF6
387C
7838
703C
F01C
F01C
F01E
F01E
F01C
F03C
703C
7838
3C70
0FE0
ENDCHAR
STARTCHAR uni1EDE
ENCODING 7902
SWIDTH 704 0
DWIDTH 21 0
BBX 19 28 1 -1
BITMAP
00C000
00E000
00F000
0030E0
0060E0
0040E0
000060
03FCC0
0F1F80
1E0700
3C0780
3803C0
7803C0
7803C0
F803E0
F801E0
F001E0
F001E0
F801E0
F803E0
7803C0
7803C0
7803C0
3C0780
1E0700
0F1E00
07FC00
004000
ENDCHAR
STARTCHAR uni1EDF
ENCODING 7903
SWIDTH 557 0
DWIDTH 17 0
BBX 16 23 1 0
BITMAP
0300
0380
03C0
00C0
00C0
0387
0007
0007
0782
1FF6
387C
7838
703C
F01C
F01C
F01E
F01E
F01C
F03C
703C
7838
3C70
0FE0
ENDCHAR
STARTCHAR uni1EE0
ENCODING 7904
SWIDTH 704 0
DWIDTH 21 0
BBX 19 27 1 -1
BITMAP
038200
07C600
0FFCE0
0C7CE0
0810E0
000060
03FCC0
0F1F80
1E0700
3C0780
3803C0
7803C0
7803C0
F803E0
F801E0
F001E0
F001E0
F801E0
F803E0
7803C0
7803C0
7803C0
3C0780
1E0700
0F1E00
07FC00
004000
ENDCHAR
STARTCHAR uni1EE1
ENCODING 7905
SWIDTH 557 0
DWIDTH 17 0
BBX 16 22 1 0
BITMAP
0410
1F10
1FF0
33E0
20C7
0007
0007
0782
1FF6
387C
7838
703C
F01C
F01C
F01E
F01E
F01C
F03C
703C
7838
3C70
0FE0
ENDCHAR
STARTCHAR uni1EE2
ENCODING 7906
SWIDTH 704 0
DWIDTH 21 0
BBX 19 31 1 -7
BITMAP
0000E0
0000E0
0000E0
000060
03FCC0
0F1F80
1E0700
3C0780
3803C0
7803C0
7803C0
F803E0
F801E0
F001E0
F001E0
F801E0
F803E0
7803C0
7803C0
7803C0
3C0780
1E0700
0F1E00
07FC00
004000
000000
006000
01F000
01F000
00F000
004000
ENDCHAR
STARTCHAR uni1EE3
ENCODING 7907
SWIDTH 557 0
DWIDTH 17 0
BBX 16 25 1 -7
BITMAP
0007
0007
0007
0782
1FF6
387C
7838
703C
F01C
F01C
F01E
F01E
F01C
F03C
703C
7838
3C70
0FE0
0000
0000
0300
0780
07C0
0780
0100
ENDCHAR
STARTCHAR uni1EE4
ENCODING 7908
SWIDTH 729 0
DWIDTH 22 0
BBX 20 27 1 -7
BITMAP
FF87F0
FF87F0
3C0080
3C0080
3C0080
3C0080
3C0080
3C0080
3C0080
3C0080
3C0080
3C0080
3C0080
3C0080
1E0180
1E0180
1E0380
0F8700
0FFE00
03FC00
006000
000000
006000
00F000
00F000
00F000
006000
ENDCHAR
STARTCHAR uni1EE5
ENCODING 7909
SWIDTH 595 0
DWIDTH 18 0
BBX 16 22 1 -7
BITMAP
0804
F87C
783C
381C
381C
381C
381C
381C
381C
781C
781C
383C
3C7C
3FDE
1F9F
0000
0000
0080
03E0
03E0
03C0
0080
ENDCHAR
STARTCHAR uni1EE6
ENCODING 7910
SWIDTH 729 0
DWIDTH 22 0
BBX 20 28 1 -1
BITMAP
006000
007800
007800
001800
003800
002000
000000
FF87F0
FF87F0
3C0080
3C0080
3C0080
3C0080
3C0080
3C0080
3C0080
3C0080
3C0080
3C0080
3C0080
3C0080
1E0180
1E0180
1E0380
0F8700
0FFE00
03FC00
006000
ENDCHAR
STARTCHAR uni1EE7
ENCODING 7911
SWIDTH 595 0
DWIDTH 18 0
BBX 16 23 1 0
BITMAP
0380
03C0
03C0
0060
00C0
01C0
0000
0000
0804
F87C
783C
381C
381C
381C
381C
381C
381C
781C
781C
383C
3C7C
3FDE
1F9F
ENDCHAR
STARTCHAR uni1EE8
ENCODING 7912
SWIDTH 729 0
DWIDTH 22 0
BBX 22 27 1 -1
BITMAP
000F00
001E00
003C18
00701C
00401C
000018
FF87F8
FF87C0
3C0080
3C0080
3C0080
3C0080
3C0080
3C0080
3C0080
3C0080
3C0080
3C0080
3C0080
3C0080
1E0180
1E0180
1E0380
0F8700
0FFE00
03FC00
006000
ENDCHAR
STARTCHAR uni1EE9
ENCODING 7913
SWIDTH 595 0
DWIDTH 18 0
BBX 19 23 1 0
BITMAP
003000
007000
00F000
00E000
018000
0301C0
0000E0
0000C0
0804C0
F87CC0
783F80
381C00
381C00
381C00
381C00
381C00
381C00
781C00
781C00
383C00
3C7C00
3FDE00
1F9F00
ENDCHAR
STARTCHAR uni1EEA
ENCODING 7914
SWIDTH 729 0
DWIDTH 22 0
BBX 22 27 1 -1
BITMAP
038000
03C000
01E018
00701C
00101C
000018
FF87F8
FF87C0
3C0080
3C0080
3C0080
3C0080
3C0080
3C0080
3C0080
3C0080
3C0080
3C0080
3C0080
3C0080
1E0180
1E0180
1E0380
0F8700
0FFE00
03FC00
006000
ENDCHAR
STARTCHAR uni1EEB
ENCODING 7915
SWIDTH 595 0
DWIDTH 18 0
BBX 19 23 1 0
BITMAP
0C0000
0E0000
0F0000
070000
038000
0181C0
0000E0
0000C0
0804C0
F87CC0
783F80
381C00
381C00
381C00
381C00
381C00
381C00
781C00
781C00
383C00
3C7C00
3FDE00
1F9F00
ENDCHAR
STARTCHAR uni1EEC
ENCODING 7916
SWIDTH 729 0
DWIDTH 22 0
BBX 22 28 1 -1
BITMAP
006000
007800
007800
000C18
00381C
00201C
000018
FF87F8
FF87C0
3C0080
3C0080
3C0080
3C0080
3C0080
3C0080
3C0080
3C0080
3C0080
3C0080
3C0080
3C0080
1E0180
1E0180
1E0380
0F8700
0FFE00
03FC00
006000
ENDCHAR
STARTCHAR uni1EED
ENCODING 7917
SWIDTH 595 0
DWIDTH 18 0
BBX 19 23 1 0
BITMAP
030000
03C000
03C000
00C000
00C000
0181C0
0000E0
0000C0
0804C0
F87CC0
783F80
381C00
381C00
381C00
381C00
381C00
381C00
781C00
781C00
383C00
3C7C00
3FDE00
1F9F00
ENDCHAR
STARTCHAR uni1EEE
ENCODING 7918
SWIDTH 729 0
DWIDTH 22 0
BBX 22 27 1 -1
BITMAP
01C100
03F300
03FF18
063E1C
02081C
000018
FF87F8
FF87C0
3C0080
3C0080
3C0080
3C0080
3C0080
3C0080
3C0080
3C0080
3C0080
3C0080
3C0080
3C0080
1E0180
1E0180
1E0380
0F8700
0FFE00
03FC00
006000
ENDCHAR
STARTCHAR uni1EEF
ENCODING 7919
SWIDTH 595 0
DWIDTH 18 0
BBX 19 22 1 0
BITMAP
060800
0F0800
1FF800
11F000
1061C0
0000E0
0000C0
0804C0
F87CC0
783F80
381C00
381C00
381C00
381C00
381C00
381C00
781C00
781C00
383C00
3C7C00
3FDE00
1F9F00
ENDCHAR
STARTCHAR uni1EF0
ENCODING 7920
SWIDTH 729 0
DWIDTH 22 0
BBX 22 31 1 -7
BITMAP
000018
00001C
00001C
000018
FF87F8
FF87C0
3C0080
3C0080
3C0080
3C0080
3C0080
3C0080
3C0080
3C0080
3C0080
3C0080
3C0080
3C0080
1E0180
1E0180
1E0380
0F8700
0FFE00
03FC00
006000
000000
006000
00F000
00F000
00F000
006000
ENDCHAR
STARTCHAR uni1EF1
ENCODING 7921
SWIDTH 595 0
DWIDTH 18 0
BBX 19 25 1 -7
BITMAP
0001C0
0000E0
0000C0
0804C0
F87CC0
783F80
381C00
381C00
381C00
381C00
381C00
381C00
781C00
781C00
383C00
3C7C00
3FDE00
1F9F00
000000
000000
018000
03C000
03C000
03C000
018000
ENDCHAR
STARTCHAR Ygrave
ENCODING 7922
SWIDTH 629 0
DWIDTH 19 0
BBX 19 26 0 0
BITMAP
070000
078000
03C000
00F000
002000
000000
FF8FE0
FF8FE0
1E0300
1F0200
0F0600
0F8600
078C00
078C00
03D800
03D800
01F000
01F000
00E000
00E000
00E000
00E000
00E000
01E000
03FC00
07FC00
ENDCHAR
STARTCHAR ygrave
ENCODING 7923
SWIDTH 523 0
DWIDTH 16 0
BBX 16 30 0 -7
BITMAP
0C00
0E00
0F00
0780
0180
00C0
0000
0000
0000
FF3F
3C0C
3C08
1C18
1E18
1E10
0E30
0F30
0720
07E0
07C0
03C0
03C0
0180
0180
0100
0100
0300
F600
FC00
7800
ENDCHAR
STARTCHAR uni1EF4
ENCODING 7924
SWIDTH 629 0
DWIDTH 19 0
BBX 19 27 0 -7
BITMAP
FF8FE0
FF8FE0
1E0300
1F0200
0F0600
0F8600
078C00
078C00
03D800
03D800
01F000
01F000
00E000
00E000
00E000
00E000
00E000
01E000
03FC00
07FC00
000000
000000
004000
01F000
01F000
01E000
004000
ENDCHAR
STARTCHAR uni1EF5
ENCODING 7925
SWIDTH 523 0
DWIDTH 16 0
BBX 16 22 0 -8
BITMAP
FF3F
3C0C
3C08
1C18
1E18
1E10
0E30
0F30
0720
07E0
07C0
03C0
03C0
0180
0180
0100
0100
0318
F63C
FC3E
783C
0008
ENDCHAR
STARTCHAR uni1EF6
ENCODING 7926
SWIDTH 629 0
DWIDTH 19 0
BBX 19 27 0 0
BITMAP
006000
007800
007800
001800
003800
002000
000000
FF8FE0
FF8FE0
1E0300
1F0200
0F0600
0F8600
078C00
078C00
03D800
03D800
01F000
01F000
00E000
00E000
00E000
00E000
00E000
01E000
03FC00
07FC00
ENDCHAR
STARTCHAR uni1EF7
ENCODING 7927
SWIDTH 523 0
DWIDTH 16 0
BBX 16 30 0 -7
BITMAP
0180
01C0
01E0
0060
0060
01C0
0000
0000
0000
FF3F
3C0C
3C08
1C18
1E18
1E10
0E30
0F30
0720
07E0
07C0
03C0
03C0
0180
0180
0100
0100
0300
F600
FC00
7800
ENDCHAR
STARTCHAR uni1EF8
ENCODING 7928
SWIDTH 629 0
DWIDTH 19 0
BBX 19 26 0 0
BITMAP
01C100
03E300
07FE00
063E00
040800
000000
FF8FE0
FF8FE0
1E0300
1F0200
0F0600
0F8600
078C00
078C00
03D800
03D800
01F000
01F000
00E000
00E000
00E000
00E000
00E000
01E000
03FC00
07FC00
ENDCHAR
STARTCHAR uni1EF9
ENCODING 7929
SWIDTH 523 0
DWIDTH 16 0
BBX 16 29 0 -7
BITMAP
020C
0F88
0FF8
18F8
0870
0000
0000
0000
FF3F
3C0C
3C08
1C18
1E18
1E10
0E30
0F30
0720
07E0
07C0
03C0
03C0
0180
0180
0100
0100
0300
F600
FC00
7800
ENDCHAR
STARTCHAR uni2007
ENCODING 8199
SWIDTH 520 0
DWIDTH 16 0
BBX 1 1 0 0
BITMAP
00
ENDCHAR
STARTCHAR hyphen
ENCODING 8208
SWIDTH 325 0
DWIDTH 10 0
BBX 8 3 1 6
BITMAP
FF
FF
FF
ENDCHAR
STARTCHAR figuredash
ENCODING 8210
SWIDTH 520 0
DWIDTH 16 0
BBX 13 3 1 6
BITMAP
FFF8
FFF8
FFF8
ENDCHAR
STARTCHAR endash
ENCODING 8211
SWIDTH 525 0
DWIDTH 16 0
BBX 14 3 1 6
BITMAP
FFFC
FFFC
FFFC
ENDCHAR
STARTCHAR emdash
ENCODING 8212
SWIDTH 825 0
DWIDTH 25 0
BBX 23 3 1 6
BITMAP
FFFFFE
FFFFFE
FFFFFE
ENDCHAR
STARTCHAR uni2015
ENCODING 8213
SWIDTH 825 0
DWIDTH 25 0
BBX 23 3 1 6
BITMAP
FFFFFE
FFFFFE
FFFFFE
ENDCHAR
STARTCHAR quoteleft
ENCODING 8216
SWIDTH 214 0
DWIDTH 6 0
BBX 5 9 1 13
BITMAP
18
30
60
C0
E0
F0
F0
F0
70
ENDCHAR
STARTCHAR quoteright
ENCODING 8217
SWIDTH 214 0
DWIDTH 6 0
BBX 4 9 1 13
BITMAP
F0
F0
F0
70
30
30
60
C0
80
ENDCHAR
STARTCHAR quotesinglbase
ENCODING 8218
SWIDTH 214 0
DWIDTH 6 0
BBX 4 9 1 -5
BITMAP
F0
F0
F0
70
30
30
60
C0
80
ENDCHAR
STARTCHAR quotedblleft
ENCODING 8220
SWIDTH 422 0
DWIDTH 13 0
BBX 11 9 1 13
BITMAP
1860
30C0
6180
C100
E380
F3C0
F3E0
F3C0
71C0
ENDCHAR
STARTCHAR quotedblright
ENCODING 8221
SWIDTH 422 0
DWIDTH 13 0
BBX 11 9 1 13
BITMAP
F1C0
F3E0
F3E0
71E0
30C0
30C0
6080
C300
8200
ENDCHAR
STARTCHAR quotedblbase
ENCODING 8222
SWIDTH 422 0
DWIDTH 13 0
BBX 11 9 1 -5
BITMAP
F1C0
F3E0
F3E0
71E0
30C0
30C0
6080
C300
8200
ENDCHAR
STARTCHAR dagger
ENCODING 8224
SWIDTH 521 0
DWIDTH 16 0
BBX 14 25 1 -3
BITMAP
0200
0700
0780
0700
0700
0300
FB78
FFFC
FB78
0300
0700
0700
0700
0700
0700
0700
0700
0700
0300
0300
0300
0300
0300
0200
0200
ENDCHAR
STARTCHAR daggerdbl
ENCODING 8225
SWIDTH 521 0
DWIDTH 16 0
BBX 14 25 1 -3
BITMAP
0200
0700
0780
0700
0700
0300
FB78
FFFC
FB78
0300
0700
0700
0700
0700
0700
0300
7338
FFFC
FEF8
2310
0300
0700
0700
0780
0300
ENDCHAR
STARTCHAR bullet
ENCODING 8226
SWIDTH 317 0
DWIDTH 10 0
BBX 7 7 1 6
BITMAP
7C
FE
FE
FE
FE
7E
38
ENDCHAR
STARTCHAR twodotenleader
ENCODING 8229
SWIDTH 600 0
DWIDTH 18 0
BBX 14 4 2 0
BITMAP
7038
F87C
F87C
7038
ENDCHAR
STARTCHAR ellipsis
ENCODING 8230
SWIDTH 900 0
DWIDTH 27 0
BBX 23 4 2 0
BITMAP
70381C
F87C3E
F87C3E
70381C
ENDCHAR
STARTCHAR perthousand
ENCODING 8240
SWIDTH 1208 0
DWIDTH 36 0
BBX 33 21 2 -1
BITMAP
1800600000
7E00C00000
6300C00000
E301800000
E303000000
C383000000
C386000000
C38C000000
E308600800
E319F83600
6333986300
76231CE300
1C630CE380
00C70CE380
00870CE380
01870CE380
03030CE380
06031CE300
0603186300
0C01B83600
0800E01C00
ENDCHAR
STARTCHAR uni2032
ENCODING 8242
SWIDTH 253 0
DWIDTH 8 0
BBX 4 10 2 12
BITMAP
E0
F0
F0
F0
E0
E0
E0
C0
C0
80
ENDCHAR
STARTCHAR uni2033
ENCODING 8243
SWIDTH 452 0
DWIDTH 14 0
BBX 10 10 2 12
BITMAP
E380
F3C0
F3C0
F380
E380
E380
E300
C300
C300
8200
ENDCHAR
STARTCHAR guilsinglleft
ENCODING 8249
SWIDTH 308 0
DWIDTH 9 0
BBX 7 13 1 1
BITMAP
02
06
1C
38
70
F0
E0
F0
70
38
0C
06
02
ENDCHAR
STARTCHAR guilsinglright
ENCODING 8250
SWIDTH 308 0
DWIDTH 9 0
BBX 7 13 1 1
BITMAP
80
E0
70
38
1C
0E
0E
0E
1C
38
70
C0
80
ENDCHAR
STARTCHAR exclamdbl
ENCODING 8252
SWIDTH 606 0
DWIDTH 18 0
BBX 14 20 2 0
BITMAP
7838
787C
F87C
787C
7878
7878
7838
7038
7038
3038
3038
3030
3010
0000
0000
0000
7038
F87C
F87C
7838
ENDCHAR
STARTCHAR fraction
ENCODING 8260
SWIDTH 140 0
DWIDTH 4 0
BBX 15 21 -5 -1
BITMAP
0006
000C
0008
0018
0030
0020
0060
00C0
0080
0180
0300
0600
0600
0C00
1800
1800
3000
6000
4000
C000
8000
ENDCHAR
STARTCHAR uni2047
ENCODING 8263
SWIDTH 816 0
DWIDTH 24 0
BBX 21 20 2 0
BITMAP
F80F00
FC0FC0
FE0FE0
1F03F0
018030
018010
018038
078070
3F83F0
7F07E0
780780
700600
200600
000000
000000
000000
780700
F80F80
F80F80
780F00
ENDCHAR
STARTCHAR uni2048
ENCODING 8264
SWIDTH 721 0
DWIDTH 22 0
BBX 17 20 2 0
BITMAP
F80780
FC0780
FE0780
1F0780
018780
018780
018780
078700
3F8700
7F0300
780300
700300
200300
000000
000000
000000
780780
F80780
F80780
780780
ENDCHAR
STARTCHAR uni2049
ENCODING 8265
SWIDTH 714 0
DWIDTH 21 0
BBX 18 20 2 0
BITMAP
787800
787E00
F87F00
781F80
780180
780080
7801C0
700780
701F80
303F00
303C00
303000
303000
000000
000000
000000
703800
F87C00
F87C00
787800
ENDCHAR
STARTCHAR zero.sups
ENCODING 8304
SWIDTH 371 0
DWIDTH 11 0
BBX 9 13 1 12
BITMAP
0C00
3600
6300
6380
E380
E380
E380
E380
E380
6380
6300
3600
1C00
ENDCHAR
STARTCHAR i.sups
ENCODING 8305
SWIDTH 206 0
DWIDTH 6 0
BBX 5 14 1 13
BITMAP
60
70
60
00
00
60
E0
60
60
60
60
60
60
F8
ENDCHAR
STARTCHAR four.sups
ENCODING 8308
SWIDTH 371 0
DWIDTH 11 0
BBX 9 11 1 13
BITMAP
0600
0E00
1600
3600
2600
4600
C600
FF80
FF80
0600
0600
ENDCHAR
STARTCHAR five.sups
ENCODING 8309
SWIDTH 371 0
DWIDTH 11 0
BBX 9 12 1 12
BITMAP
3F00
3F00
2000
6000
7E00
4700
0380
0380
C380
E380
6700
3C00
ENDCHAR
STARTCHAR six.sups
ENCODING 8310
SWIDTH 371 0
DWIDTH 11 0
BBX 9 13 1 12
BITMAP
0100
0E00
1800
3000
7000
6E00
F780
E380
E180
E180
6380
3300
0C00
ENDCHAR
STARTCHAR seven.sups
ENCODING 8311
SWIDTH 371 0
DWIDTH 11 0
BBX 8 11 2 13
BITMAP
FF
FF
02
06
04
0C
1C
18
38
30
70
ENDCHAR
STARTCHAR eight.sups
ENCODING 8312
SWIDTH 371 0
DWIDTH 11 0
BBX 9 13 1 12
BITMAP
0C00
3700
6300
6300
7300
7E00
3E00
3F00
6380
E380
E380
7300
3C00
ENDCHAR
STARTCHAR nine.sups
ENCODING 8313
SWIDTH 371 0
DWIDTH 11 0
BBX 9 13 1 12
BITMAP
0800
7700
E300
E380
E380
E380
7780
3B80
0300
0700
0E00
3800
6000
ENDCHAR
STARTCHAR parenleft.sups
ENCODING 8317
SWIDTH 265 0
DWIDTH 8 0
BBX 5 17 2 9
BITMAP
18
30
30
60
E0
C0
C0
C0
C0
C0
C0
C0
60
60
30
10
08
ENDCHAR
STARTCHAR parenright.sups
ENCODING 8318
SWIDTH 265 0
DWIDTH 8 0
BBX 5 17 1 9
BITMAP
C0
60
60
30
38
18
18
18
18
18
18
18
30
30
60
C0
80
ENDCHAR
STARTCHAR n.sups
ENCODING 8319
SWIDTH 415 0
DWIDTH 12 0
BBX 11 9 1 13
BITMAP
6F80
FF80
71C0
71C0
71C0
71C0
71C0
71C0
FBE0
ENDCHAR
STARTCHAR zero.subs
ENCODING 8320
SWIDTH 371 0
DWIDTH 11 0
BBX 9 13 1 -7
BITMAP
0C00
3600
6300
6380
E380
E380
E380
E380
E380
6380
6300
3600
1C00
ENDCHAR
STARTCHAR one.subs
ENCODING 8321
SWIDTH 371 0
DWIDTH 11 0
BBX 8 12 2 -6
BITMAP
08
F8
F8
38
38
38
38
38
38
38
38
FF
ENDCHAR
STARTCHAR two.subs
ENCODING 8322
SWIDTH 371 0
DWIDTH 11 0
BBX 9 12 1 -6
BITMAP
0C00
6F00
E300
E300
0300
0700
0600
0C00
1800
3000
7F80
FF80
ENDCHAR
STARTCHAR three.subs
ENCODING 8323
SWIDTH 371 0
DWIDTH 11 0
BBX 9 13 1 -7
BITMAP
1C00
6F00
6300
6300
0300
0600
1E00
0300
0380
C380
E380
6700
1C00
ENDCHAR
STARTCHAR four.subs
ENCODING 8324
SWIDTH 371 0
DWIDTH 11 0
BBX 9 11 1 -6
BITMAP
0600
0E00
1600
3600
2600
4600
C600
FF80
FF80
0600
0600
ENDCHAR
STARTCHAR five.subs
ENCODING 8325
SWIDTH 371 0
DWIDTH 11 0
BBX 9 12 1 -7
BITMAP
3F00
3F00
2000
6000
7E00
4700
0380
0380
C380
E380
6700
3C00
ENDCHAR
STARTCHAR six.subs
ENCODING 8326
SWIDTH 371 0
DWIDTH 11 0
BBX 9 13 1 -7
BITMAP
0100
0E00
1800
3000
7000
6E00
F780
E380
E180
E180
6380
3300
0C00
ENDCHAR
STARTCHAR seven.subs
ENCODING 8327
SWIDTH 371 0
DWIDTH 11 0
BBX 8 11 2 -6
BITMAP
FF
FF
02
06
04
0C
1C
18
38
30
70
ENDCHAR
STARTCHAR eight.subs
ENCODING 8328
SWIDTH 371 0
DWIDTH 11 0
BBX 9 13 1 -7
BITMAP
0C00
3700
6300
6300
7300
7E00
3E00
3F00
6380
E380
E380
7300
3C00
ENDCHAR
STARTCHAR nine.subs
ENCODING 8329
SWIDTH 371 0
DWIDTH 11 0
BBX 9 13 1 -7
BITMAP
0800
7700
E300
E380
E380
E380
7780
3B80
0300
0700
0E00
3800
6000
ENDCHAR
STARTCHAR parenleft.subs
ENCODING 8333
SWIDTH 265 0
DWIDTH 8 0
BBX 5 17 2 -10
BITMAP
18
30
30
60
E0
C0
C0
C0
C0
C0
C0
C0
60
60
30
10
08
ENDCHAR
STARTCHAR parenright.subs
ENCODING 8334
SWIDTH 265 0
DWIDTH 8 0
BBX 5 17 1 -10
BITMAP
C0
60
60
30
38
18
18
18
18
18
18
18
30
30
60
C0
80
ENDCHAR
STARTCHAR colonmonetary
ENCODING 8353
SWIDTH 520 0
DWIDTH 16 0
BBX 14 25 1 -3
BITMAP
0120
0120
03E0
0FF0
1E5C
3A5C
7A5C
7248
F240
E240
E6C0
E6C0
E480
E480
E480
E480
E480
F498
7DB8
7DB8
3D30
0FE0
0900
0900
0900
ENDCHAR
STARTCHAR lira
ENCODING 8356
SWIDTH 520 0
DWIDTH 16 0
BBX 13 20 1 0
BITMAP
0100
0FE0
1C70
3878
3838
3838
3800
3800
FFE0
FFE0
1C00
1C00
FFE0
1C00
1800
1800
3000
7FF8
FFF8
FFF8
ENDCHAR
STARTCHAR uni20A6
ENCODING 8358
SWIDTH 520 0
DWIDTH 16 0
BBX 16 19 0 0
BITMAP
FC7F
1E18
1E18
1F18
1F18
1718
1798
FFFE
1398
13D8
FFFE
FFCE
11E8
10E8
10F8
1078
1078
7C78
FE38
ENDCHAR
STARTCHAR peseta
ENCODING 8359
SWIDTH 520 0
DWIDTH 16 0
BBX 15 19 0 0
BITMAP
FFE0
1EF0
1E38
1E3C
1E1C
FFFE
1E1C
1E1C
1E38
1E78
1FF0
1F80
1E00
1E00
1E00
1E00
1E00
3F00
FF80
ENDCHAR
STARTCHAR uni20A9
ENCODING 8361
SWIDTH 520 0
DWIDTH 16 0
BBX 16 19 0 0
BITMAP
FC1F
7004
7084
79C4
39CC
39CC
39C8
39C8
FFFE
FFFE
3AF8
1AF8
1AF0
1E70
1C70
1C70
1C70
1C60
0860
ENDCHAR
STARTCHAR dong
ENCODING 8363
SWIDTH 520 0
DWIDTH 16 0
BBX 13 20 1 0
BITMAP
03F0
03F0
00F0
3FF8
3FF8
00F0
1FF0
3FF0
78F0
70F0
F0F0
F0F0
F0F0
F0F0
78F0
7FF0
3F78
0000
0000
FFF8
ENDCHAR
STARTCHAR Euro
ENCODING 8364
SWIDTH 520 0
DWIDTH 16 0
BBX 15 20 0 0
BITMAP
0060
03FC
071E
0E0E
1E0E
1C04
3C00
FFF0
FFF0
3800
3800
3800
FFF0
3C00
3C00
1C06
1E0E
0E0E
079C
03F8
ENDCHAR
STARTCHAR uni20AE
ENCODING 8366
SWIDTH 520 0
DWIDTH 16 0
BBX 15 19 0 0
BITMAP
FFFE
E3C6
E3C6
E3C6
C3C6
03C0
03D8
03F8
03E0
1FC0
1BC8
03F8
03E0
0FC0
1BC0
03C0
03C0
0FE0
1FF0
ENDCHAR
STARTCHAR uni20B1
ENCODING 8369
SWIDTH 520 0
DWIDTH 16 0
BBX 15 19 0 0
BITMAP
FFE0
1EF0
1E38
FFFE
FFFE
1E1C
1E1C
FFFE
1E38
1E78
1FF0
1F80
1E00
1E00
1E00
1E00
1E00
3F00
FF80
ENDCHAR
STARTCHAR uni20B2
ENCODING 8370
SWIDTH 520 0
DWIDTH 16 0
BBX 15 25 1 -3
BITMAP
0180
0180
0180
0FF8
1E38
3818
7818
7018
F000
F000
F000
E000
E000
E1FE
F038
F038
F038
7038
7838
3838
1E38
0FF0
0180
0180
0180
ENDCHAR
STARTCHAR uni20B4
ENCODING 8372
SWIDTH 520 0
DWIDTH 16 0
BBX 14 20 1 0
BITMAP
0300
1FE0
38F0
3878
7878
3078
0078
00F0
FFFC
03C0
0780
1F00
FFFC
7800
7800
7030
7078
7870
3C70
1FE0
ENDCHAR
STARTCHAR uni20B5
ENCODING 8373
SWIDTH 520 0
DWIDTH 16 0
BBX 13 25 2 -3
BITMAP
0300
0300
0300
0FE0
3F70
7B70
7378
F310
E300
E300
E300
E300
E300
E300
E300
E300
E300
F330
7378
7B70
3F70
0FE0
0300
0300
0300
ENDCHAR
STARTCHAR uni20B8
ENCODING 8376
SWIDTH 520 0
DWIDTH 16 0
BBX 15 19 0 0
BITMAP
FFFE
0000
0000
FFFE
FFFE
E3C6
E3C6
C3C6
03C0
03C0
03C0
03C0
03C0
03C0
03C0
03C0
03C0
0FE0
1FF0
ENDCHAR
STARTCHAR uni20B9
ENCODING 8377
SWIDTH 520 0
DWIDTH 16 0
BBX 12 19 2 0
BITMAP
FFF0
3F00
0780
0780
FFF0
FFF0
0780
0780
0F00
FC00
FC00
0E00
0F00
0F00
0700
0780
0780
03E0
03F0
ENDCHAR
STARTCHAR uni20BA
ENCODING 8378
SWIDTH 520 0
DWIDTH 16 0
BBX 14 19 1 0
BITMAP
FF80
3C00
3C00
3C40
3CC0
3F80
3F00
3C00
FC40
FDC0
BF00
3C08
7C1C
FC1C
BC1C
3C18
3C18
3C70
3FC0
ENDCHAR
STARTCHAR uni20BD
ENCODING 8381
SWIDTH 520 0
DWIDTH 16 0
BBX 15 19 0 0
BITMAP
7FF0
1E7C
1E1C
1E0E
1E0E
1E0E
1E0E
1E1E
1E1C
1EFC
FFF0
1E00
1E00
FFF8
FFF8
1E00
1E00
3F00
7FC0
ENDCHAR
STARTCHAR uni20BF
ENCODING 8383
SWIDTH 520 0
DWIDTH 16 0
BBX 14 25 1 -3
BITMAP
0980
0980
0980
FFE0
39F0
3878
3878
3838
3838
3878
3870
3FC0
3FE0
3878
3838
383C
383C
383C
383C
3878
7FF0
FFC0
0980
0980
0980
ENDCHAR
STARTCHAR uni2113
ENCODING 8467
SWIDTH 504 0
DWIDTH 15 0
BBX 14 22 1 0
BITMAP
07C0
0EE0
1C70
3C70
3870
3870
3870
7870
7870
7860
78E0
78E0
79C0
7980
7B00
3F00
3E00
3C00
3C00
7E0C
CFF8
07F0
ENDCHAR
STARTCHAR uni2116
ENCODING 8470
SWIDTH 1021 0
DWIDTH 31 0
BBX 29 21 0 -1
BITMAP
00007800
3F00F800
0F80F800
07809000
07C18000
07C18000
05E187E0
05E18E30
04F18C38
04F99C38
04799C18
043D9C38
043D8C38
041F8E30
041F87E0
040F8180
04078000
7C078000
FC038FF8
78038FF8
20000000
ENDCHAR
STARTCHAR uni2117
ENCODING 8471
SWIDTH 750 0
DWIDTH 23 0
BBX 21 21 1 -1
BITMAP
03FE00
0E0700
1801C0
3000E0
63F860
60CE30
C0C630
C0C710
C0C710
C0C618
C0FE18
C0F018
C0C010
C0C030
60C030
63F060
300060
1801C0
0E0380
03FE00
002000
ENDCHAR
STARTCHAR uni2120
ENCODING 8480
SWIDTH 699 0
DWIDTH 21 0
BBX 19 9 1 11
BITMAP
7CE1E0
C461C0
C471C0
F072C0
7C7AC0
1C5CC0
8E9CC0
CC88C0
FDE9E0
ENDCHAR
STARTCHAR trademark
ENCODING 8482
SWIDTH 750 0
DWIDTH 23 0
BBX 20 9 1 11
BITMAP
FF7070
9938E0
9938E0
183CE0
182D60
182F60
182E60
182660
3C74F0
ENDCHAR
STARTCHAR Omega
ENCODING 8486
SWIDTH 729 0
DWIDTH 22 0
BBX 20 20 1 0
BITMAP
07FC00
0F1F00
1E0780
3C03C0
7801E0
7801E0
7801E0
7801E0
7801E0
7801E0
7801E0
7801E0
3803C0
3C03C0
1E0780
CF0E30
C39C30
FF9FF0
FF1FF0
FF1FF0
ENDCHAR
STARTCHAR estimated
ENCODING 8494
SWIDTH 800 0
DWIDTH 24 0
BBX 22 20 1 0
BITMAP
00FC00
030300
0C00C0
180060
300030
300030
700038
700038
700038
F0003C
FFFFFC
F00000
700000
700000
700000
300000
100020
080040
060180
01FE00
ENDCHAR
STARTCHAR onethird
ENCODING 8531
SWIDTH 867 0
DWIDTH 26 0
BBX 22 21 2 -1
BITMAP
080060
F800C0
B80080
380180
380300
380200
380600
380C00
3808E0
381B38
383318
FE631C
006018
00C038
0180F0
01801C
03001C
06061C
04071C
0C0338
0800E0
ENDCHAR
STARTCHAR twothirds
ENCODING 8532
SWIDTH 867 0
DWIDTH 26 0
BBX 23 21 2 -1
BITMAP
380020
CE0060
C700C0
C70080
070180
060300
0C0600
180600
300C60
6019B8
FF1B9C
FF311C
00601C
004038
00C0F8
01801C
01000C
03030E
06030C
0C033C
0400F0
ENDCHAR
STARTCHAR oneeighth
ENCODING 8539
SWIDTH 867 0
DWIDTH 26 0
BBX 22 21 2 -1
BITMAP
080040
F800C0
B80080
380180
380300
380200
380600
380C00
381860
3819B8
383318
FE6318
004398
00C3F0
0181F0
0101F8
03031C
06071C
04071C
0C0398
0800E0
ENDCHAR
STARTCHAR threeeighths
ENCODING 8540
SWIDTH 867 0
DWIDTH 26 0
BBX 22 21 2 -1
BITMAP
180040
6E0060
E700C0
C70180
070100
0E0300
3C0600
070400
030C70
C319D8
C7138C
CE338C
3C638C
00C1F0
00C0F8
0181BC
03031C
03030C
06030C
0C039C
0400F0
ENDCHAR
STARTCHAR fiveeighths
ENCODING 8541
SWIDTH 867 0
DWIDTH 26 0
BBX 22 21 2 -1
BITMAP
000040
7F0060
7F00C0
400180
400100
7C0300
4F0600
070C00
030C70
C319D8
C7338C
CE338C
386398
00C1F0
0080F8
0181BC
03031C
02030C
06030C
0C039C
0800F0
ENDCHAR
STARTCHAR seveneighths
ENCODING 8542
SWIDTH 867 0
DWIDTH 26 0
BBX 21 21 3 -1
BITMAP
000180
FF0300
FF0300
020600
060C00
040C00
0C1800
1C3000
1820C0
386770
30C630
708630
018730
0307E0
0203E0
0602F0
0C0638
180C38
180E38
300670
2003C0
ENDCHAR
STARTCHAR uni2190
ENCODING 8592
SWIDTH 660 0
DWIDTH 20 0
BBX 19 18 0 0
BITMAP
004000
00E000
01C000
038000
070000
0E0000
1C0000
380000
73FFE0
FFFFE0
701FE0
380000
1C0000
0E0000
070000
018000
00C000
006000
ENDCHAR
STARTCHAR arrowup
ENCODING 8593
SWIDTH 660 0
DWIDTH 20 0
BBX 18 19 1 -1
BITMAP
00C000
01E000
03F000
07F800
0EDC00
1CCE00
38C600
70C300
60C180
C0C0C0
00C000
00C000
00C000
00C000
00C000
00C000
00C000
00C000
00C000
ENDCHAR
STARTCHAR uni2192
ENCODING 8594
SWIDTH 660 0
DWIDTH 20 0
BBX 19 18 0 0
BITMAP
004000
006000
003000
001C00
000E00
000700
000380
0001C0
FFFCE0
FFFFE0
FF80E0
0001C0
000380
000600
000C00
001800
003000
006000
ENDCHAR
STARTCHAR arrowdown
ENCODING 8595
SWIDTH 660 0
DWIDTH 20 0
BBX 18 19 1 -1
BITMAP
00C000
00C000
00C000
00C000
00C000
00C000
00C000
00C000
80C040
C0C0C0
60C180
30C300
18C600
1CCC00
0ED800
07F800
03F000
01E000
00C000
ENDCHAR
STARTCHAR uni2196
ENCODING 8598
SWIDTH 660 0
DWIDTH 20 0
BBX 14 15 3 1
BITMAP
FC00
FFF8
E000
F000
D800
CC00
C700
C380
C3C0
C1E0
C0F0
C078
C03C
C01C
0008
ENDCHAR
STARTCHAR uni2197
ENCODING 8599
SWIDTH 660 0
DWIDTH 20 0
BBX 15 15 2 1
BITMAP
007C
7FFE
000E
001E
0076
00E6
01C6
0386
0706
0E06
1E06
3C04
7804
F004
2000
ENDCHAR
STARTCHAR uni2198
ENCODING 8600
SWIDTH 660 0
DWIDTH 20 0
BBX 15 14 2 2
BITMAP
6000
F004
7804
3C04
1E06
0F06
0786
0386
00C6
0066
0036
001E
3FFE
7FFE
ENDCHAR
STARTCHAR uni2199
ENCODING 8601
SWIDTH 660 0
DWIDTH 20 0
BBX 14 14 3 2
BITMAP
0008
C01C
C03C
C078
C0F0
C1E0
C380
C700
CE00
CC00
D800
F000
FFF8
FFF8
ENDCHAR
STARTCHAR partialdiff
ENCODING 8706
SWIDTH 546 0
DWIDTH 16 0
BBX 14 19 1 0
BITMAP
1FE0
18F0
0078
003C
003C
001C
001C
0FFC
1E3C
3C1C
781C
783C
703C
F038
7038
7070
7070
39E0
1F80
ENDCHAR
STARTCHAR Delta
ENCODING 8710
SWIDTH 603 0
DWIDTH 18 0
BBX 16 20 1 0
BITMAP
01C0
03C0
03C0
03E0
07E0
04E0
0CF0
0CF0
0878
1878
1078
103C
303C
201E
601E
601E
400F
FFFF
FFFF
FFFF
ENDCHAR
STARTCHAR product
ENCODING 8719
SWIDTH 767 0
DWIDTH 23 0
BBX 21 24 1 -4
BITMAP
FFFFF8
FFFFF8
1E03C0
1E03C0
1E03C0
1E03C0
1E03C0
1E03C0
1E03C0
1E03C0
1E03C0
1E03C0
1E03C0
1E03C0
1E03C0
1E03C0
1E03C0
1E03C0
1E03C0
1E03C0
1E03C0
1E03C0
FF8FF8
FF8FF8
ENDCHAR
STARTCHAR summation
ENCODING 8721
SWIDTH 568 0
DWIDTH 17 0
BBX 15 24 1 -4
BITMAP
FFFE
FFFE
F80E
780E
3C06
3E06
1E00
1F00
0F00
0780
07C0
03C0
0380
0300
0600
0E00
1C00
1806
3006
7006
E006
FFFE
FFFE
FFFE
ENDCHAR
STARTCHAR minus
ENCODING 8722
SWIDTH 537 0
DWIDTH 16 0
BBX 14 2 1 9
BITMAP
FFFC
FFFC
ENDCHAR
STARTCHAR uni2215
ENCODING 8725
SWIDTH 140 0
DWIDTH 4 0
BBX 15 21 -5 -1
BITMAP
0006
000C
0008
0018
0030
0020
0060
00C0
0080
0180
0300
0600
0600
0C00
1800
1800
3000
6000
4000
C000
8000
ENDCHAR
STARTCHAR uni2219
ENCODING 8729
SWIDTH 300 0
DWIDTH 9 0
BBX 5 4 2 8
BITMAP
70
F8
F8
70
ENDCHAR
STARTCHAR radical
ENCODING 8730
SWIDTH 565 0
DWIDTH 17 0
BBX 16 26 1 -3
BITMAP
0007
0007
0006
000E
000E
000E
000C
000C
001C
001C
0018
0018
FC18
FC38
1C30
0E30
0E30
0E30
0760
0760
0760
03E0
03C0
03C0
01C0
01C0
ENDCHAR
STARTCHAR infinity
ENCODING 8734
SWIDTH 787 0
DWIDTH 24 0
BBX 22 11 1 4
BITMAP
3F83F0
7FC7F8
7FEC38
C1F818
C0F80C
C0780C
C07C18
E0FF38
7F9FF8
3F0FF0
1C03C0
ENDCHAR
STARTCHAR integral
ENCODING 8747
SWIDTH 367 0
DWIDTH 11 0
BBX 15 30 -2 -7
BITMAP
003C
00DE
01DE
0380
0380
0380
0780
0780
0780
0780
0780
0780
0380
0380
0380
0380
0380
0380
0380
0380
03C0
03C0
03C0
0380
0380
0380
0380
E300
F600
FC00
ENDCHAR
STARTCHAR approxequal
ENCODING 8776
SWIDTH 537 0
DWIDTH 16 0
BBX 14 12 1 4
BITMAP
3C0C
7E0C
679C
E3F8
C0F0
0000
0000
3C0C
7E0C
679C
E3F8
C0F0
ENDCHAR
STARTCHAR notequal
ENCODING 8800
SWIDTH 537 0
DWIDTH 16 0
BBX 14 17 1 1
BITMAP
0010
0030
0060
0040
FFFC
FFFC
0180
0100
0300
0600
FFFC
FFFC
0800
1800
1000
3000
2000
ENDCHAR
STARTCHAR lessequal
ENCODING 8804
SWIDTH 537 0
DWIDTH 16 0
BBX 14 17 1 0
BITMAP
0018
0078
01F0
07C0
1F00
7C00
F000
F800
3E00
0F80
03E0
00F8
0038
0008
0000
FFFC
FFFC
ENDCHAR
STARTCHAR greaterequal
ENCODING 8805
SWIDTH 537 0
DWIDTH 16 0
BBX 14 17 1 0
BITMAP
6000
7800
3E00
0F80
03E0
00F8
003C
003C
01F0
07C0
1F00
7C00
7000
4000
0000
FFFC
FFFC
ENDCHAR
STARTCHAR uni25A0
ENCODING 9632
SWIDTH 720 0
DWIDTH 22 0
BBX 18 18 2 0
BITMAP
FFFFC0
FFFFC0
FFFFC0
FFFFC0
FFFFC0
FFFFC0
FFFFC0
FFFFC0
FFFFC0
FFFFC0
FFFFC0
FFFFC0
FFFFC0
FFFFC0
FFFFC0
FFFFC0
FFFFC0
FFFFC0
ENDCHAR
STARTCHAR triagup
ENCODING 9650
SWIDTH 595 0
DWIDTH 18 0
BBX 16 14 1 1
BITMAP
0180
0380
03C0
07E0
07E0
0FF0
0FF0
1FF8
3FF8
3FFC
7FFE
7FFE
FFFF
FFFF
ENDCHAR
STARTCHAR uni25B3
ENCODING 9651
SWIDTH 595 0
DWIDTH 18 0
BBX 16 14 1 1
BITMAP
0180
0380
03C0
07E0
0660
0C70
0C30
1818
3818
300C
700E
6006
FFFF
FFFF
ENDCHAR
STARTCHAR uni25B6
ENCODING 9654
SWIDTH 595 0
DWIDTH 18 0
BBX 15 16 2 0
BITMAP
C000
F000
FC00
FF00
FF80
FFE0
FFF8
FFFC
FFFE
FFF8
FFE0
FF80
FF00
FC00
F000
E000
ENDCHAR
STARTCHAR uni25B7
ENCODING 9655
SWIDTH 595 0
DWIDTH 18 0
BBX 15 16 2 0
BITMAP
C000
F000
FC00
CF00
C780
C1E0
C078
C03C
C01E
C078
C1E0
C380
CF00
FC00
F000
E000
ENDCHAR
STARTCHAR triagdn
ENCODING 9660
SWIDTH 595 0
DWIDTH 18 0
BBX 16 14 1 1
BITMAP
FFFF
FFFF
7FFE
7FFC
3FFC
1FF8
1FF8
0FF0
0FF0
07E0
07C0
03C0
0180
0180
ENDCHAR
STARTCHAR uni25BD
ENCODING 9661
SWIDTH 595 0
DWIDTH 18 0
BBX 16 14 1 1
BITMAP
FFFF
FFFF
6006
700C
300C
1818
1838
0C30
0E70
0660
07C0
03C0
0180
0180
ENDCHAR
STARTCHAR uni25C0
ENCODING 9664
SWIDTH 595 0
DWIDTH 18 0
BBX 15 16 1 0
BITMAP
0006
001E
007E
01FE
03FE
0FFE
3FFE
FFFE
FFFE
3FFE
0FFE
07FE
01FE
007E
001E
000E
ENDCHAR
STARTCHAR uni25C1
ENCODING 9665
SWIDTH 595 0
DWIDTH 18 0
BBX 15 16 1 0
BITMAP
0006
001E
007E
01E6
03C6
0F06
3C06
F006
F006
3C06
0F06
0786
01E6
007E
001E
000E
ENDCHAR
STARTCHAR uni25C6
ENCODING 9670
SWIDTH 748 0
DWIDTH 22 0
BBX 21 22 1 -2
BITMAP
002000
006000
00F000
01F800
03FC00
07FE00
0FFF00
1FFF80
3FFFC0
7FFFE0
FFFFF0
FFFFF8
7FFFE0
3FFFC0
1FFF80
0FFF00
07FE00
03FC00
01F800
00F000
006000
002000
ENDCHAR
STARTCHAR uni25C9
ENCODING 9673
SWIDTH 465 0
DWIDTH 14 0
BBX 12 12 1 4
BITMAP
0F00
39C0
6060
C630
8F10
9F90
9F90
9F90
CF30
4020
70C0
1F80
ENDCHAR
STARTCHAR lozenge
ENCODING 9674
SWIDTH 595 0
DWIDTH 18 0
BBX 14 23 2 -2
BITMAP
0300
0700
0780
0FC0
0CC0
1CE0
3860
3070
7038
6018
E01C
C01C
E018
7038
3030
3870
1860
1CC0
0CC0
0780
0780
0300
0300
ENDCHAR
STARTCHAR uni2610
ENCODING 9744
SWIDTH 800 0
DWIDTH 24 0
BBX 20 20 2 -1
BITMAP
FFFFF0
FFFFF0
C00030
C00030
C00030
C00030
C00030
C00030
C00030
C00030
C00030
C00030
C00030
C00030
C00030
C00030
C00030
C00030
FFFFF0
FFFFF0
ENDCHAR
STARTCHAR uni2611
ENCODING 9745
SWIDTH 800 0
DWIDTH 24 0
BBX 20 27 2 -1
BITMAP
000030
000030
000060
000060
0000C0
0000C0
000180
FFFFF0
FFFFF0
C00330
C00730
C00630
C20630
CE0E30
CF0C30
C70C30
C39830
C39830
C1D830
C1F030
C0F030
C0F030
C0F030
C06030
C00030
FFFFF0
FFFFF0
ENDCHAR
STARTCHAR musicalnote
ENCODING 9834
SWIDTH 527 0
DWIDTH 16 0
BBX 14 22 1 0
BITMAP
0300
0300
0380
03C0
03E0
03F0
0378
033C
031C
030C
030C
030C
0308
0308
0310
0300
0300
7F00
FF00
FF00
FE00
FC00
ENDCHAR
STARTCHAR uni2713
ENCODING 10003
SWIDTH 623 0
DWIDTH 19 0
BBX 16 24 2 0
BITMAP
0003
0007
0006
000E
000C
001C
0018
0018
0030
0030
0070
0060
40E0
E0C0
E0C0
71C0
7180
3980
3B80
1F00
1F00
0F00
0E00
0600
ENDCHAR
STARTCHAR uni2752
ENCODING 10066
SWIDTH 924 0
DWIDTH 28 0
BBX 24 24 2 -2
BITMAP
1FFFFF
3FFFFF
FFFFFF
FFFFFF
80000F
80000F
80000F
80000F
80000F
80000F
80000F
80000F
80000F
80000F
80000F
80000F
80000F
80000F
80000F
80000F
80000E
80000C
FFFFFC
FFFFF8
ENDCHAR
STARTCHAR uni2E3A
ENCODING 11834
SWIDTH 1569 0
DWIDTH 47 0
BBX 45 3 1 6
BITMAP
FFFFFFFFFFF8
FFFFFFFFFFF8
FFFFFFFFFFF8
ENDCHAR
STARTCHAR uni2E3B
ENCODING 11835
SWIDTH 2314 0
DWIDTH 69 0
BBX 67 3 1 6
BITMAP
FFFFFFFFFFFFFFFFE0
FFFFFFFFFFFFFFFFE0
FFFFFFFFFFFFFFFFE0
ENDCHAR
STARTCHAR f_f
ENCODING 64256
SWIDTH 667 0
DWIDTH 20 0
BBX 22 22 1 0
BITMAP
03F1F8
0EF37C
0C7738
1C0E00
1C0E00
3C0E00
3C0E00
3C1E00
FFFFE0
3C1E00
3C1E00
3C1E00
3C1E00
3C1E00
3C1E00
3C1E00
3C1E00
3C1E00
3C1E00
3C1E00
7E1F00
FF7FC0
ENDCHAR
STARTCHAR f_i
ENCODING 64257
SWIDTH 623 0
DWIDTH 19 0
BBX 17 22 1 0
BITMAP
03F800
073C00
0E1E00
1C0C00
1C0000
3C0000
3C0000
3C0600
FFFE00
3C1E00
3C1E00
3C1E00
3C1E00
3C1E00
3C1E00
3C1E00
3C1E00
3C1E00
3C1E00
3C1E00
7E1F00
FF7F80
ENDCHAR
STARTCHAR f_l
ENCODING 64258
SWIDTH 624 0
DWIDTH 19 0
BBX 17 22 1 0
BITMAP
03F600
06FE00
0E7E00
1C1E00
1C1E00
3C1E00
3C1E00
3C1E00
FF9E00
3C1E00
3C1E00
3C1E00
3C1E00
3C1E00
3C1E00
3C1E00
3C1E00
3C1E00
3C1E00
3C1E00
7E1F00
FF7F80
ENDCHAR
STARTCHAR f_f_i
ENCODING 64259
SWIDTH 932 0
DWIDTH 28 0
BBX 26 22 1 0
BITMAP
03F0FE00
0EF39F00
0C770F00
1C0F0700
1C0E0000
3C0E0000
3C0E0000
3C1E0300
FFFFFF00
3C1E0700
3C1E0700
3C1E0700
3C1E0700
3C1E0700
3C1E0700
3C1E0700
3C1E0700
3C1E0700
3C1E0700
3C1E0700
7E1F0F80
FF7F9FC0
ENDCHAR
STARTCHAR f_f_l
ENCODING 64260
SWIDTH 933 0
DWIDTH 28 0
BBX 26 22 1 0
BITMAP
03F1FD00
0EF3BF00
0C771F00
1C0E0700
1C0E0700
3C0E0700
3C0E0700
3C1E0700
FFFFE700
3C1E0700
3C1E0700
3C1E0700
3C1E0700
3C1E0700
3C1E0700
3C1E0700
3C1E0700
3C1E0700
3C1E0700
3C1E0700
7E1F0F80
FF7F9FC0
ENDCHAR
STARTCHAR u1F12F
ENCODING -1
SWIDTH 750 0
DWIDTH 23 0
BBX 21 21 1 -1
BITMAP
03FE00
0E0700
1801C0
3000E0
61F860
631C30
C30E30
C30610
C00710
C00718
C00718
C00718
C20610
C30E30
631C30
61F860
300060
1801C0
0E0380
03FE00
002000
ENDCHAR
STARTCHAR u1F16A
ENCODING -1
SWIDTH 750 0
DWIDTH 23 0
BBX 21 9 0 11
BITMAP
7071F8
38E318
38E718
396700
3D6600
2E6700
2E6700
266318
F4F1F8
ENDCHAR
STARTCHAR u1F16B
ENCODING -1
SWIDTH 750 0
DWIDTH 23 0
BBX 22 9 0 11
BITMAP
7077F0
30E398
38E39C
39638C
3D638C
2E638C
2E639C
266398
F4F7F0
ENDCHAR
STARTCHAR .notdef
ENCODING -1
SWIDTH 640 0
DWIDTH 19 0
BBX 15 20 2 0
BITMAP
FFFE
FFFE
F01E
F83E
D836
CC76
CE66
C6C6
C3C6
C386
C386
C3C6
C6C6
CE66
CC66
D836
D83E
F01E
FFFE
FFFE
ENDCHAR
STARTCHAR uni00470303
ENCODING -1
SWIDTH 678 0
DWIDTH 20 0
BBX 19 27 1 -1
BITMAP
01C100
03E300
07FE00
063E00
040800
000000
03FF00
0F8780
1E0380
3C0380
3C0380
780180
780000
F80000
F80000
F80000
F03FE0
F03FE0
F80780
780780
780780
7C0780
3C0780
1E0780
0F8780
03FF00
006000
ENDCHAR
STARTCHAR uni00670303
ENCODING -1
SWIDTH 530 0
DWIDTH 16 0
BBX 14 29 1 -7
BITMAP
0820
3E30
3FE0
23E0
61C0
0000
0000
0F84
3FFC
70FC
7070
F070
F070
7070
70F0
3DE0
3F80
2000
6000
7800
7FF8
7FFC
3FFC
601C
C01C
E01C
E038
7FF0
3FC0
ENDCHAR
STARTCHAR idieresis.narrow
ENCODING -1
SWIDTH 307 0
DWIDTH 9 0
BBX 8 21 1 0
BITMAP
EF
EF
EF
00
00
00
0C
7C
FC
3C
3C
3C
3C
3C
3C
3C
3C
3C
3C
7C
FE
ENDCHAR
STARTCHAR i.trk
ENCODING -1
SWIDTH 307 0
DWIDTH 9 0
BBX 7 22 1 0
BITMAP
38
3C
7C
3C
00
00
00
0C
7C
FC
3C
3C
3C
3C
3C
3C
3C
3C
3C
3C
7C
FE
ENDCHAR
STARTCHAR f_t
ENCODING -1
SWIDTH 662 0
DWIDTH 20 0
BBX 19 22 1 0
BITMAP
03F000
06F000
0C7000
1C0600
1C0E00
3C0E00
3C0E00
3C0E00
FFFFC0
3C1E00
3C1E00
3C1E00
3C1E00
3C1E00
3C1E00
3C1E00
3C1E00
3C1E00
3C1E00
3C1E00
7E1FE0
FF0FC0
ENDCHAR
STARTCHAR zero.slash
ENCODING -1
SWIDTH 520 0
DWIDTH 16 0
BBX 14 20 1 0
BITMAP
0300
1FC8
38EC
3878
7070
7078
F078
F0F8
F1B8
F138
F338
F638
F438
FC38
7838
7078
7070
7870
FCE0
8FC0
ENDCHAR
STARTCHAR zero.lf
ENCODING -1
SWIDTH 515 0
DWIDTH 15 0
BBX 13 20 1 0
BITMAP
0200
1FC0
38E0
7870
7070
7078
F078
F038
F038
F038
F038
F038
F038
F078
F078
7078
7070
3870
3CE0
1FC0
ENDCHAR
STARTCHAR one.lf
ENCODING -1
SWIDTH 407 0
DWIDTH 12 0
BBX 11 19 1 0
BITMAP
1E00
FE00
CE00
0E00
0E00
0E00
0E00
0E00
0E00
0E00
0E00
0E00
0E00
0E00
0E00
0E00
0E00
3F80
FFE0
ENDCHAR
STARTCHAR two.lf
ENCODING -1
SWIDTH 519 0
DWIDTH 16 0
BBX 13 20 1 0
BITMAP
0300
1FE0
70F0
70F0
F078
F078
0078
0070
00F0
00E0
01C0
03C0
0300
0600
0C00
1800
3000
7FF8
FFF8
FFF8
ENDCHAR
STARTCHAR three.lf
ENCODING -1
SWIDTH 515 0
DWIDTH 15 0
BBX 13 20 1 0
BITMAP
0200
3FE0
70F0
7070
7078
2078
0070
00F0
01E0
0F80
0FC0
00F0
0078
0078
0078
E078
E078
F070
71F0
3FC0
ENDCHAR
STARTCHAR four.lf
ENCODING -1
SWIDTH 512 0
DWIDTH 15 0
BBX 14 19 1 0
BITMAP
00E0
01E0
03E0
03E0
06E0
0CE0
08E0
18E0
30E0
60E0
60E0
FFFC
FFFC
FFFC
00E0
00E0
00E0
00E0
00E0
ENDCHAR
STARTCHAR five.lf
ENCODING -1
SWIDTH 518 0
DWIDTH 16 0
BBX 13 19 1 0
BITMAP
3FF8
3FF8
3FF8
3000
3000
3000
3000
3F80
3FE0
01F0
0078
0078
0078
0038
E078
F078
F070
71F0
3FC0
ENDCHAR
STARTCHAR six.lf
ENCODING -1
SWIDTH 520 0
DWIDTH 16 0
BBX 14 20 1 0
BITMAP
0008
00F8
03C0
0F00
1E00
3C00
3800
7800
73C0
FFF0
F8F8
F078
F03C
F03C
F03C
7038
7038
7878
3CF0
1FC0
ENDCHAR
STARTCHAR seven.lf
ENCODING -1
SWIDTH 499 0
DWIDTH 15 0
BBX 13 19 1 0
BITMAP
FFF8
FFF8
FFF8
0030
0030
0060
00E0
00C0
01C0
01C0
0380
0380
0700
0700
0F00
0E00
1E00
1C00
3C00
ENDCHAR
STARTCHAR eight.lf
ENCODING -1
SWIDTH 520 0
DWIDTH 16 0
BBX 13 20 1 0
BITMAP
0300
1FE0
3870
7070
7038
7070
7870
7C60
3EC0
3F80
0FE0
1FF0
38F8
7078
F038
F038
F038
7078
7870
3FE0
ENDCHAR
STARTCHAR nine.lf
ENCODING -1
SWIDTH 527 0
DWIDTH 16 0
BBX 14 21 1 -1
BITMAP
0300
1FE0
38F0
7070
F078
F038
F038
F03C
F03C
783C
7CF8
3FB8
0478
0070
0070
00E0
01C0
0380
0F00
3C00
2000
ENDCHAR
STARTCHAR zero.lfslash
ENCODING -1
SWIDTH 515 0
DWIDTH 15 0
BBX 14 20 1 0
BITMAP
0300
1FC8
38EC
7878
7070
7078
F078
F0F8
F1B8
F138
F238
F638
F438
F878
F878
7078
7070
7870
FCE0
9FC0
ENDCHAR
STARTCHAR zero.tosf
ENCODING -1
SWIDTH 520 0
DWIDTH 16 0
BBX 14 16 1 0
BITMAP
0FC0
3CE0
3870
7078
7038
F038
F03C
F03C
F03C
F03C
F038
F038
7078
7870
38F0
1FC0
ENDCHAR
STARTCHAR one.tosf
ENCODING -1
SWIDTH 520 0
DWIDTH 16 0
BBX 12 16 2 0
BITMAP
0700
7F00
FF00
0F00
0F00
0F00
0F00
0F00
0F00
0F00
0F00
0F00
0F00
0F00
7FC0
FFF0
ENDCHAR
STARTCHAR two.tosf
ENCODING -1
SWIDTH 520 0
DWIDTH 16 0
BBX 12 16 2 0
BITMAP
1F80
73E0
F1E0
E0F0
E0F0
C0E0
01E0
01C0
0380
0700
0C00
3800
7000
FFF0
FFF0
FFF0
ENDCHAR
STARTCHAR three.tosf
ENCODING -1
SWIDTH 520 0
DWIDTH 16 0
BBX 13 20 1 -3
BITMAP
0200
1FE0
38F0
7878
7078
2078
0078
0070
00E0
0FC0
0FE0
00F0
0078
0038
0038
E038
F078
7078
70F0
3FE0
ENDCHAR
STARTCHAR four.tosf
ENCODING -1
SWIDTH 520 0
DWIDTH 16 0
BBX 14 19 1 -3
BITMAP
00E0
01E0
03E0
02E0
06E0
0CE0
08E0
18E0
30E0
60E0
60E0
FFFC
FFFC
FFFC
00E0
00E0
00E0
00E0
00E0
ENDCHAR
STARTCHAR five.tosf
ENCODING -1
SWIDTH 520 0
DWIDTH 16 0
BBX 13 19 1 -3
BITMAP
3FF8
3FF8
3FF8
3000
3000
3000
3000
3F80
3FE0
01F0
0078
0078
0038
0038
E078
F078
F070
71F0
3FC0
ENDCHAR
STARTCHAR six.tosf
ENCODING -1
SWIDTH 520 0
DWIDTH 16 0
BBX 13 20 1 0
BITMAP
0010
00F0
03C0
0F00
1E00
3C00
3800
7800
73C0
FFF0
F8F8
F078
F038
F038
F038
F038
7078
7870
38F0
1FC0
ENDCHAR
STARTCHAR seven.tosf
ENCODING -1
SWIDTH 520 0
DWIDTH 16 0
BBX 13 19 1 -3
BITMAP
FFF8
FFF8
FFF8
0018
0030
0030
0060
00E0
00E0
01C0
01C0
0380
0380
0780
0700
0F00
0E00
1E00
1E00
ENDCHAR
STARTCHAR eight.tosf
ENCODING -1
SWIDTH 520 0
DWIDTH 16 0
BBX 13 20 1 0
BITMAP
0300
1FE0
3870
7070
7038
7030
7870
7C70
3EC0
1F80
0FE0
1FF0
38F8
7078
F038
F038
F038
7078
7870
3FE0
ENDCHAR
STARTCHAR nine.tosf
ENCODING -1
SWIDTH 520 0
DWIDTH 16 0
BBX 14 21 1 -4
BITMAP
0300
1FE0
38F0
7070
F078
F038
F038
F03C
F03C
7838
7CF8
3FB8
0678
0070
00F0
00E0
01C0
0380
0F00
3C00
2000
ENDCHAR
STARTCHAR zero.osf
ENCODING -1
SWIDTH 546 0
DWIDTH 16 0
BBX 14 16 1 0
BITMAP
0FC0
1CF0
3878
7038
F03C
F03C
F01C
F01C
F01C
F01C
F01C
F03C
703C
7838
3C70
1FE0
ENDCHAR
STARTCHAR one.osf
ENCODING -1
SWIDTH 422 0
DWIDTH 13 0
BBX 11 16 1 0
BITMAP
0700
7F00
FF00
0F00
0F00
0F00
0F00
0F00
0F00
0F00
0F00
0F00
0F00
0F00
3FC0
7FE0
ENDCHAR
STARTCHAR two.osf
ENCODING -1
SWIDTH 512 0
DWIDTH 15 0
BBX 13 16 1 0
BITMAP
0FC0
39F0
70F0
7070
7078
6070
00F0
00E0
01C0
0380
0E00
1C00
3000
7FF8
FFF8
FFF8
ENDCHAR
STARTCHAR three.osf
ENCODING -1
SWIDTH 515 0
DWIDTH 15 0
BBX 13 20 1 -3
BITMAP
0200
3FE0
70F0
7070
7078
2078
0070
00F0
01E0
0F80
0FC0
00F0
0078
0078
0078
E078
E078
F070
71F0
3FC0
ENDCHAR
STARTCHAR four.osf
ENCODING -1
SWIDTH 512 0
DWIDTH 15 0
BBX 14 19 1 -3
BITMAP
00E0
01E0
03E0
03E0
06E0
0CE0
08E0
18E0
30E0
60E0
60E0
FFFC
FFFC
FFFC
00E0
00E0
00E0
00E0
00E0
ENDCHAR
STARTCHAR five.osf
ENCODING -1
SWIDTH 518 0
DWIDTH 16 0
BBX 13 19 1 -3
BITMAP
3FF8
3FF8
3FF8
3000
3000
3000
3000
3F80
3FE0
01F0
0078
0078
0078
0038
E078
F078
F070
71F0
3FC0
ENDCHAR
STARTCHAR six.osf
ENCODING -1
SWIDTH 520 0
DWIDTH 16 0
BBX 14 20 1 0
BITMAP
0008
00F8
03C0
0F00
1E00
3C00
3800
7800
73C0
FFF0
F8F8
F078
F03C
F03C
F03C
7038
7038
7878
3CF0
1FC0
ENDCHAR
STARTCHAR seven.osf
ENCODING -1
SWIDTH 499 0
DWIDTH 15 0
BBX 13 19 1 -3
BITMAP
FFF8
FFF8
FFF8
0030
0030
0060
00E0
00C0
01C0
01C0
0380
0380
0700
0700
0F00
0E00
1E00
1C00
3C00
ENDCHAR
STARTCHAR eight.osf
ENCODING -1
SWIDTH 520 0
DWIDTH 16 0
BBX 13 20 1 0
BITMAP
0300
1FE0
3870
7070
7038
7070
7870
7C60
3EC0
3F80
0FE0
1FF0
38F8
7078
F038
F038
F038
7078
7870
3FE0
ENDCHAR
STARTCHAR nine.osf
ENCODING -1
SWIDTH 527 0
DWIDTH 16 0
BBX 14 21 1 -4
BITMAP
0300
1FE0
38F0
7070
F078
F038
F038
F03C
F03C
783C
7CF8
3FB8
0478
0070
0070
00E0
01C0
0380
0F00
3C00
2000
ENDCHAR
STARTCHAR zero.cap
ENCODING -1
SWIDTH 515 0
DWIDTH 15 0
BBX 13 20 1 0
BITMAP
0FC0
1CE0
3870
7070
7078
F038
F038
F038
F038
F038
F038
F038
F038
F038
F038
7078
7070
3870
38E0
0FC0
ENDCHAR
STARTCHAR one.cap
ENCODING -1
SWIDTH 407 0
DWIDTH 12 0
BBX 11 20 1 0
BITMAP
0E00
FE00
FE00
0E00
0E00
0E00
0E00
0E00
0E00
0E00
0E00
0E00
0E00
0E00
0E00
0E00
0E00
0E00
3F80
FFE0
ENDCHAR
STARTCHAR two.cap
ENCODING -1
SWIDTH 519 0
DWIDTH 16 0
BBX 13 20 1 0
BITMAP
1FC0
31F0
70F0
F078
F078
2078
0078
0070
00F0
00E0
01C0
0380
0700
0E00
1C00
1800
3000
7FF8
FFF8
FFF8
ENDCHAR
STARTCHAR three.cap
ENCODING -1
SWIDTH 515 0
DWIDTH 15 0
BBX 13 20 1 0
BITMAP
1FC0
39E0
70F0
7070
7078
0070
0070
00F0
01E0
0F80
03E0
00F0
0078
0078
0078
E078
E078
F070
71F0
3FC0
ENDCHAR
STARTCHAR four.cap
ENCODING -1
SWIDTH 512 0
DWIDTH 15 0
BBX 14 20 1 0
BITMAP
00E0
01E0
01E0
03E0
06E0
04E0
0CE0
18E0
10E0
30E0
60E0
C0E0
FFFC
FFFC
FFFC
00E0
00E0
00E0
00E0
00E0
ENDCHAR
STARTCHAR five.cap
ENCODING -1
SWIDTH 518 0
DWIDTH 16 0
BBX 13 20 1 0
BITMAP
3FF8
3FF8
3FF8
3000
3000
3000
3000
3000
3FC0
3FF0
00F8
0078
0078
0078
0038
E078
F078
F070
71F0
3FC0
ENDCHAR
STARTCHAR six.cap
ENCODING -1
SWIDTH 520 0
DWIDTH 16 0
BBX 14 20 1 0
BITMAP
0078
03E0
0700
0E00
1C00
3800
7800
7000
77E0
FFF0
F078
F038
F03C
F03C
F03C
703C
7838
3878
3C70
0FE0
ENDCHAR
STARTCHAR seven.cap
ENCODING -1
SWIDTH 499 0
DWIDTH 15 0
BBX 13 20 1 0
BITMAP
FFF8
FFF8
FFF8
0030
0030
0060
0060
00E0
00C0
01C0
0180
0380
0380
0700
0700
0F00
0E00
1E00
1C00
3C00
ENDCHAR
STARTCHAR eight.cap
ENCODING -1
SWIDTH 520 0
DWIDTH 16 0
BBX 13 20 1 0
BITMAP
0FC0
38E0
7070
7070
7038
7070
7870
7CE0
3FC0
1FC0
0FE0
1BF0
30F8
7078
F038
F038
F038
7078
78F0
1FE0
ENDCHAR
STARTCHAR nine.cap
ENCODING -1
SWIDTH 527 0
DWIDTH 16 0
BBX 14 21 1 -1
BITMAP
1FC0
38E0
7070
7078
F038
F038
F03C
F03C
F03C
7838
3FF8
1FF8
0078
0070
00F0
00E0
01C0
0780
1F00
3C00
2000
ENDCHAR
STARTCHAR exclamdown.cap
ENCODING -1
SWIDTH 317 0
DWIDTH 10 0
BBX 5 20 2 0
BITMAP
70
F8
F8
78
00
00
00
30
30
30
30
70
70
70
78
78
78
F8
F8
78
ENDCHAR
STARTCHAR questiondown.cap
ENCODING -1
SWIDTH 432 0
DWIDTH 13 0
BBX 9 20 2 0
BITMAP
0F00
0F80
0F00
0F00
0000
0000
0000
0200
0600
0F00
7F00
FE00
F000
C000
C000
C000
7C00
3F80
1F80
0F80
ENDCHAR
STARTCHAR guilsinglleft.cap
ENCODING -1
SWIDTH 308 0
DWIDTH 9 0
BBX 7 13 1 2
BITMAP
02
06
1C
38
70
F0
E0
F0
70
38
0C
06
02
ENDCHAR
STARTCHAR guilsinglright.cap
ENCODING -1
SWIDTH 308 0
DWIDTH 9 0
BBX 7 13 1 2
BITMAP
80
E0
70
38
1C
0E
0E
0E
1C
38
70
C0
80
ENDCHAR
STARTCHAR guillemotleft.cap
ENCODING -1
SWIDTH 518 0
DWIDTH 16 0
BBX 14 13 1 2
BITMAP
0208
061C
1C30
3860
71E0
F3C0
E380
F3C0
70E0
3870
0C30
061C
0208
ENDCHAR
STARTCHAR guillemotright.cap
ENCODING -1
SWIDTH 518 0
DWIDTH 16 0
BBX 14 13 1 2
BITMAP
8100
E380
71C0
38E0
1C70
0E3C
0E1C
0E38
1C70
38E0
71C0
C380
8100
ENDCHAR
STARTCHAR hyphen.cap
ENCODING -1
SWIDTH 325 0
DWIDTH 10 0
BBX 8 3 1 8
BITMAP
FF
FF
FF
ENDCHAR
STARTCHAR endash.cap
ENCODING -1
SWIDTH 525 0
DWIDTH 16 0
BBX 14 3 1 8
BITMAP
FFFC
FFFC
FFFC
ENDCHAR
STARTCHAR emdash.cap
ENCODING -1
SWIDTH 825 0
DWIDTH 25 0
BBX 23 3 1 8
BITMAP
FFFFFE
FFFFFE
FFFFFE
ENDCHAR
STARTCHAR horizontalbar.cap
ENCODING -1
SWIDTH 825 0
DWIDTH 25 0
BBX 23 3 1 8
BITMAP
FFFFFE
FFFFFE
FFFFFE
ENDCHAR
STARTCHAR parenleft.cap
ENCODING -1
SWIDTH 358 0
DWIDTH 11 0
BBX 8 27 2 -4
BITMAP
03
06
0E
1C
1C
38
38
70
70
70
60
E0
E0
E0
E0
E0
E0
70
70
70
30
38
18
1C
0E
06
03
ENDCHAR
STARTCHAR parenright.cap
ENCODING -1
SWIDTH 358 0
DWIDTH 11 0
BBX 7 27 1 -4
BITMAP
C0
E0
60
30
38
18
1C
0C
0E
0E
0E
0E
0E
0E
0E
0E
0E
0E
0E
0C
1C
1C
38
30
70
E0
C0
ENDCHAR
STARTCHAR bracketleft.cap
ENCODING -1
SWIDTH 333 0
DWIDTH 10 0
BBX 6 26 3 -4
BITMAP
FC
E0
E0
E0
E0
E0
E0
E0
E0
E0
E0
E0
E0
E0
E0
E0
E0
E0
E0
E0
E0
E0
E0
E0
FC
FC
ENDCHAR
STARTCHAR bracketright.cap
ENCODING -1
SWIDTH 333 0
DWIDTH 10 0
BBX 6 26 1 -4
BITMAP
FC
1C
1C
1C
1C
1C
1C
1C
1C
1C
1C
1C
1C
1C
1C
1C
1C
1C
1C
1C
1C
1C
1C
1C
FC
FC
ENDCHAR
STARTCHAR braceleft.cap
ENCODING -1
SWIDTH 340 0
DWIDTH 10 0
BBX 8 26 1 -4
BITMAP
1F
1C
38
38
38
38
18
1C
1C
0C
18
38
E0
78
18
0C
0C
1C
18
18
38
38
38
3C
1F
07
ENDCHAR
STARTCHAR braceright.cap
ENCODING -1
SWIDTH 340 0
DWIDTH 10 0
BBX 8 26 1 -4
BITMAP
F8
3C
1C
1C
1C
1C
18
18
38
38
18
1C
07
0F
18
18
38
18
18
1C
1C
1C
1C
1C
F8
E0
ENDCHAR
STARTCHAR at.cap
ENCODING -1
SWIDTH 862 0
DWIDTH 26 0
BBX 24 25 1 -3
BITMAP
000F00
00FFE0
038070
060018
0C000C
180006
383EC6
3073C6
60E183
61C383
61C383
E18383
C38386
C38306
C38706
C3870C
E3FB18
61F3F0
60E0C0
300000
380000
1C0000
0F0100
03FF80
003000
ENDCHAR
STARTCHAR bracketleft.sups
ENCODING -1
SWIDTH 268 0
DWIDTH 8 0
BBX 4 16 3 10
BITMAP
F0
C0
C0
C0
C0
C0
C0
C0
C0
C0
C0
C0
C0
C0
C0
F0
ENDCHAR
STARTCHAR bracketright.sups
ENCODING -1
SWIDTH 268 0
DWIDTH 8 0
BBX 4 16 1 10
BITMAP
F0
30
30
30
30
30
30
30
30
30
30
30
30
30
30
F0
ENDCHAR
STARTCHAR period.sups
ENCODING -1
SWIDTH 232 0
DWIDTH 7 0
BBX 3 4 2 12
BITMAP
40
E0
E0
40
ENDCHAR
STARTCHAR comma.sups
ENCODING -1
SWIDTH 224 0
DWIDTH 7 0
BBX 4 7 1 9
BITMAP
20
70
70
30
30
60
C0
ENDCHAR
STARTCHAR colon.sups
ENCODING -1
SWIDTH 232 0
DWIDTH 7 0
BBX 3 10 2 12
BITMAP
E0
E0
E0
00
00
00
40
E0
E0
40
ENDCHAR
STARTCHAR hyphen.sups
ENCODING -1
SWIDTH 251 0
DWIDTH 8 0
BBX 5 2 1 16
BITMAP
F8
F8
ENDCHAR
STARTCHAR endash.sups
ENCODING -1
SWIDTH 379 0
DWIDTH 11 0
BBX 9 2 1 16
BITMAP
FF80
FF80
ENDCHAR
STARTCHAR emdash.sups
ENCODING -1
SWIDTH 571 0
DWIDTH 17 0
BBX 15 2 1 16
BITMAP
FFFE
FFFE
ENDCHAR
STARTCHAR bracketleft.subs
ENCODING -1
SWIDTH 268 0
DWIDTH 8 0
BBX 4 16 3 -9
BITMAP
F0
C0
C0
C0
C0
C0
C0
C0
C0
C0
C0
C0
C0
C0
C0
F0
ENDCHAR
STARTCHAR bracketright.subs
ENCODING -1
SWIDTH 268 0
DWIDTH 8 0
BBX 4 16 1 -9
BITMAP
F0
30
30
30
30
30
30
30
30
30
30
30
30
30
30
F0
ENDCHAR
STARTCHAR period.subs
ENCODING -1
SWIDTH 232 0
DWIDTH 7 0
BBX 3 4 2 -7
BITMAP
40
E0
E0
40
ENDCHAR
STARTCHAR comma.subs
ENCODING -1
SWIDTH 224 0
DWIDTH 7 0
BBX 4 7 1 -10
BITMAP
20
70
70
30
30
60
C0
ENDCHAR
STARTCHAR zero.dnom
ENCODING -1
SWIDTH 371 0
DWIDTH 11 0
BBX 9 13 1 -1
BITMAP
0C00
3600
6300
6380
E380
E380
E380
E380
E380
6380
6300
3600
1C00
ENDCHAR
STARTCHAR one.dnom
ENCODING -1
SWIDTH 371 0
DWIDTH 11 0
BBX 8 12 2 0
BITMAP
08
F8
F8
38
38
38
38
38
38
38
38
FF
ENDCHAR
STARTCHAR two.dnom
ENCODING -1
SWIDTH 371 0
DWIDTH 11 0
BBX 9 12 1 0
BITMAP
0C00
6F00
E300
E300
0300
0700
0600
0C00
1800
3000
7F80
FF80
ENDCHAR
STARTCHAR three.dnom
ENCODING -1
SWIDTH 371 0
DWIDTH 11 0
BBX 9 13 1 -1
BITMAP
1C00
6F00
6300
6300
0300
0600
1E00
0300
0380
C380
E380
6700
1C00
ENDCHAR
STARTCHAR four.dnom
ENCODING -1
SWIDTH 371 0
DWIDTH 11 0
BBX 9 11 1 0
BITMAP
0600
0E00
1600
3600
2600
4600
C600
FF80
FF80
0600
0600
ENDCHAR
STARTCHAR five.dnom
ENCODING -1
SWIDTH 371 0
DWIDTH 11 0
BBX 9 12 1 -1
BITMAP
3F00
3F00
2000
6000
7E00
4700
0380
0380
C380
E380
6700
3C00
ENDCHAR
STARTCHAR six.dnom
ENCODING -1
SWIDTH 371 0
DWIDTH 11 0
BBX 9 13 1 -1
BITMAP
0100
0E00
1800
3000
7000
6E00
F780
E380
E180
E180
6380
3300
0C00
ENDCHAR
STARTCHAR seven.dnom
ENCODING -1
SWIDTH 371 0
DWIDTH 11 0
BBX 8 11 2 0
BITMAP
FF
FF
02
06
04
0C
1C
18
38
30
70
ENDCHAR
STARTCHAR eight.dnom
ENCODING -1
SWIDTH 371 0
DWIDTH 11 0
BBX 9 13 1 -1
BITMAP
0C00
3700
6300
6300
7300
7E00
3E00
3F00
6380
E380
E380
7300
3C00
ENDCHAR
STARTCHAR nine.dnom
ENCODING -1
SWIDTH 371 0
DWIDTH 11 0
BBX 9 13 1 -1
BITMAP
0800
7700
E300
E380
E380
E380
7780
3B80
0300
0700
0E00
3800
6000
ENDCHAR
STARTCHAR parenleft.dnom
ENCODING -1
SWIDTH 265 0
DWIDTH 8 0
BBX 5 17 2 -4
BITMAP
18
30
30
60
E0
C0
C0
C0
C0
C0
C0
C0
60
60
30
10
08
ENDCHAR
STARTCHAR parenright.dnom
ENCODING -1
SWIDTH 265 0
DWIDTH 8 0
BBX 5 17 1 -4
BITMAP
C0
60
60
30
38
18
18
18
18
18
18
18
30
30
60
C0
80
ENDCHAR
ENDFONT
